<svg width="80" height="38" viewBox="0 0 80 38" fill="none" xmlns="http://www.w3.org/2000/svg">
<g clip-path="url(#clip0_159_849)">
<path d="M75.1451 25.9059V0.719476C75.1458 0.625219 75.1277 0.531768 75.0921 0.444504C75.0565 0.357241 75.0039 0.277888 74.9375 0.211016C74.8711 0.144143 74.7921 0.0910715 74.705 0.0548563C74.618 0.0186412 74.5247 -2.0945e-06 74.4304 1.76492e-10L19.8455 1.76492e-10C19.6547 1.76493e-10 19.4717 0.0758017 19.3368 0.21073C19.2019 0.345658 19.1261 0.528659 19.1261 0.719476V19.9976H18.6496V11.24C18.6502 11.1276 18.6286 11.0162 18.586 10.9122C18.5435 10.8081 18.4807 10.7136 18.4015 10.6339C18.3222 10.5542 18.228 10.4909 18.1242 10.4477C18.0204 10.4046 17.9091 10.3824 17.7967 10.3824H5.71809C5.5094 10.3847 5.30453 10.4386 5.12166 10.5392C4.9388 10.6398 4.7836 10.7839 4.66985 10.9589C3.54537 12.7123 2.22553 15.9428 1.33453 18.2204C1.23686 18.2026 1.13678 18.2026 1.03911 18.2204C0.55311 18.6301 0.000399807 20.3264 0.000399807 20.5694C0.000399807 20.7219 0.233872 20.8982 0.395873 20.9982V29.0983C0.340349 29.1 0.285761 29.113 0.235426 29.1366C0.185091 29.1601 0.140061 29.1935 0.103072 29.235C0.0660823 29.2764 0.0379064 29.325 0.0202563 29.3776C0.00260625 29.4303 -0.00414945 29.486 0.000399807 29.5414V32.1287C-0.000238871 32.1839 0.0101704 32.2387 0.0310159 32.2899C0.0518614 32.341 0.0827226 32.3875 0.121786 32.4266C0.160849 32.4656 0.207326 32.4965 0.258486 32.5173C0.309646 32.5382 0.364457 32.5486 0.419697 32.5479H6.85686C6.95821 32.3677 7.07797 32.1984 7.21422 32.0429H7.84793C7.80024 32.3183 7.77633 32.5972 7.77646 32.8767C7.77646 34.2137 8.30757 35.4959 9.25296 36.4413C10.1983 37.3867 11.4806 37.9178 12.8176 37.9178C14.1545 37.9178 15.4368 37.3867 16.3821 36.4413C17.3275 35.4959 17.8586 34.2137 17.8586 32.8767C17.858 32.5326 17.8229 32.1894 17.7538 31.8523H19.8074C19.9075 32.1287 20.1695 34.1346 20.1695 34.1346L20.384 34.0012C20.3506 33.134 20.1695 31.8189 20.1695 31.8189H20.4888L20.6889 32.2954H25.8872V32.1144C27.7343 31.9249 29.592 31.8612 31.4477 31.9238V32.5003H40.9105V32.1048C41.4245 32.1283 41.9336 32.2163 42.4257 32.3669C42.8064 32.597 43.1695 32.855 43.512 33.1388C43.549 33.1729 43.5975 33.1919 43.6478 33.1919C43.6981 33.1919 43.7466 33.1729 43.7836 33.1388L44.0695 32.8338C44.0871 32.8165 44.1008 32.7957 44.1099 32.7727C44.1189 32.7497 44.123 32.7251 44.1219 32.7004C44.1202 32.6755 44.1135 32.6513 44.102 32.6291C44.0905 32.607 44.0746 32.5875 44.0552 32.5718C43.6314 32.2229 43.1732 31.9179 42.6877 31.6617C42.1295 31.4921 41.5569 31.374 40.9772 31.3091V30.9946H49.4584L50.2494 31.9238H51.8741L52.4126 31.0947H53.5942C53.343 31.7842 53.2453 32.5202 53.308 33.2513C53.3707 33.9825 53.5923 34.6911 53.9573 35.3278C54.3223 35.9644 54.8218 36.5137 55.4211 36.9372C56.0203 37.3608 56.7048 37.6484 57.4268 37.7799C58.1487 37.9115 58.8907 37.8839 59.6008 37.699C60.311 37.5141 60.9722 37.1764 61.5383 36.7095C62.1044 36.2425 62.5617 35.6577 62.8784 34.9957C63.195 34.3336 63.3633 33.6105 63.3715 32.8767C63.3714 32.5826 63.3443 32.2891 63.2905 32H64.6293L65.1535 33.8725L65.6299 34.1823L65.3679 32H65.4632L66.1064 30.9136H71.7765V27.2496H72.4245V27.9357H72.0147V29.2126H72.515V29.5414H71.9956V30.7231H72.4959V31.0328H71.9956V31.8523H72.5531V33.2341H71.8622V33.5628L73.5251 33.9917H74.8878V33.6438L74.2494 33.3961V32.0619H74.6401V31.6522H75.8932V31.8332H76.1219V32.4002H76.4983V32.162H78.5519V32.3288H78.9664V28.3836H80.0004V25.9059H75.1451ZM0.476874 20.6027C0.435473 20.5403 0.40698 20.4701 0.39307 20.3965C0.379159 20.3229 0.380113 20.2472 0.395873 20.1739C0.476874 19.869 0.815171 18.7445 1.2297 18.5539C0.872347 19.5354 0.600757 20.2597 0.476874 20.6027ZM5.36073 13.9321H5.17491V14.4991H5.36073V18.1918H5.14632V18.7969H5.3655V20.1453H2.50665C2.46245 20.1452 2.41895 20.1343 2.37992 20.1135C2.3409 20.0928 2.30753 20.0628 2.28271 20.0262C2.25654 19.9902 2.23978 19.9483 2.23395 19.9042C2.22813 19.8601 2.23342 19.8152 2.24936 19.7737C3.1375 17.3299 4.17499 14.943 5.35597 12.6266L5.36073 13.9321ZM5.59897 14.3038H5.92774V17.9964H5.59897V14.3038ZM12.789 35.6593C12.2318 35.6593 11.6871 35.4937 11.2242 35.1835C10.7613 34.8733 10.401 34.4326 10.1891 33.9172C9.97723 33.4019 9.92325 32.8352 10.0341 32.2891C10.1449 31.743 10.4155 31.2422 10.8115 30.8502C11.2075 30.4582 11.7111 30.1927 12.2583 30.0875C12.8055 29.9823 13.3716 30.0421 13.8847 30.2592C14.3979 30.4764 14.8349 30.8411 15.1403 31.3072C15.4458 31.7732 15.6058 32.3195 15.6002 32.8767C15.5939 33.6177 15.2948 34.3262 14.7681 34.8475C14.2415 35.3688 13.53 35.6606 12.789 35.6593ZM15.6859 18.7016C15.6859 18.741 15.6782 18.7801 15.6631 18.8165C15.648 18.8529 15.6259 18.886 15.598 18.9139C15.5701 18.9417 15.537 18.9639 15.5006 18.9789C15.4642 18.994 15.4252 19.0018 15.3857 19.0018H8.10046C7.79212 19.0018 7.49641 19.1243 7.27838 19.3423C7.06035 19.5603 6.93786 19.856 6.93786 20.1644H5.80385V18.816H6.13262V19.2924C6.13262 19.3695 6.16324 19.4434 6.21775 19.498C6.27226 19.5525 6.34619 19.5831 6.42327 19.5831H6.67104C6.74812 19.5831 6.82205 19.5525 6.87656 19.498C6.93106 19.4434 6.96169 19.3695 6.96169 19.2924V13.6367C6.9617 13.5592 6.93123 13.4847 6.87685 13.4295C6.82248 13.3742 6.74856 13.3425 6.67104 13.3413H6.41851C6.34142 13.3413 6.26749 13.3719 6.21299 13.4264C6.15848 13.4809 6.12786 13.5548 6.12786 13.6319V13.9464H5.79909V11.9119L5.84197 11.8451L15.319 11.8213C15.3671 11.8216 15.4145 11.8315 15.4587 11.8503C15.5029 11.8691 15.5429 11.8965 15.5763 11.9309C15.6437 11.9996 15.6813 12.092 15.6812 12.1882L15.6859 18.7016ZM58.378 35.6593C57.8218 35.6593 57.2781 35.4943 56.8157 35.1852C56.3533 34.8761 55.993 34.4368 55.7803 33.9228C55.5677 33.4089 55.5123 32.8434 55.6212 32.2979C55.73 31.7525 55.9983 31.2516 56.3919 30.8586C56.7855 30.4657 57.2869 30.1983 57.8325 30.0904C58.3781 29.9824 58.9435 30.0388 59.4571 30.2523C59.9707 30.4658 60.4094 30.8269 60.7178 31.2898C61.0261 31.7527 61.1901 32.2967 61.1892 32.8529C61.1892 33.2218 61.1165 33.5872 60.9751 33.928C60.8338 34.2688 60.6266 34.5784 60.3655 34.839C60.1044 35.0997 59.7945 35.3063 59.4534 35.4471C59.1124 35.5878 58.747 35.66 58.378 35.6593ZM73.4679 33.277H73.2154V30.5944H73.4679V33.277ZM74.6401 31.4568V31.2043H74.2922V30.9708H74.6877V29.8273H75.8122L75.8455 31.4473L74.6401 31.4568ZM75.8694 29.5843H74.1588V29.3889H74.6877V28.112H74.9259V28.3121H75.8789L75.8694 29.5843ZM78.5757 31.8618H76.5174V30.299H78.5757V31.8618ZM78.5757 29.9226H76.5174V28.3597H78.5757V29.9226Z" fill="#004290"/>
</g>
<defs>
<clipPath id="clip0_159_849">
<rect width="80" height="37.913" fill="white"/>
</clipPath>
</defs>
</svg>
