<svg width="80" height="31" viewBox="0 0 80 31" fill="none" xmlns="http://www.w3.org/2000/svg">
<g clip-path="url(#clip0_159_841)">
<path d="M2.46597 2.17969H77.5351C78.189 2.18059 78.8157 2.44225 79.2778 2.90723C79.74 3.37221 79.9997 4.00252 80 4.6598V12.8036H78.9374C78.8431 12.8036 78.7527 12.8412 78.686 12.9082C78.6193 12.9753 78.5819 13.0662 78.5819 13.161V16.1189C78.5817 16.166 78.5908 16.2126 78.6086 16.2561C78.6264 16.2996 78.6526 16.3392 78.6856 16.3726C78.7186 16.4059 78.7578 16.4324 78.801 16.4505C78.8443 16.4686 78.8906 16.4779 78.9374 16.478H80V17.7218H78.9374C78.8431 17.7218 78.7527 17.7594 78.686 17.8264C78.6193 17.8935 78.5819 17.9844 78.5819 18.0791V19.1996C78.5819 19.2944 78.6193 19.3853 78.686 19.4523C78.7527 19.5193 78.8431 19.557 78.9374 19.557H80V22.0632C80.0026 22.6821 79.7738 23.2793 79.3589 23.7365C78.944 24.1937 78.3733 24.4774 77.7601 24.5314L65.3307 25.6826C65.2524 24.4102 64.6937 23.216 63.7687 22.344C62.8437 21.4719 61.6223 20.988 60.3542 20.9912C59.0861 20.9943 57.8671 21.4842 56.9464 22.3607C56.0256 23.2373 55.4727 24.4343 55.4006 25.707H22.6788C22.6059 24.4327 22.051 23.2346 21.1278 22.3583C20.2045 21.4821 18.9829 20.9939 17.7132 20.9939C16.4434 20.9939 15.2218 21.4821 14.2986 22.3583C13.3753 23.2346 12.8204 24.4327 12.7476 25.707H2.46597C1.81218 25.7062 1.18538 25.4448 0.723083 24.9801C0.26078 24.5153 0.000732422 23.8852 -1.52588e-05 23.228V22.6479C0.413025 22.6273 0.802391 22.4479 1.08748 22.1467C1.37257 21.8455 1.53156 21.4457 1.53156 21.03C1.53156 20.6143 1.37257 20.2144 1.08748 19.9133C0.802391 19.6121 0.413025 19.4327 -1.52588e-05 19.4121V16.0189H2.13476C2.24044 16.0189 2.34179 15.9767 2.41652 15.9016C2.49125 15.8265 2.53323 15.7246 2.53323 15.6183V6.23253C2.53323 6.1263 2.49125 6.02441 2.41652 5.94929C2.34179 5.87417 2.24044 5.83196 2.13476 5.83196H-1.52588e-05V4.6598C0.000434875 4.00237 0.260353 3.37198 0.722679 2.907C1.18501 2.44202 1.81198 2.18044 2.46597 2.17969ZM75.0381 10.9865C75.2746 10.9862 75.5013 10.8917 75.6686 10.7236C75.8359 10.5556 75.9301 10.3277 75.9305 10.0899V6.73026C75.9305 6.61225 75.9074 6.49539 75.8624 6.38637C75.8175 6.27734 75.7516 6.17829 75.6686 6.09487C75.5856 6.01145 75.487 5.94529 75.3785 5.90018C75.27 5.85507 75.1538 5.83189 75.0364 5.83196H59.7386V10.9882L75.0381 10.9865ZM58.5206 10.9865V5.83196H50.4998V10.9882L58.5206 10.9865ZM49.2817 10.9865V5.83196H41.2609V10.9882L49.2817 10.9865ZM40.0429 10.9865V5.83196H32.0221V10.9882L40.0429 10.9865ZM30.8041 10.9865V5.83196H22.785V10.9882L30.8041 10.9865ZM21.4088 11.0484C21.5123 11.0076 21.6225 10.9866 21.7337 10.9865H21.5642V5.83196H13.5445V14.1399L21.4088 11.0484ZM11.4182 23.7564C11.5376 23.7563 11.6557 23.7326 11.7659 23.6866C11.8762 23.6405 11.9762 23.5731 12.0605 23.4881C12.1448 23.4032 12.2115 23.3023 12.257 23.1914C12.3024 23.0805 12.3257 22.9616 12.3254 22.8416V6.74447C12.3254 6.50255 12.2298 6.27054 12.0597 6.09943C11.8896 5.92832 11.6589 5.83212 11.4182 5.83196H8.7205V23.7564H11.4182ZM4.28706 22.8416C4.28706 23.0837 4.38269 23.3158 4.55292 23.4869C4.72315 23.658 4.95403 23.7541 5.19477 23.7541H7.89135V5.83196H5.19477C4.95403 5.83196 4.72315 5.9281 4.55292 6.09923C4.38269 6.27036 4.28706 6.50246 4.28706 6.74447V22.8416Z" fill="#004290"/>
<path d="M60.3663 21.4414C61.5127 21.4427 62.6153 21.8848 63.4479 22.6772C64.2804 23.4695 64.7799 24.552 64.8438 25.7028C64.8483 25.784 64.8506 25.8658 64.8506 25.9477C64.8506 26.0295 64.8506 26.1113 64.8438 26.1925C64.782 27.3443 64.2834 28.4284 63.4505 29.2218C62.6177 30.0151 61.5139 30.4573 60.3665 30.4573C59.2192 30.4573 58.1154 30.0151 57.2826 29.2218C56.4497 28.4284 55.951 27.3443 55.8893 26.1925C55.8848 26.1113 55.8825 26.0295 55.8825 25.9477C55.8825 25.8658 55.8825 25.784 55.8893 25.7028C55.9532 24.5521 56.4526 23.4697 57.285 22.6774C58.1175 21.885 59.2199 21.4428 60.3663 21.4414ZM59.1143 26.1931C59.1758 26.5053 59.3505 26.7833 59.6045 26.9733C59.8584 27.1632 60.1736 27.2515 60.4887 27.221C60.8038 27.1905 61.0963 27.0433 61.3096 26.8081C61.5228 26.5729 61.6414 26.2665 61.6425 25.9482C61.6355 25.6127 61.498 25.2933 61.2594 25.0585C61.0209 24.8238 60.7004 24.6923 60.3665 24.6923C60.0327 24.6923 59.7122 24.8238 59.4737 25.0585C59.2351 25.2933 59.0976 25.6127 59.0906 25.9482C59.0907 26.0304 59.0987 26.1124 59.1143 26.1931Z" fill="#004290"/>
<path d="M17.7145 21.4414C18.8609 21.4428 19.9633 21.885 20.7957 22.6774C21.6281 23.4697 22.1275 24.5521 22.1915 25.7028C22.196 25.784 22.1982 25.8658 22.1982 25.9477C22.1982 26.0295 22.1982 26.1113 22.1915 26.1925C22.1297 27.3443 21.6311 28.4284 20.7982 29.2218C19.9653 30.0151 18.8616 30.4573 17.7142 30.4573C16.5668 30.4573 15.4631 30.0151 14.6302 29.2218C13.7973 28.4284 13.2987 27.3443 13.2369 26.1925C13.2324 26.1113 13.2302 26.0295 13.2302 25.9477C13.2302 25.8658 13.2302 25.784 13.2369 25.7028C13.3009 24.552 13.8003 23.4695 14.6329 22.6772C15.4654 21.8848 16.568 21.4427 17.7145 21.4414ZM16.4609 26.1931C16.5223 26.5053 16.697 26.7833 16.951 26.9733C17.205 27.1632 17.5201 27.2515 17.8352 27.221C18.1503 27.1905 18.4429 27.0433 18.6561 26.8081C18.8693 26.5729 18.988 26.2665 18.989 25.9482C18.982 25.6127 18.8445 25.2933 18.606 25.0585C18.3674 24.8238 18.0469 24.6923 17.7131 24.6923C17.3792 24.6923 17.0587 24.8238 16.8202 25.0585C16.5817 25.2933 16.4442 25.6127 16.4371 25.9482C16.4373 26.0304 16.4452 26.1124 16.4609 26.1931Z" fill="#004290"/>
<path d="M37.442 0L39.353 1.68864L39.3535 1.68921H17.2999L17.3004 1.68864L19.2108 0H37.442Z" fill="#004290"/>
<path d="M42.3942 1.68864L44.3051 0H62.5363L64.4467 1.68864L64.4473 1.68921H42.3936L42.3942 1.68864Z" fill="#004290"/>
<path d="M5.92822 14.2012H7.30562C7.41675 14.2012 7.50684 14.2917 7.50684 14.4034V15.1824C7.50684 15.2941 7.41675 15.3847 7.30562 15.3847H5.92822C5.81709 15.3847 5.72701 15.2941 5.72701 15.1824V14.4034C5.72701 14.2917 5.81709 14.2012 5.92822 14.2012Z" fill="#004290"/>
<path d="M9.30713 14.2012H10.6845C10.7957 14.2012 10.8857 14.2917 10.8857 14.4034V15.1824C10.8857 15.2941 10.7957 15.3847 10.6845 15.3847H9.30713C9.196 15.3847 9.10592 15.2941 9.10592 15.1824V14.4034C9.10592 14.2917 9.196 14.2012 9.30713 14.2012Z" fill="#004290"/>
</g>
<defs>
<clipPath id="clip0_159_841">
<rect width="80" height="30.4569" fill="white" transform="matrix(-1 0 0 1 80 0)"/>
</clipPath>
</defs>
</svg>
