<svg width="80" height="24" viewBox="0 0 80 24" fill="none" xmlns="http://www.w3.org/2000/svg">
<g clip-path="url(#clip0_159_851)">
<path d="M79.6374 13.225L78.7757 12.2739C78.5238 11.9915 78.3812 11.6291 78.3733 11.2516L78.2575 7.22316C78.2525 7.05961 78.1884 6.90332 78.077 6.78291C77.9655 6.66249 77.8142 6.58601 77.6507 6.56746L70.852 5.81958C67.297 4.09427 63.6199 2.62953 59.8502 1.43706C58.6089 1.04511 57.3337 0.768108 56.0411 0.609581C50.2309 -0.100657 44.3608 -0.190551 38.5314 0.341435C36.2452 0.546392 34.0168 1.16924 31.9581 2.17866C28.9727 3.65015 26.0803 5.30119 23.297 7.1226C12.6934 7.29229 4.00276 8.87813 1.53357 10.9751C1.31821 11.1609 1.17694 11.4173 1.13538 11.6979L0.88678 13.3151L0.661351 13.6042C0.402149 13.9372 0.269355 14.3503 0.286338 14.7711L0.372717 16.9686C0.380758 17.2046 0.330863 17.439 0.227347 17.6515L0.0777628 17.9616C0.00596703 18.1085 -0.0169088 18.2743 0.0124515 18.435L0.155715 19.2583C0.176787 19.3749 0.234026 19.4821 0.319411 19.5647C0.404796 19.6474 0.514048 19.7014 0.631855 19.7192L5.0035 20.3016V18.1795C5.0035 14.4086 8.01414 11.2789 11.8001 11.2286C12.7128 11.2155 13.6191 11.383 14.4661 11.7214C15.3132 12.0597 16.0841 12.562 16.7342 13.1992C17.3843 13.8365 17.9004 14.5958 18.2527 15.4332C18.605 16.2705 18.7864 17.1691 18.7863 18.0768V20.6242H57.5875V18.1795C57.5875 14.4086 60.5981 11.2789 64.3841 11.2286C65.2962 11.2167 66.2017 11.385 67.0479 11.7238C67.894 12.0625 68.6641 12.5651 69.3135 13.2021C69.9628 13.8392 70.4784 14.5982 70.8304 15.435C71.1824 16.2718 71.3638 17.1698 71.364 18.0768V20.0188L78.2069 18.7032C78.5919 18.6285 78.9428 18.4333 79.2081 18.146C79.4735 17.8588 79.6395 17.4946 79.6817 17.1069L79.9893 14.2976C80.0096 14.1043 79.9888 13.9089 79.9282 13.7241C79.8676 13.5393 79.7685 13.3692 79.6374 13.225ZM61.8475 3.74145C62.0162 3.83902 62.1622 3.97114 62.2757 4.12905C62.3893 4.28696 62.4678 4.46705 62.506 4.6574C62.5443 4.84775 62.5414 5.044 62.4976 5.23317C62.4538 5.42233 62.3701 5.60008 62.252 5.75464L61.4388 6.82094C60.0693 6.86912 58.5482 6.9215 56.8564 6.97387L57.143 2.05715C58.7933 2.35866 60.3826 2.92767 61.8475 3.74145ZM41.1375 7.33209C36.8775 7.43265 32.6245 7.57231 28.3786 7.75107L28.6967 5.32938C29.9608 4.62549 31.2249 3.95094 32.5101 3.31828C34.4282 2.37144 36.5062 1.78617 38.6388 1.59209C40.0869 1.45941 41.5378 1.36654 42.9915 1.31347L41.1375 7.33209ZM44.7823 1.27157C48.4897 1.2139 52.1966 1.41059 55.8768 1.86023C56.1148 1.88747 56.3445 1.92308 56.5699 1.95869L56.1486 7.0011C52.8493 7.09956 48.9348 7.19802 44.2935 7.26506L44.7823 1.27157Z" fill="#004290"/>
<path d="M17.0358 20.3522C18.2109 17.5313 16.8637 14.2974 14.0268 13.129C11.1899 11.9605 7.93753 13.3001 6.76244 16.1209C5.58736 18.9418 6.93453 22.1757 9.77143 23.3442C12.6083 24.5126 15.8607 23.173 17.0358 20.3522Z" fill="#004290"/>
<path d="M69.6129 20.3541C70.788 17.5333 69.4408 14.2993 66.6039 13.1309C63.767 11.9625 60.5147 13.302 59.3396 16.1229C58.1645 18.9437 59.5117 22.1777 62.3486 23.3461C65.1855 24.5145 68.4378 23.175 69.6129 20.3541Z" fill="#004290"/>
<path d="M76.6884 7.61825C75.8456 7.5575 75.0029 7.51979 74.1454 7.49465C73.6545 7.47789 73.4712 7.87802 73.8694 8.20482C74.7417 8.92546 75.5717 9.69219 76.3976 10.4694C76.6498 10.7103 76.9876 10.8421 77.3373 10.836H77.746C77.7541 9.97759 77.6607 9.12119 77.4679 8.28442C77.3499 7.80679 77.2172 7.65596 76.6884 7.61825Z" fill="white"/>
<path d="M5.91835 10.5849C4.85117 10.635 3.7921 10.7951 2.75813 11.0625C2.57286 11.1216 2.40212 11.2187 2.25695 11.3475C2.11179 11.4764 1.99543 11.634 1.9154 11.8104C1.70408 12.2162 1.56643 12.6559 1.50879 13.1092C2.14599 13.0394 2.78739 13.0149 3.4281 13.0359C3.79144 13.0424 4.14734 12.933 4.44358 12.7238C5.07617 12.2737 5.67342 11.7765 6.23016 11.2364C6.55672 10.9159 6.37132 10.5639 5.91835 10.5849Z" fill="white"/>
<circle cx="11.8808" cy="18.2187" r="3.56436" fill="white"/>
<circle cx="64.5546" cy="18.2187" r="3.56436" fill="white"/>
</g>
<defs>
<clipPath id="clip0_159_851">
<rect width="80" height="23.7624" fill="white"/>
</clipPath>
</defs>
</svg>
