<svg width="80" height="37" viewBox="0 0 80 37" fill="none" xmlns="http://www.w3.org/2000/svg">
<g clip-path="url(#clip0_159_861)">
<path d="M70.7879 23.1055L80 12.9087L77.821 9.61024H66.6787C66.6281 9.52996 66.5754 9.45038 66.5213 9.37081C66.4672 9.29123 66.4257 9.22997 66.3807 9.15955C66.2968 9.03842 66.2118 8.91777 66.1255 8.79759C66.082 8.73843 66.0391 8.67858 65.9948 8.61872C65.9723 8.58914 65.9505 8.55957 65.9245 8.53069C65.8435 8.42178 65.7607 8.31357 65.6764 8.20606C65.6202 8.13564 65.5632 8.06522 65.5063 7.9948C65.4234 7.89198 65.339 7.78988 65.2533 7.68847C65.183 7.61101 65.1204 7.53355 65.0529 7.45679C65.0164 7.41313 64.9826 7.37017 64.9419 7.32862C64.9011 7.28708 64.8814 7.2582 64.8512 7.22722L64.7626 7.13004C64.6923 7.05962 64.6284 6.98497 64.5602 6.91244C64.492 6.83991 64.4196 6.7716 64.3493 6.69695C64.279 6.62231 64.2298 6.57372 64.1687 6.51457C64.1328 6.47795 64.0984 6.44415 64.0597 6.40682C64.0148 6.36105 63.9684 6.31598 63.9192 6.27162C63.87 6.22725 63.8116 6.16669 63.7561 6.11599C63.6858 6.0512 63.6155 5.98642 63.5452 5.92233C63.3245 5.72023 63.0989 5.52516 62.869 5.33432C62.8058 5.28292 62.7432 5.23151 62.6793 5.18081C62.5687 5.09161 62.4571 5.00382 62.3447 4.91744C62.2856 4.87096 62.2259 4.8273 62.1661 4.78153C62.1282 4.75406 62.0909 4.72449 62.0523 4.69773C62.0136 4.67097 61.9672 4.63505 61.9243 4.60407C61.8815 4.57308 61.8393 4.54139 61.7957 4.51182C61.7521 4.48224 61.71 4.45055 61.6664 4.42098C61.5167 4.31605 61.3655 4.20972 61.213 4.11324C61.1371 4.06324 61.0605 4.01324 60.9832 3.96465C60.9058 3.91606 60.8278 3.86818 60.7505 3.82381C60.7069 3.79564 60.6612 3.76818 60.6156 3.74072L60.4904 3.66607L60.3499 3.58157L60.269 3.52101L60.0905 3.42242C59.9804 3.36045 59.8693 3.30012 59.7573 3.24144C59.6765 3.19778 59.595 3.15553 59.5134 3.11327C59.4572 3.0844 59.401 3.05553 59.344 3.02736L59.1838 2.94708C59.098 2.90483 59.0108 2.86399 58.9251 2.82385C58.8548 2.78864 58.7775 2.75343 58.7023 2.72103C58.5148 2.63653 58.3274 2.55484 58.14 2.47597L58.0057 2.42175C57.941 2.39569 57.8764 2.36964 57.8117 2.34499C57.7604 2.32457 57.7098 2.30415 57.6585 2.28584C57.624 2.27175 57.5882 2.25908 57.5544 2.2464C57.5207 2.23373 57.506 2.22739 57.4842 2.21894L57.3928 2.18584L57.3485 2.16964C57.3105 2.15486 57.2719 2.14148 57.2346 2.1288C57.1974 2.11612 57.177 2.10838 57.1482 2.09922L56.9183 2.02035C56.848 1.99852 56.7827 1.97528 56.7145 1.95416C56.6463 1.93303 56.562 1.90557 56.4853 1.88374C56.4298 1.86613 56.3729 1.84923 56.3152 1.83304C56.2 1.79783 56.0828 1.76473 55.9638 1.73374L55.7944 1.69008C55.7593 1.67952 55.7241 1.67107 55.6911 1.66262C55.6208 1.6429 55.5449 1.6253 55.4718 1.60699C55.4113 1.59149 55.3509 1.57812 55.2911 1.56403C55.1505 1.53164 55.01 1.49995 54.8694 1.47108L54.7204 1.44009C54.6923 1.43446 54.6641 1.42812 54.6353 1.42319L54.5102 1.39925L54.319 1.36404C54.2347 1.34925 54.1503 1.33446 54.0653 1.32108C53.9437 1.30066 53.8207 1.28165 53.6984 1.26475L53.5754 1.24784C53.4601 1.23165 53.3448 1.21686 53.2288 1.20418C53.1473 1.19503 53.0658 1.18517 52.9835 1.17672L52.8893 1.16686L52.8247 1.16052C52.7621 1.15489 52.7003 1.14855 52.6384 1.14433C52.5934 1.1394 52.5484 1.13588 52.5041 1.13236L52.2413 1.11405C52.1492 1.10771 52.0564 1.10278 51.9643 1.09855C51.8884 1.09503 51.8125 1.09151 51.7359 1.0894L51.5074 1.08236C51.3542 1.07813 51.2017 1.07672 51.0477 1.07672C50.8938 1.07672 50.7525 1.07672 50.6077 1.08236C50.5592 1.08236 50.5121 1.08236 50.4672 1.08658C50.4222 1.09081 50.3891 1.08658 50.3505 1.09081L50.2162 1.09715C50.1459 1.09715 50.0756 1.10489 50.0011 1.10982C49.9786 1.10982 49.9569 1.10982 49.9351 1.11405C49.8648 1.11898 49.7945 1.12391 49.7242 1.13024L49.6117 1.1401C49.5682 1.1401 49.5246 1.14785 49.4824 1.15348C49.4402 1.15912 49.3819 1.16334 49.3334 1.16968L49.2842 1.17461L49.2371 1.18024H49.2322L49.0656 1.20207L48.9018 1.22601C48.8069 1.23939 48.7141 1.25489 48.6207 1.27108C48.5272 1.28728 48.4365 1.30418 48.3465 1.32179C48.2678 1.33798 48.1891 1.35418 48.1118 1.37249C48.0801 1.37883 48.0492 1.38657 48.0176 1.39432C47.962 1.40629 47.9079 1.41967 47.8531 1.43375C47.7983 1.44784 47.747 1.46051 47.6956 1.4753C47.6724 1.48023 47.65 1.48657 47.6254 1.49291C47.5776 1.50629 47.5312 1.51896 47.4848 1.53305H47.4714L47.3126 1.58093H47.3076C47.2247 1.60699 47.1432 1.63375 47.0616 1.66192C46.9801 1.69008 46.9007 1.71825 46.8212 1.74783C46.7418 1.7774 46.6638 1.80839 46.5858 1.84008C43.5795 3.06398 41.7337 5.71811 39.2707 9.61024H34.5199L31.3365 0H14.8184L17.0101 3.73579H10.1554H9.2508L0 18.4177V28.4716H11.7538C11.4757 29.2968 11.3363 30.1625 11.3412 31.0334C11.3412 34.0291 12.8974 36.4558 14.8163 36.4558H17.5021C17.545 36.4558 17.5878 36.4558 17.63 36.4509H17.6356C17.7261 36.4618 17.8172 36.4675 17.9084 36.4678H20.5948C21.3097 36.4678 21.9732 36.1305 22.5257 35.5523H22.5355L22.5679 35.5065C23.4753 34.5284 24.0692 32.8947 24.0692 31.044C24.0742 30.1684 23.9336 29.2981 23.6531 28.4687H24.7609C24.4836 29.2941 24.3446 30.1598 24.3497 31.0306C24.3497 34.0263 25.9045 36.453 27.8241 36.453H30.5056C30.5485 36.453 30.5914 36.453 30.6336 36.4481H30.6392C30.7297 36.459 30.8208 36.4646 30.9119 36.465H33.5984C34.3132 36.465 34.9768 36.1276 35.5292 35.5495H35.5391L35.5721 35.5037C36.4781 34.5249 37.0728 32.8918 37.0728 31.0412C37.0777 30.1656 36.9371 29.2953 36.6567 28.4659H40.427C40.1495 29.2913 40.0103 30.1569 40.0151 31.0278C40.0151 34.0235 41.5706 36.4502 43.4895 36.4502H46.1746C46.2168 36.4502 46.2596 36.4502 46.3018 36.4452H46.3067C46.3977 36.4561 46.4892 36.4618 46.5809 36.4621H49.2652C49.9801 36.4621 50.6443 36.1248 51.1968 35.5467H51.2066L51.2389 35.5009C51.9144 34.7713 52.417 33.6791 52.6286 32.4024C53.0194 34.7305 54.3753 36.4481 55.9891 36.4481H58.6742C58.717 36.4481 58.7599 36.4481 58.8021 36.4431H58.807C58.898 36.454 58.9895 36.4597 59.0811 36.46H61.7655C62.4803 36.46 63.1439 36.1227 63.6963 35.5446H63.7062L63.7385 35.4988C64.646 34.5199 65.2399 32.8869 65.2399 31.0363C65.2399 29.2553 64.6902 27.6758 63.8411 26.6871V25.3942H71.3621L73.0434 23.1055H70.7879ZM50.0525 31.182C50.0525 31.1919 50.0525 31.201 50.0525 31.2109C50.051 31.201 50.0518 31.1919 50.0518 31.182H50.0525ZM34.7701 12.5122H33.8908L33.9344 12.7066L33.9379 12.7221L34.8003 16.4832L35.5391 19.7043L35.8069 20.8746L35.3514 21.1472H33.999L33.6687 19.7043L33.3833 18.4677L31.8088 11.6566L32.4238 11.4954H34.5086L34.7701 12.5122ZM62.9759 12.5122H62.0959L62.1444 12.7235L63.7448 19.7057L64.0134 20.876L63.5579 21.1486H62.2062L61.873 19.7057L60.0111 11.6566L60.6289 11.4954H62.7123L62.9759 12.5122ZM28.7126 11.4954L31.3955 23.1055H27.2857L28.34 24.54H26.7683V3.73649L28.7126 11.4954ZM58.9989 20.8746L58.5427 21.1472H57.1911L56.8579 19.7043L54.9966 11.6566L55.6138 11.4954H57.6978L57.9614 12.5122H57.0814L57.1299 12.7235L58.7297 19.7057L58.9989 20.8746ZM53.0728 20.8746L52.6159 21.1472H51.2649L50.9318 19.7043L49.0705 11.6566L49.6876 11.4954H51.7717L52.0353 12.5122H51.1553L51.2003 12.7073V12.7221L52.8001 19.7043L53.0728 20.8746ZM43.6034 11.6566L44.2205 11.4954H46.3046L46.5682 12.5122H45.6882L45.7332 12.708V12.7221L47.3344 19.7043L47.6022 20.8746L47.146 21.1472H45.7971L45.464 19.7043L43.6034 11.6566ZM25.4279 5.74699V17.736H22.8518V5.74699H25.4279ZM21.38 31.1482C21.38 31.1757 21.38 31.2032 21.38 31.2313C21.3793 31.2039 21.38 31.1757 21.38 31.1482ZM21.38 31.0391C21.38 31.0391 21.38 31.0447 21.38 31.0475C21.38 31.0504 21.38 31.0602 21.38 31.0658C21.38 31.0595 21.38 31.0532 21.38 31.0468C21.38 31.0405 21.3814 31.0412 21.3814 31.0391H21.38ZM34.3835 31.1665C34.3835 31.1841 34.3835 31.2025 34.3835 31.2208C34.3842 31.2025 34.3849 31.1849 34.3849 31.1665H34.3835ZM67.5271 11.4954L67.7921 12.5122H66.9156L66.9627 12.7235L67.7169 16.0509L67.2614 16.322H65.907L64.8273 11.6581L65.4444 11.4968L67.5271 11.4954ZM38.0597 11.5327L38.2002 11.4961H40.2843L40.5479 12.513H39.6693L39.7178 12.7242L41.3183 19.7064L41.5868 20.8768L41.1313 21.1493H39.7789L39.4458 19.7064L37.6913 12.1123L37.5845 11.6545L38.0597 11.5327ZM19.6108 5.23785V18.2452H3.86592L11.3412 5.23785H19.6108ZM14.7671 34.2509C14.7376 34.2509 14.7067 34.2573 14.6764 34.2594C14.6462 34.2615 14.6153 34.2629 14.5844 34.2629C13.3944 34.2629 12.4293 32.7771 12.4293 30.9447C12.4293 29.9588 12.7062 29.0793 13.1477 28.4723C13.5286 27.9462 14.0326 27.6272 14.5844 27.6272C14.6153 27.6272 14.6455 27.6272 14.6764 27.6272C14.7074 27.6272 14.7376 27.6329 14.7671 27.6364C14.8913 27.6528 15.0129 27.6848 15.1291 27.7314L15.1361 27.78C15.1416 27.767 15.148 27.7542 15.1551 27.742C15.5042 27.9011 15.8034 28.1527 16.0204 28.4694C16.0597 28.523 16.0977 28.5793 16.1335 28.6371C16.2837 28.8779 16.4045 29.1358 16.4934 29.4053C16.8219 30.4078 16.8205 31.4895 16.4892 32.4911C16.3991 32.7608 16.2771 33.0188 16.1258 33.2594C15.8447 33.7052 15.4806 34.0291 15.0715 34.1749C14.9722 34.2114 14.8692 34.2369 14.7643 34.2509H14.7671ZM25.4343 30.9447C25.4343 29.9588 25.7112 29.0793 26.1526 28.4723C26.5336 27.9462 27.0376 27.6272 27.5893 27.6272C27.7853 27.6276 27.9792 27.6676 28.1594 27.7448C28.5089 27.9036 28.8084 28.1552 29.0253 28.4723C29.0647 28.5258 29.102 28.5821 29.1385 28.6399C29.2886 28.8802 29.4094 29.1376 29.4984 29.4067C29.8278 30.4101 29.8263 31.493 29.4942 32.4954C29.4036 32.7644 29.2816 33.0218 29.1308 33.2622C28.8496 33.7087 28.4848 34.0319 28.0764 34.1777C27.9198 34.2335 27.7549 34.2623 27.5886 34.2629C26.3965 34.2629 25.4314 32.7771 25.4314 30.9447H25.4343ZM43.4389 34.2509C43.4094 34.2509 43.3785 34.2573 43.3475 34.2594C43.3166 34.2615 43.2864 34.2629 43.2562 34.2629C42.0669 34.2629 41.1018 32.7771 41.1018 30.9447C41.1018 29.9588 41.3787 29.0793 41.8201 28.4723C42.2011 27.9462 42.7051 27.6272 43.2562 27.6272C43.2864 27.6272 43.3173 27.6272 43.3475 27.6272C43.3778 27.6272 43.4094 27.6329 43.4389 27.6364C43.5723 27.6535 43.7026 27.6891 43.8262 27.742C44.1761 27.9005 44.4758 28.1521 44.6929 28.4694C44.7322 28.523 44.7695 28.5793 44.806 28.6371C44.9556 28.8777 45.0764 29.1351 45.1659 29.4039C45.4945 30.4074 45.493 31.49 45.1617 32.4926C45.0709 32.7616 44.9487 33.0191 44.7976 33.2594C44.5164 33.7059 44.1516 34.0291 43.7433 34.1749C43.6446 34.2103 43.5426 34.2358 43.4389 34.2509ZM52.6279 29.6736C52.5607 29.2668 52.4593 28.8663 52.3249 28.4765H52.928C52.7938 28.8654 52.6925 29.2649 52.625 29.6708L52.6279 29.6736ZM55.7564 34.2657C54.5664 34.2657 53.6014 32.7799 53.6014 30.9475C53.6014 29.9617 53.8825 29.0821 54.3204 28.4751C54.7007 27.949 55.2054 27.63 55.7564 27.63C55.9524 27.6306 56.1463 27.6706 56.3265 27.7476C56.6762 27.9064 56.9759 28.1579 57.1932 28.4751C57.2325 28.5286 57.2698 28.5849 57.3063 28.6427C57.4559 28.8832 57.5765 29.1406 57.6655 29.4096C57.9949 30.4129 57.9935 31.4958 57.6613 32.4982C57.5707 32.7673 57.4487 33.0247 57.2979 33.2651C57.0167 33.7115 56.6512 34.0348 56.2435 34.1805C56.0861 34.2355 55.9204 34.2634 55.7536 34.2629L55.7564 34.2657Z" fill="#004290"/>
<path d="M16.036 35.4861C18.3814 35.4861 20.2828 33.5812 20.2828 31.2313C20.2828 28.8815 18.3814 26.9766 16.036 26.9766C13.6905 26.9766 11.7891 28.8815 11.7891 31.2313C11.7891 33.5812 13.6905 35.4861 16.036 35.4861Z" fill="#004290"/>
<path d="M29.1824 35.617C31.5279 35.617 33.4293 33.7121 33.4293 31.3622C33.4293 29.0124 31.5279 27.1074 29.1824 27.1074C26.8369 27.1074 24.9355 29.0124 24.9355 31.3622C24.9355 33.7121 26.8369 35.617 29.1824 35.617Z" fill="#004290"/>
<path d="M44.8807 35.4627C47.2262 35.4627 49.1276 33.5578 49.1276 31.2079C49.1276 28.8581 47.2262 26.9531 44.8807 26.9531C42.5352 26.9531 40.6338 28.8581 40.6338 31.2079C40.6338 33.5578 42.5352 35.4627 44.8807 35.4627Z" fill="#004290"/>
<path d="M57.5125 35.492C59.858 35.492 61.7594 33.5871 61.7594 31.2372C61.7594 28.8874 59.858 26.9824 57.5125 26.9824C55.167 26.9824 53.2656 28.8874 53.2656 31.2372C53.2656 33.5871 55.167 35.492 57.5125 35.492Z" fill="#004290"/>
<path d="M17.4842 35.4021C19.8297 35.4021 21.7311 33.4972 21.7311 31.1474C21.7311 28.7975 19.8297 26.8926 17.4842 26.8926C15.1387 26.8926 13.2373 28.7975 13.2373 31.1474C13.2373 33.4972 15.1387 35.4021 17.4842 35.4021Z" fill="white"/>
<path d="M30.6297 35.535C32.9752 35.535 34.8766 33.63 34.8766 31.2802C34.8766 28.9303 32.9752 27.0254 30.6297 27.0254C28.2842 27.0254 26.3828 28.9303 26.3828 31.2802C26.3828 33.63 28.2842 35.535 30.6297 35.535Z" fill="white"/>
<path d="M46.3279 35.3807C48.6734 35.3807 50.5748 33.4757 50.5748 31.1259C50.5748 28.776 48.6734 26.8711 46.3279 26.8711C43.9825 26.8711 42.0811 28.776 42.0811 31.1259C42.0811 33.4757 43.9825 35.3807 46.3279 35.3807Z" fill="white"/>
<path d="M58.9598 35.41C61.3053 35.41 63.2067 33.505 63.2067 31.1552C63.2067 28.8053 61.3053 26.9004 58.9598 26.9004C56.6143 26.9004 54.7129 28.8053 54.7129 31.1552C54.7129 33.505 56.6143 35.41 58.9598 35.41Z" fill="white"/>
</g>
<defs>
<clipPath id="clip0_159_861">
<rect width="80" height="36.4706" fill="white"/>
</clipPath>
</defs>
</svg>
