<svg width="80" height="50" viewBox="0 0 80 50" fill="none" xmlns="http://www.w3.org/2000/svg">
<path d="M79.7284 36.2163V35.7043H77.9439L75.8915 34.3791H49.478C49.6885 34.2691 49.899 34.1638 50.1143 34.0682L49.4302 32.9582C48.5379 33.3059 47.7051 33.7901 46.9615 34.3935H28.3511V33.3792L27.8726 33.0013L27.9014 28.4037V14.5296C27.9001 14.4551 27.87 14.384 27.8173 14.3313C27.7646 14.2787 27.6936 14.2485 27.6191 14.2473H27.2268V8.21444H26.6479V2.47342C26.6466 2.33754 26.6723 2.20276 26.7234 2.07686C26.7746 1.95095 26.8501 1.83643 26.9458 1.7399C27.0414 1.64337 27.1552 1.56675 27.2806 1.51446C27.4061 1.46217 27.5406 1.43525 27.6765 1.43525V0C27.103 0 26.5529 0.227829 26.1474 0.633367C25.7419 1.03891 25.514 1.58893 25.514 2.16245V8.19052H25.2413V9.4057H24.9734L24.5524 3.25803C24.5331 2.99826 24.4164 2.75536 24.2257 2.57794C24.035 2.40053 23.7843 2.30168 23.5238 2.30119H22.8636C21.7558 2.30235 20.6919 2.73476 19.8974 3.50681L19.553 3.82735L18.8927 3.74123L18.1799 4.48756L18.2277 5.15256L10.1616 12.9986V12.0801C10.1186 11.99 10.0507 11.9142 9.96585 11.8617C9.88105 11.8091 9.78295 11.7819 9.68318 11.7834V12.1614H7.40591C7.01053 12.1487 6.63041 12.0058 6.32469 11.7547V13.1087H6.1094L5.99936 12.9173L2.43036 14.3765L4.21486 15.7304L2.64087 20.2897C2.50177 20.688 2.43061 21.1069 2.43036 21.5288V26.7292H1.7558V26.3656C1.75712 26.2784 1.72437 26.1941 1.66451 26.1307C1.60465 26.0673 1.5224 26.0297 1.43525 26.026H1.05252C0.9455 26.0272 0.84329 26.0706 0.768059 26.1467C0.692828 26.2229 0.650641 26.3256 0.650649 26.4326V30.1403C0.243993 30.1403 0.172231 30.681 0.172231 30.681V40.0005H3.51787e-10V43.2873C-3.3717e-06 43.3906 0.0242353 43.4925 0.0707669 43.5847C0.117298 43.6769 0.184824 43.7569 0.267914 43.8183L0.918563 44.2967V46.2104C0.918563 46.3576 0.977032 46.4988 1.08111 46.6028C1.18518 46.7069 1.32634 46.7654 1.47353 46.7654H2.32511L3.51159 46.287L4.0522 45.2584V43.2968H4.30576L4.87987 43.0624C5.0848 44.8172 5.94933 46.4285 7.29821 47.5695C8.64708 48.7106 10.3794 49.296 12.1439 49.2072C13.9084 49.1183 15.5731 48.3619 16.8006 47.0911C18.028 45.8204 18.7263 44.1305 18.754 42.3639C18.7575 41.9553 18.7255 41.5471 18.6583 41.144H19.8735L20.4667 41.9525H21.7393V41.6224H22.4952V41.0531H23.7917V41.4071H24.8203V41.144H25.1983V43.3447C25.1977 43.5631 25.2401 43.7795 25.3233 43.9815C25.4064 44.1834 25.5286 44.367 25.6828 44.5217C25.837 44.6763 26.0203 44.799 26.222 44.8828C26.4237 44.9665 26.64 45.0096 26.8584 45.0096H27.8439V45.5502H28.9012V45.0287H38.6227V45.5693H39.6752V45.0287H41.2827C41.7243 45.0287 42.1477 44.8533 42.46 44.5411C42.7722 44.2289 42.9476 43.8054 42.9476 43.3638V39.8379H43.6222C43.5791 40.0436 43.5456 40.2541 43.5169 40.4646L44.713 40.723C44.7752 40.4216 44.8565 40.1297 44.9474 39.8379H45.8516C45.5383 40.6433 45.3761 41.4997 45.3732 42.3639C45.3827 43.3812 45.6152 44.384 46.0541 45.3017C46.493 46.2195 47.1277 47.0299 47.9136 47.6759C48.6994 48.3219 49.6173 48.7878 50.6027 49.0408C51.588 49.2938 52.6168 49.3277 53.6167 49.1403C54.6166 48.9528 55.5632 48.5484 56.39 47.9557C57.2167 47.3629 57.9035 46.5961 58.402 45.7093C58.9004 44.8225 59.1985 43.8372 59.2751 42.8228C59.3517 41.8084 59.205 40.7895 58.8454 39.8379H62.5915L62.8594 40.3498H63.888C63.5939 41.3082 63.5104 42.3189 63.6431 43.3126C63.7757 44.3064 64.1215 45.2597 64.6567 46.1074C65.1919 46.9552 65.9039 47.6773 66.744 48.2244C67.5841 48.7716 68.5324 49.1308 69.5242 49.2775C70.5159 49.4242 71.5277 49.3549 72.4902 49.0745C73.4527 48.794 74.3433 48.3089 75.101 47.6524C75.8587 46.996 76.4657 46.1835 76.8804 45.2708C77.2951 44.358 77.5077 43.3665 77.5038 42.3639C77.5038 42.2874 77.5038 42.2108 77.5038 42.1343H78.1879L78.5084 42.029V45.5119L79.1065 45.8899H79.5083V38.6466L79.7523 38.35V37.8381C79.9176 37.5989 80.0041 37.3141 79.9998 37.0233C79.9956 36.7326 79.9007 36.4505 79.7284 36.2163ZM7.65469 21.0026H6.27685C6.20359 21.0045 6.13086 20.9896 6.06426 20.9591C5.99767 20.9285 5.939 20.883 5.89277 20.8261C5.84654 20.7693 5.81399 20.7025 5.79763 20.6311C5.78127 20.5597 5.78155 20.4854 5.79843 20.4141L6.75527 16.2519C6.78343 16.1338 6.85083 16.0288 6.94643 15.9541C7.04204 15.8794 7.16018 15.8393 7.28153 15.8404H7.33894V19.3759C7.33829 19.4119 7.3449 19.4477 7.35837 19.4811C7.37185 19.5144 7.39191 19.5448 7.41736 19.5702C7.44282 19.5957 7.47314 19.6157 7.50651 19.6292C7.53989 19.6427 7.57564 19.6493 7.61163 19.6486L7.65469 21.0026ZM8.00394 19.6486C8.07544 19.6486 8.14409 19.6206 8.19509 19.5705C8.2461 19.5204 8.27538 19.4522 8.27664 19.3807V15.8404H14.3525C14.5061 15.8404 14.6533 15.9014 14.7619 16.01C14.8704 16.1185 14.9314 16.2658 14.9314 16.4193V20.572C14.9314 20.6866 14.8862 20.7966 14.8056 20.8781C14.725 20.9597 14.6155 21.0061 14.5009 21.0073H7.99915L8.00394 19.6486ZM11.8313 46.1578C11.08 46.1578 10.3456 45.935 9.72087 45.5176C9.09619 45.1002 8.60931 44.5069 8.3218 43.8128C8.03429 43.1187 7.95906 42.3549 8.10563 41.6181C8.2522 40.8812 8.61399 40.2044 9.14524 39.6731C9.67649 39.1419 10.3533 38.7801 11.0902 38.6335C11.8271 38.4869 12.5908 38.5622 13.285 38.8497C13.9791 39.1372 14.5723 39.6241 14.9897 40.2487C15.4071 40.8734 15.6299 41.6078 15.6299 42.3591C15.6287 43.3662 15.228 44.3317 14.5159 45.0438C13.8038 45.7559 12.8384 46.1565 11.8313 46.1578ZM52.3342 46.1578C51.5829 46.1578 50.8484 45.935 50.2238 45.5176C49.5991 45.1002 49.1122 44.5069 48.8247 43.8128C48.5372 43.1187 48.4619 42.3549 48.6085 41.6181C48.7551 40.8812 49.1169 40.2044 49.6481 39.6731C50.1794 39.1419 50.8562 38.7801 51.5931 38.6335C52.33 38.4869 53.0937 38.5622 53.7878 38.8497C54.482 39.1372 55.0752 39.6241 55.4926 40.2487C55.91 40.8734 56.1328 41.6078 56.1328 42.3591C56.1328 43.3666 55.7326 44.3328 55.0202 45.0452C54.3078 45.7576 53.3416 46.1578 52.3342 46.1578ZM70.5141 46.1578C69.7628 46.1578 69.0283 45.935 68.4037 45.5176C67.779 45.1002 67.2921 44.5069 67.0046 43.8128C66.7171 43.1187 66.6418 42.3549 66.7884 41.6181C66.935 40.8812 67.2968 40.2044 67.828 39.6731C68.3593 39.1419 69.0361 38.7801 69.773 38.6335C70.5098 38.4869 71.2736 38.5622 71.9677 38.8497C72.6618 39.1372 73.2551 39.6241 73.6725 40.2487C74.0899 40.8734 74.3127 41.6078 74.3127 42.3591C74.3127 43.3666 73.9125 44.3328 73.2001 45.0452C72.4877 45.7576 71.5215 46.1578 70.5141 46.1578Z" fill="#004290"/>
</svg>
