<svg width="56" height="45" viewBox="0 0 56 45" fill="none" xmlns="http://www.w3.org/2000/svg">
<g clip-path="url(#clip0_159_859)">
<path d="M2.75708 32.089H1.54624C1.31706 32.0891 1.09442 32.1653 0.913517 32.3057C0.732612 32.4461 0.603751 32.6426 0.547296 32.8642L0.0326891 34.8776C-0.00597158 35.0296 -0.00933056 35.1885 0.0228682 35.342C0.055067 35.4955 0.121973 35.6396 0.218487 35.7635C0.315 35.8873 0.438572 35.9874 0.579782 36.0564C0.720992 36.1253 0.876111 36.1611 1.03331 36.1612H2.75708C3.03094 36.1612 3.29358 36.0526 3.48722 35.8594C3.68087 35.6662 3.78966 35.4042 3.78966 35.131V33.1175C3.78966 32.9823 3.76294 32.8485 3.71102 32.7236C3.65911 32.5987 3.58303 32.4852 3.48712 32.3897C3.39121 32.2941 3.27737 32.2184 3.1521 32.1668C3.02683 32.1152 2.8926 32.0888 2.75708 32.089ZM20.7011 36.292H20.4808C20.4638 35.8406 20.4075 35.3915 20.3126 34.9498L20.5177 34.8994C20.5906 34.8794 20.6526 34.8315 20.6904 34.7662C20.7281 34.7009 20.7386 34.6234 20.7196 34.5504L20.6826 34.4162C20.673 34.3802 20.6564 34.3463 20.6337 34.3167C20.611 34.2871 20.5827 34.2622 20.5504 34.2435C20.518 34.2248 20.4823 34.2126 20.4453 34.2077C20.4082 34.2028 20.3706 34.2052 20.3344 34.2149L20.1225 34.2719C19.9872 33.8421 19.8144 33.425 19.6063 33.0253L19.7946 32.9179C19.8601 32.88 19.9079 32.8177 19.9274 32.7448C19.947 32.6718 19.9367 32.5941 19.8989 32.5286L19.8299 32.4078C19.792 32.3425 19.7295 32.2948 19.6564 32.2753C19.5833 32.2558 19.5054 32.266 19.4398 32.3038L19.2514 32.4128C19.0076 32.0339 18.7319 31.6763 18.4274 31.3441L18.5838 31.1897C18.6372 31.1362 18.6672 31.0638 18.6672 30.9883C18.6672 30.9129 18.6372 30.8405 18.5838 30.787L18.4845 30.6897C18.4582 30.6629 18.4268 30.6416 18.3922 30.6271C18.3575 30.6126 18.3203 30.6051 18.2827 30.6051C18.2452 30.6051 18.2079 30.6126 18.1733 30.6271C18.1386 30.6416 18.1072 30.6629 18.0809 30.6897L17.9262 30.8441C17.5932 30.5402 17.2348 30.2651 16.855 30.0219L16.9643 29.834C17.0021 29.7686 17.0124 29.6908 16.9928 29.6178C16.9733 29.5449 16.9255 29.4826 16.86 29.4447L16.7389 29.3759C16.7066 29.3573 16.6709 29.3452 16.6338 29.3403C16.5968 29.3355 16.5591 29.3379 16.5231 29.3476C16.487 29.3573 16.4532 29.3739 16.4235 29.3966C16.3939 29.4193 16.3691 29.4477 16.3504 29.48L16.2411 29.6679C15.8401 29.4609 15.4221 29.2886 14.9916 29.1528L15.0488 28.9414C15.0584 28.9053 15.0609 28.8678 15.0559 28.8308C15.051 28.7938 15.0388 28.7582 15.0201 28.7259C15.0014 28.6937 14.9764 28.6654 14.9467 28.6428C14.917 28.6202 14.8831 28.6036 14.847 28.5941L14.7124 28.5571C14.6393 28.5381 14.5616 28.5486 14.4962 28.5862C14.4307 28.6239 14.3827 28.6858 14.3626 28.7585L14.3071 28.9699C13.8644 28.8751 13.4143 28.8189 12.9618 28.8021V28.5823C12.9618 28.507 12.9319 28.4347 12.8786 28.3812C12.8254 28.3278 12.7531 28.2975 12.6776 28.2971H12.538C12.4622 28.2971 12.3894 28.3271 12.3358 28.3806C12.2822 28.4341 12.2521 28.5067 12.2521 28.5823V28.8021C11.7996 28.8189 11.3494 28.8751 10.9067 28.9699L10.8495 28.7585C10.8298 28.6859 10.7822 28.6241 10.717 28.5864C10.6518 28.5487 10.5743 28.5382 10.5014 28.5571L10.3669 28.5941C10.3307 28.6036 10.2969 28.6202 10.2671 28.6428C10.2374 28.6654 10.2125 28.6937 10.1938 28.7259C10.175 28.7582 10.1628 28.7938 10.1579 28.8308C10.153 28.8678 10.1554 28.9053 10.1651 28.9414L10.2206 29.1528C9.79073 29.2889 9.37328 29.4612 8.97273 29.6679L8.86341 29.48C8.84477 29.4477 8.81993 29.4193 8.79031 29.3966C8.76069 29.3739 8.72687 29.3573 8.69079 29.3476C8.65471 29.3379 8.61707 29.3355 8.58004 29.3403C8.543 29.3452 8.50728 29.3573 8.47494 29.3759L8.35385 29.4447C8.28835 29.4826 8.24059 29.5449 8.22104 29.6178C8.2015 29.6908 8.21176 29.7686 8.24959 29.834L8.3589 30.0219C7.97908 30.2651 7.6207 30.5402 7.28764 30.8441L7.13292 30.6897C7.10662 30.6629 7.07522 30.6416 7.04056 30.6271C7.00591 30.6126 6.9687 30.6051 6.93111 30.6051C6.89353 30.6051 6.85632 30.6126 6.82166 30.6271C6.78701 30.6416 6.75561 30.6629 6.72931 30.6897L6.63009 30.787C6.57668 30.8405 6.5467 30.9129 6.5467 30.9883C6.5467 31.0638 6.57668 31.1362 6.63009 31.1897L6.78649 31.3441C6.48191 31.6763 6.20623 32.0339 5.96244 32.4128L5.77409 32.3038C5.7085 32.266 5.63059 32.2558 5.55745 32.2753C5.48431 32.2948 5.4219 32.3425 5.38393 32.4078L5.31498 32.5286C5.27716 32.5941 5.26689 32.6718 5.28644 32.7448C5.30599 32.8177 5.35375 32.88 5.41925 32.9179L5.6076 33.0253C5.39956 33.4253 5.22626 33.8424 5.08963 34.2719L4.87941 34.2149C4.8433 34.2052 4.80565 34.2028 4.7686 34.2077C4.73154 34.2126 4.69583 34.2248 4.66349 34.2435C4.63116 34.2622 4.60284 34.2871 4.58015 34.3167C4.55747 34.3463 4.54087 34.3802 4.5313 34.4162L4.4943 34.5504C4.48507 34.5875 4.48334 34.626 4.4892 34.6637C4.49507 34.7014 4.50841 34.7375 4.52846 34.77C4.5485 34.8025 4.57485 34.8307 4.60594 34.8529C4.63704 34.8751 4.67227 34.891 4.70956 34.8994L4.92146 34.9548C4.82652 35.3965 4.77025 35.8456 4.75328 36.2971H4.52457C4.44961 36.2971 4.37765 36.3264 4.32418 36.3788C4.2707 36.4312 4.24 36.5025 4.23868 36.5773V36.7165C4.23868 36.7922 4.2688 36.8647 4.32241 36.9182C4.37603 36.9717 4.44875 37.0018 4.52457 37.0018H4.74487C4.76175 37.4532 4.81802 37.9023 4.91305 38.3441L4.70115 38.4011C4.62843 38.4208 4.56643 38.4683 4.52864 38.5333C4.49084 38.5984 4.48032 38.6757 4.49934 38.7484L4.53634 38.8826C4.54571 38.9188 4.56219 38.9528 4.58483 38.9825C4.60746 39.0123 4.63579 39.0372 4.66818 39.056C4.70057 39.0747 4.73637 39.0868 4.7735 39.0916C4.81063 39.0964 4.84835 39.0938 4.88446 39.084L5.09467 39.0286C5.23349 39.4562 5.40904 39.8711 5.61937 40.2686L5.43102 40.3776C5.39864 40.3962 5.37026 40.421 5.3475 40.4505C5.32473 40.4801 5.30803 40.5138 5.29835 40.5498C5.28866 40.5858 5.28619 40.6234 5.29106 40.6603C5.29593 40.6973 5.30806 40.7329 5.32675 40.7652L5.3957 40.886C5.43368 40.9513 5.49608 40.999 5.56922 41.0185C5.64237 41.038 5.72028 41.0278 5.78586 40.99L5.97421 40.881C6.21716 41.2605 6.49289 41.6181 6.79826 41.9498L6.64186 42.1041C6.58846 42.1576 6.55847 42.23 6.55847 42.3055C6.55847 42.3809 6.58846 42.4533 6.64186 42.5068L6.74108 42.6058C6.79467 42.6591 6.86723 42.689 6.94289 42.689C7.01854 42.689 7.09111 42.6591 7.14469 42.6058L7.29941 42.4498C7.63247 42.7536 7.99085 43.0287 8.37067 43.2719L8.26136 43.4565C8.22353 43.5219 8.21327 43.5996 8.23282 43.6726C8.25236 43.7456 8.30013 43.8078 8.36562 43.8457L8.48671 43.9162C8.51916 43.9348 8.55496 43.9468 8.59207 43.9515C8.62917 43.9563 8.66685 43.9537 8.70295 43.9438C8.73904 43.934 8.77283 43.9172 8.80239 43.8943C8.83195 43.8714 8.85668 43.8429 8.87519 43.8105L8.9845 43.6226C9.38501 43.8298 9.80246 44.0027 10.2323 44.1394L10.1768 44.3491C10.1672 44.3851 10.1648 44.4227 10.1697 44.4596C10.1746 44.4966 10.1868 44.5322 10.2055 44.5645C10.2243 44.5968 10.2492 44.625 10.2789 44.6477C10.3086 44.6703 10.3425 44.6869 10.3786 44.6964L10.5132 44.7333C10.5493 44.7429 10.587 44.7454 10.624 44.7405C10.6611 44.7355 10.6968 44.7234 10.7291 44.7047C10.7614 44.686 10.7898 44.6611 10.8124 44.6315C10.8351 44.6018 10.8517 44.568 10.8613 44.532L10.9185 44.3222C11.3615 44.4154 11.8115 44.4715 12.2639 44.49V44.7081C12.2639 44.7838 12.294 44.8563 12.3476 44.9098C12.4012 44.9633 12.4739 44.9934 12.5497 44.9934H12.6893C12.7649 44.9929 12.8372 44.9627 12.8904 44.9092C12.9437 44.8558 12.9735 44.7835 12.9735 44.7081V44.49C13.4259 44.4715 13.8759 44.4154 14.3189 44.3222L14.3744 44.532C14.3941 44.6049 14.442 44.6671 14.5076 44.7048C14.5732 44.7425 14.6511 44.7528 14.7242 44.7333L14.8588 44.6964C14.8949 44.6869 14.9288 44.6703 14.9585 44.6477C14.9882 44.625 15.0131 44.5968 15.0319 44.5645C15.0506 44.5322 15.0628 44.4966 15.0677 44.4596C15.0726 44.4227 15.0702 44.3851 15.0606 44.3491L15.0034 44.1394C15.4298 44.003 15.8439 43.8306 16.2411 43.6243L16.3504 43.8122C16.3689 43.8446 16.3937 43.8731 16.4232 43.896C16.4528 43.9188 16.4866 43.9357 16.5227 43.9455C16.5588 43.9553 16.5965 43.9579 16.6336 43.9532C16.6707 43.9485 16.7065 43.9365 16.7389 43.9179L16.86 43.8474C16.9255 43.8095 16.9733 43.7473 16.9928 43.6743C17.0124 43.6013 17.0021 43.5236 16.9643 43.4581L16.855 43.2702C17.2348 43.027 17.5932 42.752 17.9262 42.4481L18.0809 42.6041C18.1345 42.6574 18.2071 42.6873 18.2827 42.6873C18.3584 42.6873 18.431 42.6574 18.4845 42.6041L18.5838 42.5051C18.6372 42.4517 18.6672 42.3793 18.6672 42.3038C18.6672 42.2283 18.6372 42.1559 18.5838 42.1024L18.4274 41.9481C18.7327 41.6165 19.0085 41.2588 19.2514 40.8793L19.4398 40.9883C19.5054 41.0261 19.5833 41.0363 19.6564 41.0168C19.7295 40.9973 19.792 40.9497 19.8299 40.8843L19.8989 40.7635C19.9176 40.7312 19.9297 40.6956 19.9346 40.6587C19.9394 40.6217 19.937 40.5842 19.9273 40.5482C19.9176 40.5122 19.9009 40.4784 19.8781 40.4489C19.8554 40.4193 19.827 40.3945 19.7946 40.3759L19.6063 40.2669C19.8147 39.8678 19.9875 39.4512 20.1225 39.0219L20.3344 39.0773C20.3706 39.0871 20.4083 39.0897 20.4454 39.0849C20.4825 39.0801 20.5183 39.068 20.5507 39.0493C20.5831 39.0305 20.6114 39.0056 20.6341 38.9758C20.6567 38.946 20.6732 38.9121 20.6826 38.8759L20.7196 38.7417C20.7386 38.669 20.7281 38.5917 20.6903 38.5266C20.6525 38.4616 20.5905 38.4141 20.5177 38.3944L20.3059 38.3373C20.4009 37.8956 20.4572 37.4465 20.474 36.9951H20.6943C20.7702 36.9951 20.8429 36.965 20.8965 36.9115C20.9501 36.858 20.9802 36.7855 20.9802 36.7098V36.5773C20.9802 36.5028 20.951 36.4312 20.8989 36.3779C20.8467 36.3246 20.7757 36.2938 20.7011 36.292ZM12.6137 41.0588C11.7385 41.0588 10.883 40.7999 10.1553 40.3147C9.42764 39.8296 8.86052 39.1401 8.52569 38.3333C8.19085 37.5266 8.10332 36.6389 8.27418 35.7826C8.44505 34.9262 8.86662 34.1396 9.48558 33.5223C10.1045 32.905 10.8931 32.4847 11.7515 32.3146C12.6099 32.1444 13.4996 32.2321 14.308 32.5665C15.1165 32.9008 15.8074 33.4669 16.2934 34.1931C16.7794 34.9193 17.0386 35.7729 17.0383 36.6461C17.0378 37.8166 16.5715 38.939 15.7417 39.7665C14.912 40.594 13.7868 41.0588 12.6137 41.0588ZM17.3897 1.25177L18.836 2.10412C19.0547 2.23398 19.236 2.41815 19.3621 2.63868C19.4883 2.85922 19.555 3.10859 19.5558 3.36251V5.99338C19.2783 6.01569 19.0193 6.14122 18.8303 6.3451C18.6412 6.54897 18.5358 6.81629 18.535 7.09405V13.5152C18.5354 13.7931 18.6406 14.0606 18.8298 14.2646C19.019 14.4685 19.2782 14.5939 19.5558 14.6159V23.631C19.5558 23.809 19.6267 23.9797 19.7528 24.1055C19.879 24.2314 20.0501 24.3021 20.2285 24.3021C20.4069 24.3021 20.578 24.2314 20.7042 24.1055C20.8303 23.9797 20.9012 23.809 20.9012 23.631V14.5974C21.1578 14.5521 21.3902 14.4182 21.5578 14.2191C21.7253 14.02 21.8174 13.7685 21.8177 13.5085V7.09405C21.817 6.83437 21.7248 6.58321 21.5572 6.38447C21.3897 6.18573 21.1575 6.05205 20.9012 6.0068V3.3558C20.8998 2.8684 20.7718 2.38969 20.5299 1.96627C20.2879 1.54286 19.9402 1.18918 19.5205 0.93969L18.0776 0.0940523C18.0014 0.0489931 17.917 0.0193476 17.8294 0.0068087C17.7417 -0.00573025 17.6524 -0.000917159 17.5666 0.0209732C17.4808 0.0428635 17.4001 0.0814023 17.3292 0.134389C17.2584 0.187376 17.1986 0.253774 17.1535 0.329791C17.1083 0.405807 17.0786 0.489955 17.066 0.577429C17.0535 0.664903 17.0583 0.75399 17.0802 0.839604C17.1022 0.925217 17.1408 1.00568 17.1939 1.0764C17.247 1.14712 17.3136 1.20671 17.3897 1.25177ZM38.4315 12.8592C37.8614 12.8592 37.3804 13.2266 37.3097 13.7165L36.9734 16.0185V16.3944L38.9124 16.0588V13.2736C38.903 13.1553 38.8472 13.0455 38.7572 12.9679C38.6671 12.8904 38.5501 12.8513 38.4315 12.8592ZM17.3645 20.9011C15.486 20.9447 13.3099 21.485 10.7099 22.5521C10.6801 22.5651 10.6547 22.5864 10.6368 22.6135C10.6189 22.6406 10.6093 22.6723 10.609 22.7048V23.2602C10.609 23.3047 10.6268 23.3473 10.6583 23.3788C10.6898 23.4103 10.7326 23.4279 10.7772 23.4279H17.3679C17.4125 23.4279 17.4553 23.4103 17.4868 23.3788C17.5183 23.3473 17.5361 23.3047 17.5361 23.2602V21.0655C17.5356 21.0435 17.5308 21.0218 17.522 21.0016C17.5131 20.9814 17.5004 20.9631 17.4844 20.9479C17.4685 20.9326 17.4497 20.9206 17.4291 20.9126C17.4086 20.9046 17.3866 20.9007 17.3645 20.9011ZM12.6137 35.0236C12.292 35.0236 11.9776 35.1187 11.7102 35.297C11.4427 35.4753 11.2343 35.7287 11.1112 36.0252C10.9881 36.3216 10.9559 36.6479 11.0187 36.9626C11.0814 37.2773 11.2363 37.5664 11.4637 37.7933C11.6912 38.0202 11.9809 38.1748 12.2964 38.2374C12.6119 38.3 12.9388 38.2678 13.236 38.145C13.5331 38.0222 13.7871 37.8143 13.9658 37.5475C14.1445 37.2807 14.2399 36.967 14.2399 36.6461C14.2399 36.2158 14.0685 35.8031 13.7636 35.4988C13.4586 35.1945 13.045 35.0236 12.6137 35.0236ZM41.2837 37.1545C40.5921 36.8012 39.8368 36.589 39.0621 36.5303C39.5649 37.1224 40.1806 37.6088 40.8735 37.9614C41.5664 38.3139 42.3226 38.5256 43.0982 38.584C42.5942 37.9917 41.9767 37.5056 41.282 37.1545H41.2837ZM43.5136 30.9833C43.1577 30.9833 42.8098 31.0886 42.5139 31.2859C42.218 31.4831 41.9873 31.7635 41.8512 32.0916C41.715 32.4196 41.6793 32.7806 41.7488 33.1289C41.8182 33.4771 41.9896 33.797 42.2412 34.0481C42.4929 34.2992 42.8135 34.4701 43.1626 34.5394C43.5116 34.6087 43.8734 34.5731 44.2022 34.4373C44.531 34.3014 44.8121 34.0713 45.0098 33.776C45.2075 33.4808 45.3131 33.1337 45.3131 32.7786C45.3131 32.5427 45.2665 32.3091 45.1759 32.0912C45.0854 31.8733 44.9527 31.6753 44.7854 31.5086C44.6182 31.3418 44.4196 31.2096 44.2011 31.1195C43.9826 31.0294 43.7484 30.9831 43.5119 30.9833H43.5136ZM46.1909 27.5639C45.5 27.2104 44.7453 26.9982 43.971 26.9397C44.4727 27.5309 45.087 28.0168 45.7785 28.369C46.4699 28.7213 47.2246 28.933 47.9988 28.9917C47.4969 28.4003 46.8817 27.9148 46.1892 27.5639H46.1909ZM55.3462 32.2618H55.0233C54.9952 31.6041 54.9097 30.9501 54.7677 30.3071L55.0771 30.2232C55.1827 30.1949 55.2728 30.1261 55.3279 30.0319C55.383 29.9377 55.3987 29.8256 55.3714 29.7199L55.3193 29.5236C55.2905 29.4184 55.2216 29.3287 55.1273 29.2735C55.033 29.2183 54.9209 29.2021 54.8148 29.2283L54.507 29.3105C54.3086 28.6828 54.0553 28.0736 53.7503 27.49L54.0261 27.3306C54.0736 27.3033 54.1152 27.267 54.1487 27.2236C54.1821 27.1802 54.2066 27.1307 54.2208 27.0779C54.235 27.0251 54.2386 26.97 54.2315 26.9157C54.2243 26.8615 54.2065 26.8092 54.1791 26.7618L54.0782 26.5857C54.0226 26.4903 53.9315 26.4207 53.8247 26.3921C53.7179 26.3635 53.6041 26.3782 53.5081 26.433L53.2306 26.6008C52.8745 26.0468 52.4717 25.5243 52.0265 25.0387L52.2535 24.8122C52.2923 24.7735 52.3231 24.7276 52.3441 24.6771C52.3651 24.6266 52.3759 24.5724 52.3759 24.5177C52.3759 24.463 52.3651 24.4088 52.3441 24.3583C52.3231 24.3078 52.2923 24.2619 52.2535 24.2232L52.1106 24.079C52.0718 24.0402 52.0258 24.0095 51.9752 23.9886C51.9246 23.9676 51.8703 23.9568 51.8154 23.9568C51.7606 23.9568 51.7063 23.9676 51.6557 23.9886C51.605 24.0095 51.559 24.0402 51.5203 24.079L51.2933 24.292C50.806 23.8478 50.2817 23.4459 49.7259 23.0907L49.8857 22.8155C49.9133 22.7682 49.9313 22.7159 49.9386 22.6616C49.9458 22.6074 49.9423 22.5522 49.928 22.4993C49.9138 22.4464 49.8892 22.3969 49.8557 22.3535C49.8221 22.3102 49.7803 22.2739 49.7326 22.2467L49.5561 22.1444C49.5087 22.1171 49.4564 22.0993 49.4022 22.0922C49.348 22.0851 49.2929 22.0887 49.2401 22.1029C49.1872 22.1171 49.1378 22.1416 49.0944 22.1749C49.0511 22.2082 49.0148 22.2497 48.9876 22.2971L48.8279 22.5722C48.2415 22.2696 47.6306 22.017 47.0015 21.8172L47.0839 21.5102C47.1107 21.4045 47.0949 21.2926 47.0398 21.1985C46.9848 21.1044 46.895 21.0356 46.7896 21.0068L46.5929 20.9548C46.487 20.9281 46.3748 20.9439 46.2805 20.9988C46.1861 21.0537 46.1172 21.1433 46.0883 21.2484L46.0059 21.5571C45.3614 21.4165 44.7059 21.3312 44.0467 21.3021V20.9732C44.0467 20.8629 44.0028 20.757 43.9246 20.679C43.8464 20.601 43.7403 20.5571 43.6297 20.5571H43.4245C43.3139 20.5571 43.2078 20.601 43.1296 20.679C43.0514 20.757 43.0074 20.8629 43.0074 20.9732V21.2937C42.3437 21.3226 41.6837 21.4085 41.0348 21.5504L40.9524 21.2417C40.9235 21.1366 40.8546 21.047 40.7602 20.9921C40.6659 20.9372 40.5537 20.9214 40.4478 20.9481L40.2494 21.0001C40.1443 21.0292 40.0547 21.0981 39.9998 21.1921C39.9448 21.2861 39.9288 21.3978 39.9551 21.5034L40.0257 21.8122C39.3971 22.0116 38.7867 22.2642 38.2011 22.5672L38.0329 22.292C37.9773 22.1966 37.8862 22.127 37.7794 22.0984C37.6726 22.0698 37.5588 22.0845 37.4628 22.1394L37.2862 22.2417C37.2387 22.269 37.197 22.3054 37.1636 22.3487C37.1302 22.3921 37.1057 22.4416 37.0915 22.4944C37.0773 22.5473 37.0736 22.6024 37.0808 22.6566C37.0879 22.7108 37.1057 22.7631 37.1332 22.8105L37.3013 23.0857C36.7461 23.4409 36.2223 23.8428 35.7357 24.287L35.5069 24.0605C35.4683 24.0218 35.4225 23.9912 35.372 23.9702C35.3215 23.9493 35.2673 23.9385 35.2126 23.9385C35.158 23.9385 35.1038 23.9493 35.0533 23.9702C35.0028 23.9912 34.9569 24.0218 34.9183 24.0605L34.7737 24.2048C34.7349 24.2434 34.7041 24.2893 34.6831 24.3399C34.6621 24.3904 34.6513 24.4446 34.6513 24.4993C34.6513 24.554 34.6621 24.6081 34.6831 24.6586C34.7041 24.7092 34.7349 24.7551 34.7737 24.7937L35.0007 25.0202C34.5556 25.5058 34.1527 26.0284 33.7966 26.5823L33.5191 26.4145C33.4718 26.3872 33.4195 26.3695 33.3653 26.3624C33.3111 26.3552 33.256 26.3589 33.2031 26.3731C33.1503 26.3873 33.1008 26.4117 33.0575 26.445C33.0142 26.4783 32.9779 26.5199 32.9507 26.5672L32.8481 26.7434C32.8207 26.7907 32.8029 26.843 32.7958 26.8973C32.7886 26.9515 32.7922 27.0066 32.8065 27.0594C32.8207 27.1123 32.8452 27.1618 32.8786 27.2051C32.912 27.2485 32.9537 27.2849 33.0012 27.3122L33.277 27.4716C32.9733 28.0558 32.7201 28.6649 32.5202 29.292L32.2124 29.2098C32.1064 29.1836 31.9942 29.1998 31.8999 29.255C31.8057 29.3102 31.7368 29.4 31.7079 29.5051L31.6558 29.7014C31.629 29.8071 31.6449 29.919 31.6999 30.0131C31.7549 30.1072 31.8448 30.176 31.9501 30.2048L32.2595 30.2887C32.1175 30.9316 32.032 31.5856 32.0039 32.2434H31.681C31.5704 32.2434 31.4643 32.2872 31.3861 32.3653C31.3079 32.4433 31.264 32.5491 31.264 32.6595V32.886C31.264 32.9964 31.3079 33.1022 31.3861 33.1802C31.4643 33.2583 31.5704 33.3021 31.681 33.3021H32.0039C32.0322 33.9598 32.1178 34.6139 32.2595 35.2568L31.9501 35.339C31.845 35.3681 31.7554 35.437 31.7005 35.5311C31.6455 35.6251 31.6295 35.7368 31.6558 35.8424L31.7079 36.0387C31.7367 36.1438 31.8057 36.2334 31.9001 36.2883C31.9944 36.3432 32.1066 36.359 32.2124 36.3323L32.5202 36.2501C32.7204 36.8777 32.9736 37.4873 33.277 38.0722L33.0012 38.24C32.9535 38.2672 32.9117 38.3034 32.8781 38.3468C32.8446 38.3901 32.82 38.4397 32.8058 38.4926C32.7915 38.5455 32.788 38.6007 32.7952 38.6549C32.8025 38.7092 32.8205 38.7615 32.8481 38.8088L32.9507 38.985C32.9781 39.0322 33.0145 39.0736 33.0578 39.1067C33.1012 39.1399 33.1507 39.1641 33.2035 39.1782C33.2563 39.1922 33.3114 39.1957 33.3655 39.1885C33.4197 39.1812 33.4719 39.1634 33.5191 39.136L33.7966 38.9682C34.1527 39.5227 34.5555 40.0458 35.0007 40.532L34.7737 40.7585C34.7349 40.7971 34.7041 40.843 34.6831 40.8936C34.6621 40.9441 34.6513 40.9982 34.6513 41.0529C34.6513 41.1076 34.6621 41.1618 34.6831 41.2123C34.7041 41.2629 34.7349 41.3088 34.7737 41.3474L34.9183 41.49C34.9569 41.5287 35.0028 41.5594 35.0533 41.5803C35.1038 41.6012 35.158 41.612 35.2126 41.612C35.2673 41.612 35.3215 41.6012 35.372 41.5803C35.4225 41.5594 35.4683 41.5287 35.5069 41.49L35.7357 41.2635C36.2223 41.7077 36.7461 42.1096 37.3013 42.4649L37.1332 42.7417C37.1057 42.7891 37.0879 42.8414 37.0808 42.8956C37.0736 42.9498 37.0773 43.0049 37.0915 43.0578C37.1057 43.1106 37.1302 43.1601 37.1636 43.2035C37.197 43.2468 37.2387 43.2832 37.2862 43.3105L37.4628 43.4112C37.5102 43.4386 37.5625 43.4565 37.6168 43.4637C37.6711 43.471 37.7262 43.4675 37.7792 43.4535C37.8321 43.4395 37.8818 43.4152 37.9253 43.382C37.9688 43.3488 38.0054 43.3074 38.0329 43.2602L38.2011 42.9833C38.786 43.2877 39.3966 43.5403 40.0257 43.7383L39.9433 44.0454C39.9166 44.151 39.9324 44.2629 39.9874 44.3571C40.0424 44.4512 40.1323 44.52 40.2376 44.5488L40.4361 44.6008C40.542 44.6279 40.6543 44.6123 40.7488 44.5574C40.8432 44.5024 40.9122 44.4125 40.9406 44.3071L41.023 43.9984C41.6675 44.1396 42.323 44.2255 42.9822 44.2551V44.5756C42.9822 44.6302 42.993 44.6843 43.0139 44.7348C43.0349 44.7853 43.0656 44.8312 43.1044 44.8698C43.1431 44.9085 43.1891 44.9391 43.2397 44.96C43.2903 44.9809 43.3445 44.9917 43.3993 44.9917H43.6044C43.6592 44.9917 43.7134 44.9809 43.764 44.96C43.8146 44.9391 43.8606 44.9085 43.8993 44.8698C43.9381 44.8312 43.9688 44.7853 43.9898 44.7348C44.0107 44.6843 44.0215 44.6302 44.0215 44.5756V44.2551C44.6807 44.2255 45.3362 44.1396 45.9807 43.9984L46.0631 44.3071C46.0915 44.4125 46.1605 44.5024 46.2549 44.5574C46.3494 44.6123 46.4617 44.6279 46.5676 44.6008L46.7644 44.5488C46.87 44.5204 46.9601 44.4516 47.0152 44.3574C47.0703 44.2632 47.0859 44.1511 47.0587 44.0454L46.9763 43.7383C47.6059 43.54 48.217 43.2874 48.8026 42.9833L48.9624 43.2602C48.9897 43.3074 49.0261 43.3487 49.0695 43.3819C49.1129 43.415 49.1624 43.4393 49.2152 43.4533C49.268 43.4674 49.3231 43.4709 49.3772 43.4636C49.4314 43.4564 49.4836 43.4386 49.5308 43.4112L49.7074 43.3105C49.7549 43.2832 49.7966 43.2468 49.83 43.2035C49.8634 43.1601 49.8879 43.1106 49.9021 43.0578C49.9163 43.0049 49.92 42.9498 49.9128 42.8956C49.9057 42.8414 49.8879 42.7891 49.8604 42.7417L49.7007 42.4649C50.2564 42.1096 50.7808 41.7077 51.268 41.2635L51.4951 41.49C51.5338 41.5287 51.5798 41.5594 51.6305 41.5804C51.6811 41.6013 51.7354 41.6121 51.7902 41.6121C51.845 41.6121 51.8993 41.6013 51.95 41.5804C52.0006 41.5594 52.0466 41.5287 52.0854 41.49L52.2283 41.3474C52.2671 41.3088 52.2979 41.2629 52.3189 41.2123C52.3399 41.1618 52.3507 41.1076 52.3507 41.0529C52.3507 40.9982 52.3399 40.9441 52.3189 40.8936C52.2979 40.843 52.2671 40.7971 52.2283 40.7585L52.0013 40.532C52.4465 40.0458 52.8493 39.5227 53.2054 38.9682L53.4829 39.136C53.5302 39.1634 53.5826 39.1813 53.6369 39.1885C53.6911 39.1958 53.7463 39.1923 53.7993 39.1783C53.8522 39.1643 53.9019 39.14 53.9454 39.1068C53.9889 39.0737 54.0255 39.0323 54.053 38.985L54.1539 38.8088C54.1815 38.7615 54.1995 38.7092 54.2068 38.6549C54.2141 38.6007 54.2105 38.5455 54.1962 38.4926C54.182 38.4397 54.1574 38.3901 54.1239 38.3468C54.0903 38.3034 54.0485 38.2672 54.0008 38.24L53.725 38.0722C54.0298 37.4879 54.283 36.8782 54.4818 36.2501L54.7896 36.3323C54.8955 36.359 55.0076 36.3432 55.1019 36.2883C55.1963 36.2334 55.2653 36.1438 55.2941 36.0387L55.3462 35.8424C55.373 35.7367 55.3572 35.6248 55.3021 35.5307C55.2471 35.4366 55.1573 35.3678 55.0519 35.339L54.7425 35.2568C54.8843 34.6139 54.9698 33.9598 54.9981 33.3021H55.321C55.4316 33.3021 55.5377 33.2583 55.6159 33.1802C55.6941 33.1022 55.7381 32.9964 55.7381 32.886V32.683C55.7395 32.5757 55.6994 32.472 55.6261 32.3935C55.5528 32.3151 55.4519 32.2679 55.3445 32.2618H55.3462ZM43.5136 39.235C42.2337 39.235 40.9826 38.8563 39.9184 38.1469C38.8542 37.4375 38.0247 36.4291 37.535 35.2494C37.0452 34.0696 36.917 32.7715 37.1667 31.519C37.4164 30.2666 38.0327 29.1162 38.9377 28.2133C39.8428 27.3103 40.9958 26.6954 42.2511 26.4463C43.5064 26.1972 44.8076 26.325 45.9901 26.8137C47.1725 27.3024 48.1832 28.1299 48.8943 29.1916C49.6054 30.2534 49.9849 31.5017 49.9849 32.7786C49.9851 33.6267 49.8178 34.4665 49.4926 35.25C49.1673 36.0335 48.6905 36.7455 48.0894 37.3451C47.4883 37.9446 46.7746 38.4202 45.9892 38.7445C45.2037 39.0687 44.362 39.2354 43.5119 39.235H43.5136ZM24.342 24.943C24.3051 24.9276 24.2655 24.9199 24.2256 24.9203C24.1857 24.9206 24.1462 24.9291 24.1097 24.9452C24.0731 24.9612 24.0402 24.9845 24.013 25.0137C23.9857 25.0428 23.9647 25.0772 23.9513 25.1147C23.9378 25.1523 23.9321 25.1921 23.9345 25.2319C23.937 25.2717 23.9475 25.3105 23.9655 25.3461C23.9835 25.3817 24.0086 25.4132 24.0392 25.4389C24.0698 25.4645 24.1053 25.4836 24.1435 25.4951C24.3605 25.571 24.565 25.6785 24.7506 25.8139C24.4319 26.0804 24.1381 26.3752 23.8728 26.6947L23.8829 26.8826C23.8921 27.0738 23.9583 27.2578 24.0729 27.4112C24.377 26.9699 24.7428 26.5744 25.1593 26.2367L25.1728 26.2232C25.3019 26.3875 25.4109 26.5666 25.4973 26.7568C25.5215 26.8071 25.5594 26.8496 25.6067 26.8793C25.654 26.909 25.7088 26.9247 25.7647 26.9246C25.8071 26.9249 25.8491 26.9157 25.8875 26.8977C25.9585 26.8649 26.0136 26.8053 26.0407 26.7321C26.0678 26.6588 26.0647 26.5778 26.0321 26.5068C25.8728 26.1439 25.6402 25.8178 25.3488 25.5487C25.0574 25.2796 24.7135 25.0734 24.3386 24.943H24.342ZM39.755 28.2988C39.1624 28.7992 38.6754 29.4122 38.3223 30.102C37.9692 30.7919 37.7571 31.5448 37.6982 32.3172C38.29 31.8161 38.7765 31.203 39.1295 30.5132C39.4825 29.8235 39.6951 29.0709 39.755 28.2988ZM47.311 37.2149C47.9045 36.7151 48.3917 36.1018 48.7438 35.4112C49.0964 34.7213 49.3085 33.9685 49.3677 33.1964C48.7741 33.6978 48.2866 34.3121 47.9335 35.0035C47.5804 35.6949 47.3687 36.4494 47.311 37.2232V37.2149ZM29.2728 19.5219C29.1216 19.5226 28.9754 19.5766 28.8603 19.6745C28.7451 19.7723 28.6684 19.9076 28.6436 20.0565C28.6189 20.2053 28.6477 20.3581 28.725 20.4878C28.8022 20.6175 28.923 20.7158 29.0659 20.7652V22.7786C29.2072 22.5102 29.3586 22.2484 29.515 21.9917V20.7602C29.6517 20.7037 29.7646 20.6017 29.8345 20.4716C29.9044 20.3414 29.927 20.1912 29.8985 20.0463C29.87 19.9014 29.7921 19.7709 29.678 19.6768C29.564 19.5828 29.4208 19.531 29.2728 19.5303V19.5219ZM32.7943 25.5739C32.8868 25.4548 32.9793 25.3357 33.0752 25.2199C33.171 25.1041 33.2686 24.9883 33.3661 24.8726C33.7616 24.4199 34.1845 23.9918 34.6324 23.5907C35.5283 22.7898 36.5223 22.1054 37.5906 21.5538C37.8563 21.4128 38.1287 21.287 38.4029 21.1645C38.5408 21.1058 38.6787 21.0437 38.8183 20.9967C38.8889 20.9699 38.9578 20.9397 39.0285 20.9145L39.2387 20.834C39.5212 20.7316 39.8071 20.6343 40.0964 20.5521L40.2057 20.5202L40.315 20.49L40.5319 20.4296C40.6782 20.3927 40.8245 20.3541 40.9725 20.3222L41.1945 20.2736L41.4165 20.2283C41.4905 20.2115 41.5645 20.1998 41.6402 20.1863C41.7159 20.1729 41.7882 20.1578 41.8638 20.1477C42.1632 20.0974 42.4642 20.0622 42.7669 20.0269C42.8426 20.0269 42.9183 20.0135 42.994 20.0068C43.0696 20.0001 43.1453 19.9917 43.221 19.9883L43.4497 19.9732H43.6852L44.632 19.938C45.8916 19.8877 47.1545 19.8206 48.4108 19.7434C49.0398 19.7031 49.6704 19.6612 50.2994 19.6142H50.3179C50.3499 19.6106 50.3794 19.5953 50.4009 19.5713C50.4224 19.5473 50.4342 19.5163 50.4342 19.4842C50.4342 19.452 50.4224 19.421 50.4009 19.397C50.3794 19.373 50.3499 19.3578 50.3179 19.3541C49.6822 19.3222 49.0448 19.2954 48.4091 19.2702C47.1489 19.2177 45.8899 19.1724 44.632 19.1343L43.6885 19.1024L43.2076 19.0873H42.9637H42.7165H42.4726C42.3902 19.0873 42.3045 19.0873 42.2271 19.0974C42.1497 19.1075 42.0589 19.0974 41.9833 19.1108L41.7377 19.1293C41.657 19.1293 41.5695 19.1444 41.4939 19.1511C41.4182 19.1578 41.3257 19.1662 41.25 19.1779L41.0062 19.2098L40.764 19.2484C40.5958 19.2719 40.4411 19.3055 40.2797 19.334L40.0392 19.3843L39.9181 19.4112L39.7987 19.4397C39.4792 19.5152 39.163 19.6075 38.8485 19.7048C38.534 19.8021 38.2263 19.9179 37.9202 20.0404L37.6932 20.1343L37.5788 20.183L37.4661 20.235L37.2425 20.3373L37.0188 20.4447C34.6436 21.6181 32.6733 23.4718 31.3598 25.7686C30.7141 26.9 30.2456 28.1233 29.9707 29.3961C29.9034 29.7115 29.8496 30.0303 29.8025 30.3491C29.7908 30.4279 29.7824 30.5085 29.7739 30.5873C29.7655 30.6662 29.7554 30.7467 29.7504 30.8273L29.7302 31.0672C29.7302 31.1461 29.7201 31.2266 29.7151 31.3055C29.7151 31.4649 29.705 31.6259 29.7 31.7853C29.7 31.8642 29.7 31.9447 29.7 32.0236V32.1427V32.2635L29.71 32.5018L29.7269 32.7383C29.7269 32.8961 29.7571 33.0555 29.7739 33.2115C29.8505 32.5913 29.9583 31.9753 30.0968 31.3659C30.2347 30.7635 30.4077 30.1696 30.6148 29.5873C31.0264 28.4402 31.5782 27.348 32.2579 26.3357C32.4271 26.0672 32.606 25.8133 32.7943 25.5739ZM27.7407 21.3692C27.741 21.2448 27.7049 21.123 27.6369 21.0187C27.5688 20.9145 27.4717 20.8323 27.3575 20.7823C27.2433 20.7323 27.1169 20.7167 26.9939 20.7373C26.871 20.7579 26.7567 20.8138 26.6651 20.8983C26.5735 20.9828 26.5086 21.092 26.4784 21.2128C26.4482 21.3335 26.4539 21.4604 26.4949 21.5779C26.5359 21.6954 26.6104 21.7984 26.7092 21.8743C26.808 21.9502 26.9269 21.9957 27.0512 22.0051L28.0165 25.2937C28.0956 25.0454 28.1847 24.8004 28.2705 24.5588L27.4834 21.8743C27.5609 21.8146 27.6238 21.7381 27.6672 21.6506C27.7106 21.5631 27.7335 21.4669 27.734 21.3692H27.7407ZM43.485 17.9682C44.2194 17.9679 44.9529 18.0207 45.6797 18.1259C45.237 17.7012 44.7208 17.3601 44.156 17.1192C43.8165 16.9769 43.5245 16.7412 43.314 16.4397C43.1035 16.1382 42.9832 15.7833 42.9671 15.4162C42.8477 12.3592 42.4003 9.35412 41.3677 4.61586H41.4771C41.734 4.61586 41.9804 4.51404 42.162 4.3328C42.3437 4.15156 42.4457 3.90574 42.4457 3.64942C42.4457 3.3931 42.3437 3.14729 42.162 2.96604C41.9804 2.7848 41.734 2.68298 41.4771 2.68298H27.8265C27.19 2.68237 26.5553 2.61489 25.9329 2.48164L24.4631 2.16452C24.3861 2.148 24.3063 2.14888 24.2297 2.1671C24.1531 2.18531 24.0815 2.2204 24.0202 2.26978C23.959 2.31917 23.9095 2.38161 23.8756 2.45252C23.8416 2.52344 23.824 2.60103 23.824 2.67962V3.95815C23.824 4.13258 23.8935 4.29988 24.0171 4.42322C24.1407 4.54657 24.3084 4.61586 24.4832 4.61586H26.1818C23.9855 8.32392 22.9142 12.3491 22.2331 17.5991C22.2068 17.802 22.1226 17.993 21.9905 18.1495C21.8584 18.306 21.684 18.4213 21.4881 18.4816V23.6377C21.4969 23.8084 21.4709 23.9791 21.4115 24.1395C21.3521 24.2998 21.2606 24.4464 21.1426 24.5704C21.0246 24.6944 20.8826 24.7931 20.7251 24.8605C20.5677 24.928 20.3982 24.9627 20.2268 24.9627C20.0555 24.9627 19.8859 24.928 19.7285 24.8605C19.571 24.7931 19.429 24.6944 19.311 24.5704C19.193 24.4464 19.1015 24.2998 19.0421 24.1395C18.9828 23.9791 18.9567 23.8084 18.9655 23.6377V18.7216L17.8875 18.8155C15.6808 19.0101 13.5215 19.5674 11.497 20.4649L7.00679 22.4565C6.26004 22.7862 5.60443 23.2914 5.09602 23.929C4.5876 24.5665 4.24151 25.3175 4.08732 26.1175L3.54413 28.9481C3.40922 29.6486 3.42475 30.3698 3.5897 31.0639C3.75464 31.758 4.06525 32.4094 4.50103 32.9749L4.58848 33.0873C4.63725 33.1511 4.6877 33.2115 4.73815 33.2719L4.76169 33.2165C4.65745 33.0621 4.59982 32.881 4.59565 32.6948C4.59148 32.5086 4.64093 32.3252 4.73815 32.1662L4.79701 32.0639C4.88255 31.9167 5.00513 31.7944 5.15262 31.7091C5.3001 31.6237 5.46738 31.5783 5.63787 31.5773H5.71859C5.78586 31.4867 5.85481 31.3961 5.92713 31.3055C5.8674 31.1328 5.85749 30.9469 5.89853 30.7689C5.93956 30.5909 6.02988 30.428 6.1592 30.2988L6.24329 30.2165C6.42504 30.0313 6.67142 29.9231 6.93111 29.9145C7.04549 29.913 7.15927 29.9312 7.26746 29.9682C7.35491 29.8977 7.44572 29.8273 7.53822 29.7602C7.53031 29.6471 7.54227 29.5335 7.57353 29.4246C7.64854 29.1764 7.8166 28.9667 8.04273 28.839L8.14532 28.7803C8.29404 28.6961 8.46202 28.6516 8.63302 28.6511C8.82788 28.6515 9.01819 28.7099 9.17958 28.8189C9.28384 28.7719 9.38979 28.7283 9.49742 28.6863C9.51923 28.5747 9.5608 28.4679 9.62019 28.3709C9.75706 28.1504 9.97393 27.9911 10.2256 27.9263L10.3383 27.8961C10.4218 27.8703 10.5083 27.8556 10.5956 27.8524C10.7353 27.8526 10.8733 27.8826 11.0004 27.9405C11.1274 27.9984 11.2406 28.0828 11.3322 28.188C11.4449 28.1712 11.5592 28.1561 11.6685 28.1444C11.7484 27.9799 11.8732 27.8412 12.0284 27.7442C12.1837 27.6472 12.3632 27.5957 12.5464 27.5957H12.686C12.8692 27.5957 13.0487 27.6472 13.2039 27.7442C13.3592 27.8412 13.4839 27.9799 13.5638 28.1444C13.6782 28.1561 13.7909 28.1712 13.9002 28.188C13.9912 28.0834 14.1035 27.9994 14.2297 27.9416C14.3558 27.8837 14.4929 27.8533 14.6317 27.8524C14.7175 27.8528 14.8028 27.8641 14.8857 27.886L14.9983 27.9162C15.25 27.9811 15.4669 28.1404 15.6038 28.3608C15.6631 28.4579 15.7047 28.5647 15.7265 28.6763C15.8325 28.7182 15.9401 28.7618 16.0444 28.8088C16.2056 28.6996 16.396 28.6411 16.5909 28.641C16.7619 28.6415 16.9299 28.686 17.0786 28.7702L17.1795 28.829C17.4063 28.9563 17.575 29.1661 17.6504 29.4145C17.6817 29.5235 17.6936 29.637 17.6857 29.7501C17.7782 29.8172 17.8674 29.8877 17.9565 29.9581C18.0646 29.921 18.1784 29.9028 18.2928 29.9045C18.5525 29.913 18.7989 30.0212 18.9807 30.2065L19.0647 30.2887C19.1941 30.4179 19.2844 30.5809 19.3254 30.7589C19.3665 30.9368 19.3565 31.1228 19.2968 31.2954C19.3675 31.386 19.4381 31.4766 19.5054 31.5672H19.5743C19.7448 31.5682 19.9121 31.6136 20.0596 31.699C20.207 31.7843 20.3296 31.9066 20.4152 32.0538L20.474 32.1561C20.6067 32.3787 20.6471 32.6442 20.5867 32.8961C20.5602 33.0068 20.514 33.1119 20.4505 33.2065C20.4959 33.3122 20.5396 33.4179 20.5817 33.5253C20.7609 33.5605 20.9268 33.6449 21.0605 33.7691C21.1942 33.8934 21.2905 34.0524 21.3384 34.2283L21.3737 34.3625C21.4358 34.592 21.4113 34.8362 21.3048 35.0488H28.3176C28.2426 34.4302 28.205 33.8077 28.2049 33.1847C28.206 31.1849 28.602 29.2049 29.3702 27.3578C30.1384 25.5108 31.2638 23.8328 32.6822 22.4198C34.1005 21.0067 35.784 19.8863 37.6364 19.1225C39.4888 18.3587 41.4739 17.9664 43.4783 17.9682H43.485ZM7.79047 25.5185L7.365 27.4716C7.32529 27.6551 7.22359 27.8194 7.07694 27.937C6.9303 28.0546 6.7476 28.1183 6.55945 28.1175H5.57228C5.44067 28.1175 5.31101 28.0858 5.19424 28.0253C5.07746 27.9647 4.97699 27.877 4.90131 27.7696C4.82563 27.6622 4.77695 27.5382 4.75938 27.408C4.74181 27.2779 4.75587 27.1455 4.80037 27.0219L5.51006 25.0689C5.56736 24.9109 5.672 24.7742 5.80979 24.6776C5.94759 24.5809 6.11185 24.5289 6.28029 24.5286H6.98325C7.10568 24.5286 7.22658 24.5559 7.33703 24.6086C7.44748 24.6613 7.54468 24.7381 7.62148 24.8332C7.69828 24.9283 7.75273 25.0394 7.78081 25.1583C7.80889 25.2772 7.80989 25.4009 7.78375 25.5202L7.79047 25.5185ZM17.9481 23.2585C17.9481 23.3344 17.9331 23.4096 17.9039 23.4797C17.8747 23.5499 17.8319 23.6136 17.778 23.6672C17.7241 23.7208 17.6602 23.7633 17.5898 23.7922C17.5194 23.8211 17.444 23.8359 17.3679 23.8357H10.7638C10.6876 23.8359 10.6122 23.8211 10.5419 23.7922C10.4715 23.7633 10.4075 23.7208 10.3536 23.6672C10.2997 23.6136 10.2569 23.5499 10.2278 23.4797C10.1986 23.4096 10.1836 23.3344 10.1836 23.2585V22.7031C10.1833 22.5885 10.2172 22.4764 10.281 22.3811C10.3448 22.2857 10.4355 22.2115 10.5418 22.1679C12.9063 21.1964 15.1985 20.5353 17.3443 20.49C17.4214 20.4885 17.4981 20.5023 17.5697 20.5307C17.6414 20.5591 17.7066 20.6015 17.7616 20.6555C17.8166 20.7094 17.8603 20.7737 17.89 20.8447C17.9197 20.9157 17.9349 20.9919 17.9346 21.0689L17.9481 23.2585ZM36.4941 6.37593C36.4941 6.10894 36.6004 5.85287 36.7896 5.66408C36.9789 5.47528 37.2355 5.36922 37.5031 5.36922H39.459C39.7448 5.37406 40.0172 5.49074 40.2176 5.69412C40.418 5.8975 40.5303 6.17128 40.5302 6.45647V14.886C40.5299 15.2753 40.3916 15.652 40.1399 15.9495C39.8882 16.247 39.5392 16.4462 39.1546 16.5118L36.4941 16.9682V6.37593ZM27.3523 32.8139C27.3518 32.9692 27.2899 33.118 27.18 33.228C27.0701 33.338 26.921 33.4002 26.7653 33.4011H24.342C24.1863 33.4002 24.0373 33.338 23.9274 33.228C23.8174 33.118 23.7555 32.9692 23.7551 32.8139C23.7551 32.6584 23.8168 32.5093 23.9269 32.3992C24.0369 32.2891 24.1862 32.2271 24.342 32.2266H26.7653C26.9212 32.2271 27.0704 32.2891 27.1805 32.3992C27.2905 32.5093 27.3523 32.6584 27.3523 32.8139ZM27.3523 30.3977C27.3518 30.5529 27.2898 30.7016 27.1799 30.8113C27.0699 30.921 26.9209 30.9829 26.7653 30.9833H24.342C24.1865 30.9829 24.0374 30.921 23.9275 30.8113C23.8175 30.7016 23.7555 30.5529 23.7551 30.3977C23.7551 30.2423 23.8168 30.0932 23.9269 29.9831C24.0369 29.873 24.1862 29.8109 24.342 29.8105H26.7653C26.9212 29.8109 27.0704 29.873 27.1805 29.9831C27.2905 30.0932 27.3523 30.2423 27.3523 30.3977ZM26.6039 28.2904H24.8566C24.4819 28.2905 24.1214 28.1471 23.8495 27.8899C23.5776 27.6326 23.415 27.2811 23.3952 26.9078C22.9411 18.2585 23.713 10.9347 26.7586 6.0605C26.8902 5.84937 27.0735 5.67514 27.2912 5.5542C27.5089 5.43327 27.7539 5.36961 28.0031 5.36922H34.5534C34.6535 5.36878 34.7527 5.38807 34.8453 5.42598C34.9379 5.4639 35.0221 5.51969 35.0931 5.59016C35.164 5.66062 35.2203 5.74438 35.2587 5.83661C35.2971 5.92884 35.3169 6.02773 35.3169 6.12761V17.0504C35.3168 17.092 35.3057 17.1328 35.2847 17.1688C35.2638 17.2047 35.2337 17.2345 35.1975 17.2551C31.2354 19.5353 28.9112 22.8625 28.0418 27.1175C27.9752 27.4489 27.7955 27.7469 27.5333 27.9608C27.2711 28.1746 26.9426 28.2911 26.6039 28.2904ZM30.6182 17.9414L25.9716 13.8038C25.9258 13.7626 25.8723 13.7308 25.8142 13.7103C25.7561 13.6898 25.6945 13.681 25.633 13.6843C25.5715 13.6877 25.5112 13.7031 25.4557 13.7298C25.4001 13.7564 25.3504 13.7938 25.3094 13.8397C25.2684 13.8856 25.2369 13.9391 25.2167 13.9972C25.1965 14.0553 25.188 14.1168 25.1917 14.1782C25.1954 14.2395 25.2113 14.2996 25.2383 14.3548C25.2654 14.4101 25.3031 14.4594 25.3493 14.5001L27.4532 16.3726L26.4441 17.5051L26.2423 17.3256C26.0803 17.1816 25.8677 17.1076 25.6511 17.1199C25.4345 17.1322 25.2316 17.2297 25.087 17.391L23.8829 18.7333C23.7977 20.0756 23.759 21.5012 23.7668 23.0102L27.1521 19.2249C27.2965 19.0633 27.3706 18.8512 27.3583 18.635C27.346 18.4189 27.2483 18.2165 27.0866 18.0722L26.8831 17.891L27.8921 16.7585L29.9959 18.631C30.0893 18.7058 30.2079 18.7421 30.3272 18.7323C30.4466 18.7225 30.5577 18.6674 30.6375 18.5783C30.7173 18.4892 30.7598 18.3729 30.7562 18.2535C30.7526 18.134 30.7032 18.0205 30.6182 17.9363V17.9414Z" fill="#004290"/>
</g>
<defs>
<clipPath id="clip0_159_859">
<rect width="55.7609" height="45" fill="white"/>
</clipPath>
</defs>
</svg>
