<svg width="80" height="35" viewBox="0 0 80 35" fill="none" xmlns="http://www.w3.org/2000/svg">
<g clip-path="url(#clip0_159_871)">
<path fill-rule="evenodd" clip-rule="evenodd" d="M16.984 4.80192L6.74624 6.48651C5.30739 6.72453 4.19415 7.66144 3.71582 9.04017L1.05351 16.7074C0.931592 17.05 0.869971 17.4112 0.871393 17.7749L0.84406 24.975H0.338991C0.249294 24.9749 0.163203 25.0104 0.0996388 25.0738C0.0360743 25.1371 0.000236113 25.2232 0 25.313L0 27.4073C0.00133351 27.9435 0.214612 28.4573 0.593198 28.8364C0.971785 29.2155 1.48488 29.4291 2.02028 29.4305H20.2141V9.05981C20.2134 8.74671 20.0888 8.44666 19.8676 8.22537C19.6464 8.00409 19.3466 7.87962 19.034 7.87923H5.90575L20.1817 7.10566C20.0839 6.44754 19.7625 5.87599 19.2333 5.42673C18.5895 4.87988 17.818 4.66477 16.984 4.80192Z" fill="#004290"/>
<path fill-rule="evenodd" clip-rule="evenodd" d="M29.0048 2.75568H35.3078V1.15261H35.3844C34.6417 1.03092 34.1904 0.871451 34.1904 0.697101C34.1904 0.310319 36.3842 0 39.0901 0C41.7961 0 43.9899 0.311509 43.9899 0.697101C43.9899 0.871451 43.5404 1.03092 42.7962 1.15261H42.8713V2.75568H61.9668V1.15261H62.0429C61.2986 1.03092 60.8488 0.871451 60.8488 0.697101C60.8488 0.310319 63.0426 0 65.7492 0C68.4558 0 70.6501 0.311509 70.6501 0.697101C70.6501 0.871451 70.1997 1.03092 69.4558 1.15261H69.5322V2.75568H75.8345C78.1255 2.75568 79.9999 4.63276 79.9999 6.92728V14.3041C79.9999 16.5989 78.1255 18.4763 75.8345 18.4763H29.0048C26.7139 18.4763 24.8389 16.5989 24.8389 14.3041V6.92728C24.8389 4.63276 26.7139 2.75568 29.0048 2.75568Z" fill="#004290"/>
<path fill-rule="evenodd" clip-rule="evenodd" d="M20.2139 21.9734H26.092V18.3555H79.0173C79.2631 18.3561 79.4987 18.4542 79.6725 18.6282C79.8463 18.8023 79.9442 19.0382 79.9448 19.2843V22.4336C79.9443 22.6797 79.8464 22.9156 79.6725 23.0895C79.4987 23.2635 79.263 23.3613 79.0173 23.3616H20.2139V21.9734Z" fill="#004290"/>
<path fill-rule="evenodd" clip-rule="evenodd" d="M20.2144 24H71.7671V26.6087C71.7667 26.877 71.6602 27.1343 71.4709 27.3242C71.2816 27.5141 71.0249 27.6212 70.757 27.6221H40.2912V26.6349C40.2906 26.3768 40.188 26.1295 40.0057 25.947C39.8235 25.7646 39.5765 25.6619 39.3188 25.6614H28.2468C27.989 25.6618 27.7419 25.7644 27.5596 25.9469C27.3773 26.1294 27.2746 26.3768 27.2741 26.6349V27.6221H26.5889V26.5468C26.5883 26.3121 26.4949 26.0871 26.3291 25.9212C26.1633 25.7553 25.9386 25.6619 25.7042 25.6614H21.6916C21.4572 25.6618 21.2325 25.7552 21.0667 25.9211C20.9009 26.0871 20.8076 26.3121 20.8071 26.5468V27.6221H20.2129L20.2144 24Z" fill="#004290"/>
<path fill-rule="evenodd" clip-rule="evenodd" d="M28.2461 29.4315H39.3182C39.4867 29.4309 39.6481 29.3636 39.7672 29.2443C39.8864 29.1249 39.9535 28.9632 39.9539 28.7945V26.6345C39.9534 26.4658 39.8862 26.3042 39.7671 26.1849C39.648 26.0657 39.4866 25.9985 39.3182 25.998H28.2461C28.0777 25.9985 27.9163 26.0657 27.7972 26.1849C27.6781 26.3042 27.6109 26.4658 27.6104 26.6345V28.7945C27.6108 28.9632 27.6779 29.1249 27.7971 29.2443C27.9162 29.3636 28.0776 29.4309 28.2461 29.4315Z" fill="#004290"/>
<path fill-rule="evenodd" clip-rule="evenodd" d="M21.6911 29.4315H25.7037C25.8489 29.4311 25.9879 29.3732 26.0906 29.2705C26.1932 29.1677 26.2511 29.0285 26.2516 28.8831V26.5464C26.2511 26.4011 26.1932 26.2618 26.0906 26.1591C25.9879 26.0563 25.8489 25.9984 25.7037 25.998H21.6911C21.546 25.9984 21.407 26.0563 21.3044 26.1591C21.2018 26.2618 21.1439 26.4011 21.1436 26.5464V28.8831C21.1439 29.0285 21.2017 29.1678 21.3043 29.2705C21.4069 29.3733 21.546 29.4312 21.6911 29.4315Z" fill="#004290"/>
<path fill-rule="evenodd" clip-rule="evenodd" d="M9.38618 34.6272C8.35193 34.6272 7.34091 34.32 6.48098 33.7446C5.62105 33.1691 4.95084 32.3512 4.55512 31.3943C4.15939 30.4374 4.05593 29.3844 4.25781 28.3686C4.45969 27.3528 4.95785 26.4198 5.68928 25.6875C6.42071 24.9552 7.35256 24.4566 8.36697 24.2547C9.38139 24.0529 10.4328 24.1568 11.3882 24.5533C12.3437 24.9499 13.1602 25.6213 13.7346 26.4826C14.309 27.3439 14.6154 28.3565 14.6151 29.3922C14.6147 30.7808 14.0637 32.1123 13.0831 33.094C12.1025 34.0757 10.7727 34.6272 9.38618 34.6272Z" fill="#004290"/>
<path fill-rule="evenodd" clip-rule="evenodd" d="M9.38881 31.9019C8.80882 31.9019 8.24678 31.7005 7.79844 31.3321C7.3501 30.9636 7.0432 30.4509 6.93003 29.8812C6.81686 29.3116 6.90442 28.7203 7.1778 28.208C7.45118 27.6958 7.89346 27.2943 8.42928 27.072C8.9651 26.8497 9.56131 26.8203 10.1163 26.9889C10.6714 27.1575 11.1508 27.5135 11.4731 27.9965C11.7954 28.4794 11.9404 29.0592 11.8836 29.6372C11.8268 30.2153 11.5717 30.7557 11.1616 31.1664C10.9291 31.4 10.6528 31.5852 10.3485 31.7114C10.0443 31.8376 9.71812 31.9023 9.38881 31.9019ZM7.82071 30.9611C8.18345 31.3246 8.66081 31.5508 9.17145 31.6013C9.68209 31.6518 10.1944 31.5234 10.6211 31.2381C11.0479 30.9527 11.3625 30.5279 11.5116 30.0362C11.6607 29.5445 11.6349 29.0163 11.4386 28.5415C11.2423 28.0667 10.8877 27.6748 10.4352 27.4325C9.98274 27.1902 9.46035 27.1125 8.95706 27.2126C8.45378 27.3128 8.00076 27.5846 7.67518 27.9818C7.3496 28.379 7.17161 28.8769 7.17155 29.3908C7.17094 29.6824 7.22787 29.9712 7.33907 30.2407C7.45027 30.5102 7.61355 30.755 7.81953 30.9611H7.82071Z" fill="#004290"/>
<path fill-rule="evenodd" clip-rule="evenodd" d="M9.38645 30.0756C9.2513 30.0756 9.11919 30.0355 9.00682 29.9603C8.89444 29.8851 8.80686 29.7783 8.75514 29.6532C8.70342 29.5282 8.68989 29.3906 8.71626 29.2578C8.74262 29.1251 8.8077 29.0032 8.90327 28.9075C8.99883 28.8118 9.12059 28.7466 9.25314 28.7202C9.3857 28.6938 9.52309 28.7073 9.64795 28.7591C9.77282 28.8109 9.87954 28.8986 9.95462 29.0112C10.0297 29.1237 10.0698 29.256 10.0698 29.3913C10.0698 29.5728 9.99779 29.7469 9.86964 29.8752C9.74149 30.0036 9.56768 30.0756 9.38645 30.0756Z" fill="#004290"/>
<path fill-rule="evenodd" clip-rule="evenodd" d="M9.38694 28.1771C9.32818 28.1771 9.27074 28.1596 9.22188 28.1269C9.17303 28.0942 9.13495 28.0478 9.11246 27.9934C9.08997 27.939 9.08409 27.8792 9.09555 27.8215C9.10702 27.7638 9.13531 27.7108 9.17686 27.6692C9.21841 27.6276 9.27135 27.5992 9.32898 27.5877C9.38661 27.5763 9.44635 27.5822 9.50064 27.6047C9.55493 27.6272 9.60133 27.6653 9.63397 27.7143C9.66662 27.7632 9.68404 27.8207 9.68404 27.8796C9.68404 27.9585 9.65274 28.0341 9.59703 28.0899C9.54131 28.1457 9.46574 28.1771 9.38694 28.1771Z" fill="#004290"/>
<path fill-rule="evenodd" clip-rule="evenodd" d="M8.52908 28.5319C8.48746 28.5734 8.43452 28.6015 8.37694 28.6129C8.31935 28.6242 8.25969 28.6183 8.2055 28.5957C8.1513 28.5731 8.105 28.535 8.07242 28.4861C8.03985 28.4372 8.02246 28.3797 8.02246 28.321C8.02246 28.2622 8.03985 28.2047 8.07242 28.1558C8.105 28.1069 8.1513 28.0688 8.2055 28.0462C8.25969 28.0237 8.31935 28.0177 8.37694 28.029C8.43452 28.0404 8.48746 28.0686 8.52908 28.11C8.55684 28.1377 8.57886 28.1705 8.59389 28.2067C8.60892 28.2429 8.61666 28.2818 8.61666 28.321C8.61666 28.3602 8.60892 28.399 8.59389 28.4352C8.57886 28.4714 8.55684 28.5043 8.52908 28.5319Z" fill="#004290"/>
<path fill-rule="evenodd" clip-rule="evenodd" d="M8.17427 29.3911C8.17392 29.4499 8.1562 29.5072 8.12334 29.5559C8.09048 29.6046 8.04396 29.6425 7.98964 29.6647C7.93532 29.687 7.87564 29.6926 7.81813 29.6809C7.76061 29.6692 7.70784 29.6408 7.66647 29.5991C7.6251 29.5574 7.59698 29.5044 7.58566 29.4467C7.57434 29.389 7.58032 29.3293 7.60286 29.2751C7.6254 29.2208 7.66348 29.1744 7.7123 29.1418C7.76112 29.1092 7.81849 29.0918 7.87717 29.0918C7.91634 29.0918 7.95512 29.0996 7.99128 29.1146C8.02744 29.1297 8.06027 29.1518 8.08789 29.1796C8.1155 29.2074 8.13734 29.2404 8.15217 29.2767C8.167 29.313 8.17451 29.3519 8.17427 29.3911Z" fill="#004290"/>
<path fill-rule="evenodd" clip-rule="evenodd" d="M8.52938 30.2491C8.57072 30.2908 8.59882 30.3438 8.61012 30.4015C8.62142 30.4591 8.61542 30.5188 8.59288 30.5731C8.57033 30.6273 8.53225 30.6737 8.48343 30.7063C8.43462 30.7389 8.37726 30.7563 8.31858 30.7563C8.25991 30.7563 8.20255 30.7389 8.15373 30.7063C8.10492 30.6737 8.06684 30.6273 8.04429 30.5731C8.02175 30.5188 8.01575 30.4591 8.02705 30.4015C8.03835 30.3438 8.06644 30.2908 8.10779 30.2491C8.16384 30.1934 8.23961 30.1621 8.31858 30.1621C8.39756 30.1621 8.47333 30.1934 8.52938 30.2491Z" fill="#004290"/>
<path fill-rule="evenodd" clip-rule="evenodd" d="M9.38694 30.6055C9.4457 30.6055 9.50315 30.6229 9.552 30.6556C9.60086 30.6883 9.63894 30.7348 9.66143 30.7891C9.68391 30.8435 9.6898 30.9033 9.67833 30.961C9.66687 31.0188 9.63857 31.0718 9.59702 31.1134C9.55547 31.155 9.50254 31.1833 9.4449 31.1948C9.38727 31.2063 9.32754 31.2004 9.27325 31.1779C9.21896 31.1554 9.17256 31.1172 9.13991 31.0683C9.10727 31.0194 9.08984 30.9618 9.08984 30.903C9.08984 30.8241 9.12114 30.7484 9.17686 30.6926C9.23258 30.6368 9.30815 30.6055 9.38694 30.6055Z" fill="#004290"/>
<path fill-rule="evenodd" clip-rule="evenodd" d="M10.2444 30.2502C10.2861 30.2089 10.339 30.1808 10.3966 30.1696C10.4541 30.1583 10.5137 30.1644 10.5678 30.187C10.6219 30.2096 10.6682 30.2477 10.7007 30.2966C10.7332 30.3455 10.7506 30.4029 10.7506 30.4616C10.7506 30.5203 10.7332 30.5777 10.7007 30.6266C10.6682 30.6755 10.6219 30.7136 10.5678 30.7362C10.5137 30.7588 10.4541 30.7648 10.3966 30.7536C10.339 30.7424 10.2861 30.7143 10.2444 30.673C10.1886 30.6168 10.1572 30.5408 10.1572 30.4616C10.1572 30.3824 10.1886 30.3063 10.2444 30.2502Z" fill="#004290"/>
<path fill-rule="evenodd" clip-rule="evenodd" d="M10.5996 29.3913C10.5996 29.3324 10.617 29.2749 10.6497 29.226C10.6823 29.1771 10.7287 29.1389 10.783 29.1164C10.8373 29.0939 10.897 29.088 10.9547 29.0995C11.0123 29.1109 11.0652 29.1393 11.1068 29.1809C11.1483 29.2225 11.1766 29.2755 11.1881 29.3332C11.1996 29.3909 11.1937 29.4508 11.1712 29.5051C11.1487 29.5595 11.1106 29.606 11.0618 29.6387C11.0129 29.6714 10.9555 29.6888 10.8967 29.6888C10.8179 29.6888 10.7423 29.6575 10.6866 29.6017C10.6309 29.5459 10.5996 29.4702 10.5996 29.3913Z" fill="#004290"/>
<path fill-rule="evenodd" clip-rule="evenodd" d="M10.2444 28.5324C10.2031 28.4907 10.175 28.4377 10.1637 28.3801C10.1525 28.3224 10.1585 28.2627 10.1811 28.2085C10.2036 28.1543 10.2417 28.1079 10.2905 28.0754C10.3393 28.0428 10.3966 28.0254 10.4553 28.0254C10.514 28.0254 10.5713 28.0428 10.6201 28.0754C10.6689 28.1079 10.707 28.1543 10.7296 28.2085C10.7521 28.2627 10.7581 28.3224 10.7469 28.3801C10.7356 28.4377 10.7076 28.4907 10.6662 28.5324C10.6102 28.5883 10.5344 28.6197 10.4553 28.6197C10.3762 28.6197 10.3004 28.5883 10.2444 28.5324Z" fill="#004290"/>
<path fill-rule="evenodd" clip-rule="evenodd" d="M48.3676 34.6272C47.3334 34.6272 46.3224 34.32 45.4624 33.7446C44.6025 33.1691 43.9323 32.3512 43.5366 31.3943C43.1408 30.4374 43.0374 29.3844 43.2393 28.3686C43.4411 27.3528 43.9393 26.4198 44.6707 25.6875C45.4022 24.9552 46.334 24.4566 47.3484 24.2547C48.3628 24.0529 49.4142 24.1568 50.3697 24.5533C51.3251 24.9499 52.1417 25.6213 52.7161 26.4826C53.2904 27.3439 53.5969 28.3565 53.5966 29.3922C53.5966 30.0798 53.4613 30.7607 53.1985 31.3959C52.9357 32.0311 52.5505 32.6083 52.065 33.0944C51.5794 33.5806 51.0029 33.9661 50.3685 34.2291C49.7341 34.4921 49.0542 34.6274 48.3676 34.6272Z" fill="#004290"/>
<path fill-rule="evenodd" clip-rule="evenodd" d="M48.3682 31.9031C47.788 31.9032 47.2258 31.7018 46.7773 31.3332C46.3288 30.9647 46.0218 30.4519 45.9086 29.8821C45.7954 29.3123 45.8829 28.7208 46.1564 28.2084C46.4298 27.696 46.8722 27.2944 47.4082 27.0721C47.9441 26.8497 48.5405 26.8203 49.0957 26.989C49.6508 27.1576 50.1304 27.5138 50.4528 27.9968C50.7751 28.4799 50.9202 29.0599 50.8633 29.6381C50.8065 30.2163 50.5512 30.7568 50.141 31.1676C49.9084 31.401 49.632 31.5862 49.3278 31.7124C49.0236 31.8386 48.6975 31.9034 48.3682 31.9031ZM46.8001 30.9623C47.1628 31.3258 47.6402 31.552 48.1508 31.6025C48.6614 31.653 49.1738 31.5246 49.6005 31.2392C50.0272 30.9539 50.3419 30.5291 50.491 30.0374C50.64 29.5457 50.6142 29.0175 50.4179 28.5427C50.2217 28.0679 49.8671 27.676 49.4146 27.4337C48.9621 27.1913 48.4397 27.1137 47.9364 27.2138C47.4331 27.314 46.9801 27.5858 46.6545 27.983C46.329 28.3802 46.151 28.8781 46.1509 29.392C46.1505 29.6837 46.2077 29.9726 46.3191 30.2421C46.4306 30.5115 46.5941 30.7563 46.8004 30.9623H46.8001Z" fill="#004290"/>
<path fill-rule="evenodd" clip-rule="evenodd" d="M48.3679 30.0756C48.2328 30.0756 48.1006 30.0355 47.9883 29.9603C47.8759 29.8851 47.7883 29.7783 47.7366 29.6532C47.6849 29.5282 47.6713 29.3906 47.6977 29.2578C47.7241 29.1251 47.7891 29.0032 47.8847 28.9075C47.9803 28.8118 48.102 28.7466 48.2346 28.7202C48.3671 28.6938 48.5045 28.7073 48.6294 28.7591C48.7543 28.8109 48.861 28.8986 48.9361 29.0112C49.0112 29.1237 49.0512 29.256 49.0512 29.3913C49.0512 29.5728 48.9792 29.7469 48.8511 29.8752C48.7229 30.0036 48.5491 30.0756 48.3679 30.0756Z" fill="#004290"/>
<path fill-rule="evenodd" clip-rule="evenodd" d="M48.3674 28.1771C48.3087 28.1771 48.2512 28.1596 48.2024 28.1269C48.1535 28.0942 48.1154 28.0478 48.0929 27.9934C48.0704 27.939 48.0646 27.8792 48.076 27.8215C48.0875 27.7638 48.1158 27.7108 48.1573 27.6692C48.1989 27.6276 48.2518 27.5992 48.3095 27.5877C48.3671 27.5763 48.4268 27.5822 48.4811 27.6047C48.5354 27.6272 48.5818 27.6653 48.6144 27.7143C48.6471 27.7632 48.6645 27.8207 48.6645 27.8796C48.6645 27.9585 48.6332 28.0341 48.5775 28.0899C48.5218 28.1457 48.4462 28.1771 48.3674 28.1771Z" fill="#004290"/>
<path fill-rule="evenodd" clip-rule="evenodd" d="M47.5105 28.5319C47.4689 28.5734 47.416 28.6015 47.3584 28.6129C47.3008 28.6242 47.2411 28.6183 47.1869 28.5957C47.1327 28.5731 47.0864 28.535 47.0539 28.4861C47.0213 28.4372 47.0039 28.3797 47.0039 28.321C47.0039 28.2622 47.0213 28.2047 47.0539 28.1558C47.0864 28.1069 47.1327 28.0688 47.1869 28.0462C47.2411 28.0237 47.3008 28.0177 47.3584 28.029C47.416 28.0404 47.4689 28.0686 47.5105 28.11C47.5661 28.1661 47.5974 28.2419 47.5974 28.321C47.5974 28.4 47.5661 28.4758 47.5105 28.5319Z" fill="#004290"/>
<path fill-rule="evenodd" clip-rule="evenodd" d="M47.1557 29.3911C47.1554 29.4499 47.1376 29.5072 47.1048 29.5559C47.0719 29.6046 47.0254 29.6425 46.9711 29.6647C46.9168 29.687 46.8571 29.6926 46.7996 29.6809C46.7421 29.6692 46.6893 29.6408 46.6479 29.5991C46.6065 29.5574 46.5784 29.5044 46.5671 29.4467C46.5558 29.389 46.5618 29.3293 46.5843 29.2751C46.6068 29.2208 46.6449 29.1744 46.6937 29.1418C46.7426 29.1092 46.7999 29.0918 46.8586 29.0918C46.8978 29.0918 46.9366 29.0996 46.9727 29.1146C47.0089 29.1297 47.0417 29.1518 47.0693 29.1796C47.0969 29.2074 47.1188 29.2404 47.1336 29.2767C47.1484 29.313 47.156 29.3519 47.1557 29.3911Z" fill="#004290"/>
<path fill-rule="evenodd" clip-rule="evenodd" d="M47.5111 30.2495C47.5524 30.2912 47.5804 30.3443 47.5916 30.4019C47.6029 30.4595 47.5968 30.5192 47.5742 30.5734C47.5517 30.6276 47.5136 30.6739 47.4648 30.7065C47.416 30.739 47.3587 30.7564 47.3 30.7564C47.2414 30.7564 47.1841 30.739 47.1353 30.7065C47.0865 30.6739 47.0484 30.6276 47.0258 30.5734C47.0032 30.5192 46.9972 30.4595 47.0084 30.4019C47.0197 30.3443 47.0477 30.2912 47.0889 30.2495C47.145 30.1935 47.2209 30.1621 47.3 30.1621C47.3792 30.1621 47.4551 30.1935 47.5111 30.2495Z" fill="#004290"/>
<path d="M48.3692 31.2043C48.5338 31.2032 48.6663 31.0687 48.6653 30.9039C48.6642 30.7391 48.5299 30.6064 48.3654 30.6074C48.2008 30.6085 48.0682 30.743 48.0693 30.9078C48.0704 31.0726 48.2046 31.2053 48.3692 31.2043Z" fill="#004290"/>
<path fill-rule="evenodd" clip-rule="evenodd" d="M49.2257 30.2502C49.2674 30.2089 49.3203 30.1808 49.3779 30.1696C49.4354 30.1583 49.495 30.1644 49.5491 30.187C49.6033 30.2096 49.6495 30.2477 49.682 30.2966C49.7145 30.3455 49.7319 30.4029 49.7319 30.4616C49.7319 30.5203 49.7145 30.5777 49.682 30.6266C49.6495 30.6755 49.6033 30.7136 49.5491 30.7362C49.495 30.7588 49.4354 30.7648 49.3779 30.7536C49.3203 30.7424 49.2674 30.7143 49.2257 30.673C49.1978 30.6453 49.1757 30.6124 49.1606 30.5761C49.1455 30.5398 49.1377 30.5009 49.1377 30.4616C49.1377 30.4223 49.1455 30.3834 49.1606 30.3471C49.1757 30.3108 49.1978 30.2779 49.2257 30.2502Z" fill="#004290"/>
<path fill-rule="evenodd" clip-rule="evenodd" d="M49.5811 29.3913C49.5811 29.3324 49.5985 29.2749 49.6311 29.226C49.6638 29.1771 49.7102 29.1389 49.7645 29.1164C49.8187 29.0939 49.8785 29.088 49.9361 29.0995C49.9937 29.1109 50.0467 29.1393 50.0882 29.1809C50.1298 29.2225 50.1581 29.2755 50.1695 29.3332C50.181 29.3909 50.1751 29.4508 50.1526 29.5051C50.1302 29.5595 50.0921 29.606 50.0432 29.6387C49.9944 29.6714 49.9369 29.6888 49.8782 29.6888C49.7995 29.6884 49.7241 29.6569 49.6685 29.6012C49.6129 29.5455 49.5814 29.4701 49.5811 29.3913Z" fill="#004290"/>
<path fill-rule="evenodd" clip-rule="evenodd" d="M49.226 28.5326C49.1846 28.4909 49.1565 28.4379 49.1452 28.3802C49.1339 28.3226 49.1399 28.2628 49.1625 28.2086C49.185 28.1543 49.2231 28.108 49.2719 28.0754C49.3207 28.0428 49.3781 28.0254 49.4367 28.0254C49.4954 28.0254 49.5528 28.0428 49.6016 28.0754C49.6504 28.108 49.6885 28.1543 49.711 28.2086C49.7336 28.2628 49.7396 28.3226 49.7283 28.3802C49.717 28.4379 49.6889 28.4909 49.6475 28.5326C49.6199 28.5604 49.5871 28.5825 49.5509 28.5976C49.5147 28.6127 49.4759 28.6204 49.4367 28.6204C49.3976 28.6204 49.3588 28.6127 49.3226 28.5976C49.2864 28.5825 49.2536 28.5604 49.226 28.5326Z" fill="#004290"/>
<path fill-rule="evenodd" clip-rule="evenodd" d="M60.601 34.6272C59.5668 34.6272 58.5557 34.32 57.6958 33.7446C56.8359 33.1691 56.1657 32.3512 55.77 31.3943C55.3742 30.4374 55.2708 29.3844 55.4727 28.3686C55.6745 27.3528 56.1727 26.4198 56.9041 25.6875C57.6356 24.9552 58.5674 24.4566 59.5818 24.2547C60.5962 24.0529 61.6476 24.1568 62.6031 24.5533C63.5585 24.9499 64.3751 25.6213 64.9495 26.4826C65.5239 27.3439 65.8303 28.3565 65.83 29.3922C65.8296 30.7808 65.2785 32.1123 64.2979 33.094C63.3174 34.0757 61.9876 34.6272 60.601 34.6272Z" fill="#004290"/>
<path fill-rule="evenodd" clip-rule="evenodd" d="M60.6016 31.9031C60.0214 31.9032 59.4592 31.7018 59.0107 31.3332C58.5622 30.9647 58.2552 30.4519 58.142 29.8821C58.0287 29.3123 58.1163 28.7208 58.3898 28.2084C58.6632 27.696 59.1056 27.2944 59.6416 27.0721C60.1775 26.8497 60.7739 26.8203 61.3291 26.989C61.8842 27.1576 62.3638 27.5138 62.6862 27.9968C63.0085 28.4799 63.1536 29.0599 63.0967 29.6381C63.0399 30.2163 62.7846 30.7568 62.3744 31.1676C62.1418 31.4011 61.8655 31.5862 61.5612 31.7125C61.257 31.8387 60.9309 31.9035 60.6016 31.9031ZM59.0338 30.9623C59.3965 31.3252 59.8736 31.551 60.3838 31.6012C60.8941 31.6513 61.406 31.5228 61.8322 31.2374C62.2584 30.9521 62.5727 30.5275 62.7214 30.0362C62.8702 29.5448 62.8442 29.017 62.6479 28.5426C62.4516 28.0683 62.0972 27.6767 61.645 27.4347C61.1928 27.1927 60.6709 27.1152 60.168 27.2154C59.6651 27.3155 59.2125 27.5872 58.8872 27.9841C58.5619 28.381 58.3841 28.8785 58.384 29.392C58.3836 29.6837 58.4408 29.9726 58.5523 30.2421C58.6638 30.5116 58.8274 30.7564 59.0338 30.9623Z" fill="#004290"/>
<path fill-rule="evenodd" clip-rule="evenodd" d="M60.6013 30.0756C60.4661 30.0756 60.334 30.0355 60.2217 29.9603C60.1093 29.8851 60.0217 29.7783 59.97 29.6532C59.9183 29.5282 59.9047 29.3906 59.9311 29.2578C59.9575 29.1251 60.0225 29.0032 60.1181 28.9075C60.2137 28.8118 60.3354 28.7466 60.468 28.7202C60.6005 28.6938 60.7379 28.7073 60.8628 28.7591C60.9877 28.8109 61.0944 28.8986 61.1695 29.0112C61.2446 29.1237 61.2846 29.256 61.2846 29.3913C61.2846 29.5728 61.2126 29.7469 61.0845 29.8752C60.9563 30.0036 60.7825 30.0756 60.6013 30.0756Z" fill="#004290"/>
<path fill-rule="evenodd" clip-rule="evenodd" d="M60.6018 28.1771C60.543 28.1771 60.4856 28.1596 60.4367 28.1269C60.3879 28.0942 60.3498 28.0478 60.3273 27.9934C60.3048 27.939 60.2989 27.8792 60.3104 27.8215C60.3219 27.7638 60.3502 27.7108 60.3917 27.6692C60.4333 27.6276 60.4862 27.5992 60.5438 27.5877C60.6015 27.5763 60.6612 27.5822 60.7155 27.6047C60.7698 27.6272 60.8162 27.6653 60.8488 27.7143C60.8815 27.7632 60.8989 27.8207 60.8989 27.8796C60.8989 27.9585 60.8676 28.0341 60.8119 28.0899C60.7562 28.1457 60.6806 28.1771 60.6018 28.1771Z" fill="#004290"/>
<path fill-rule="evenodd" clip-rule="evenodd" d="M59.7439 28.5319C59.7023 28.5734 59.6494 28.6015 59.5918 28.6129C59.5342 28.6242 59.4745 28.6183 59.4203 28.5957C59.3661 28.5731 59.3198 28.535 59.2873 28.4861C59.2547 28.4372 59.2373 28.3797 59.2373 28.321C59.2373 28.2622 59.2547 28.2047 59.2873 28.1558C59.3198 28.1069 59.3661 28.0688 59.4203 28.0462C59.4745 28.0237 59.5342 28.0177 59.5918 28.029C59.6494 28.0404 59.7023 28.0686 59.7439 28.11C59.7717 28.1377 59.7937 28.1705 59.8087 28.2067C59.8238 28.2429 59.8315 28.2818 59.8315 28.321C59.8315 28.3602 59.8238 28.399 59.8087 28.4352C59.7937 28.4714 59.7717 28.5043 59.7439 28.5319Z" fill="#004290"/>
<path fill-rule="evenodd" clip-rule="evenodd" d="M59.3901 29.3911C59.3897 29.4499 59.372 29.5072 59.3392 29.5559C59.3063 29.6046 59.2598 29.6425 59.2055 29.6647C59.1511 29.687 59.0915 29.6926 59.0339 29.6809C58.9764 29.6692 58.9237 29.6408 58.8823 29.5991C58.8409 29.5574 58.8128 29.5044 58.8015 29.4467C58.7902 29.389 58.7961 29.3293 58.8187 29.2751C58.8412 29.2208 58.8793 29.1744 58.9281 29.1418C58.9769 29.1092 59.0343 29.0918 59.093 29.0918C59.1322 29.0918 59.1709 29.0996 59.2071 29.1146C59.2433 29.1297 59.2761 29.1518 59.3037 29.1796C59.3313 29.2074 59.3532 29.2404 59.368 29.2767C59.3828 29.313 59.3903 29.3519 59.3901 29.3911Z" fill="#004290"/>
<path fill-rule="evenodd" clip-rule="evenodd" d="M59.7444 30.2493C59.7857 30.291 59.8137 30.344 59.825 30.4016C59.8363 30.4593 59.8302 30.519 59.8077 30.5732C59.7851 30.6274 59.747 30.6737 59.6982 30.7063C59.6494 30.7389 59.5921 30.7563 59.5334 30.7563C59.4748 30.7563 59.4174 30.7389 59.3686 30.7063C59.3198 30.6737 59.2817 30.6274 59.2592 30.5732C59.2366 30.519 59.2306 30.4593 59.2419 30.4016C59.2531 30.344 59.2812 30.291 59.3225 30.2493C59.3785 30.1934 59.4544 30.1621 59.5334 30.1621C59.6125 30.1621 59.6883 30.1934 59.7444 30.2493Z" fill="#004290"/>
<path fill-rule="evenodd" clip-rule="evenodd" d="M60.6018 30.6055C60.6605 30.6055 60.718 30.6229 60.7668 30.6556C60.8157 30.6883 60.8538 30.7348 60.8763 30.7891C60.8988 30.8435 60.9046 30.9033 60.8932 30.961C60.8817 31.0188 60.8534 31.0718 60.8119 31.1134C60.7703 31.155 60.7174 31.1833 60.6597 31.1948C60.6021 31.2063 60.5424 31.2004 60.4881 31.1779C60.4338 31.1554 60.3874 31.1172 60.3548 31.0683C60.3221 31.0194 60.3047 30.9618 60.3047 30.903C60.3047 30.8241 60.336 30.7484 60.3917 30.6926C60.4474 30.6368 60.523 30.6055 60.6018 30.6055Z" fill="#004290"/>
<path fill-rule="evenodd" clip-rule="evenodd" d="M61.4594 30.2502C61.501 30.2089 61.554 30.1808 61.6115 30.1696C61.6691 30.1583 61.7287 30.1644 61.7828 30.187C61.8369 30.2096 61.8831 30.2477 61.9157 30.2966C61.9482 30.3455 61.9655 30.4029 61.9655 30.4616C61.9655 30.5203 61.9482 30.5777 61.9157 30.6266C61.8831 30.6755 61.8369 30.7136 61.7828 30.7362C61.7287 30.7588 61.6691 30.7648 61.6115 30.7536C61.554 30.7424 61.501 30.7143 61.4594 30.673C61.4035 30.6169 61.3721 30.5408 61.3721 30.4616C61.3721 30.3823 61.4035 30.3063 61.4594 30.2502Z" fill="#004290"/>
<path fill-rule="evenodd" clip-rule="evenodd" d="M61.8135 29.3913C61.8135 29.3324 61.8309 29.2749 61.8635 29.226C61.8962 29.1771 61.9426 29.1389 61.9969 29.1164C62.0512 29.0939 62.1109 29.088 62.1685 29.0995C62.2262 29.1109 62.2791 29.1393 62.3207 29.1809C62.3622 29.2225 62.3905 29.2755 62.402 29.3332C62.4134 29.3909 62.4075 29.4508 62.3851 29.5051C62.3626 29.5595 62.3245 29.606 62.2756 29.6387C62.2268 29.6714 62.1693 29.6888 62.1106 29.6888C62.0319 29.6884 61.9566 29.6569 61.9009 29.6012C61.8453 29.5455 61.8139 29.4701 61.8135 29.3913Z" fill="#004290"/>
<path fill-rule="evenodd" clip-rule="evenodd" d="M61.4592 28.5324C61.4179 28.4907 61.3898 28.4377 61.3786 28.3801C61.3673 28.3224 61.3733 28.2627 61.3959 28.2085C61.4185 28.1543 61.4565 28.1079 61.5053 28.0754C61.5541 28.0428 61.6115 28.0254 61.6701 28.0254C61.7288 28.0254 61.7861 28.0428 61.8349 28.0754C61.8838 28.1079 61.9218 28.1543 61.9444 28.2085C61.967 28.2627 61.973 28.3224 61.9617 28.3801C61.9504 28.4377 61.9224 28.4907 61.8811 28.5324C61.8535 28.5603 61.8206 28.5825 61.7844 28.5976C61.7482 28.6127 61.7094 28.6204 61.6701 28.6204C61.6309 28.6204 61.5921 28.6127 61.5559 28.5976C61.5197 28.5825 61.4868 28.5603 61.4592 28.5324Z" fill="#004290"/>
<path fill-rule="evenodd" clip-rule="evenodd" d="M22.2324 17.5781C22.7096 17.5781 23.1761 17.7198 23.573 17.9854C23.9698 18.2509 24.2791 18.6283 24.4617 19.0698C24.6444 19.5113 24.6922 19.9972 24.5991 20.4659C24.506 20.9347 24.2762 21.3653 23.9388 21.7032C23.6013 22.0412 23.1714 22.2714 22.7033 22.3647C22.2353 22.4579 21.7501 22.4101 21.3092 22.2273C20.8682 22.0444 20.4913 21.7347 20.2262 21.3374C19.961 20.94 19.8194 20.4728 19.8193 19.9949C19.8193 19.354 20.0736 18.7393 20.5261 18.2861C20.9786 17.8329 21.5924 17.5782 22.2324 17.5781Z" fill="#004290"/>
<path fill-rule="evenodd" clip-rule="evenodd" d="M9.38692 32.1775C8.83669 32.1774 8.29886 32.0139 7.84143 31.7077C7.384 31.4015 7.02751 30.9663 6.81704 30.4572C6.60658 29.9481 6.55158 29.3879 6.65902 28.8475C6.76646 28.3071 7.0315 27.8107 7.42063 27.4212C7.80975 27.0316 8.3055 26.7663 8.84516 26.6589C9.38483 26.5515 9.94418 26.6068 10.4525 26.8177C10.9608 27.0286 11.3952 27.3858 11.7009 27.8439C12.0065 28.3021 12.1696 28.8408 12.1696 29.3918C12.1696 29.7577 12.0976 30.12 11.9578 30.4581C11.818 30.7962 11.613 31.1033 11.3546 31.362C11.0962 31.6207 10.7894 31.8259 10.4518 31.9658C10.1141 32.1057 9.75231 32.1777 9.38692 32.1775Z" fill="#F8F8F8"/>
<path fill-rule="evenodd" clip-rule="evenodd" d="M48.3676 32.1775C47.8173 32.1776 47.2794 32.0143 46.8218 31.7083C46.3642 31.4022 46.0075 30.9671 45.7969 30.458C45.5862 29.9489 45.5311 29.3887 45.6384 28.8482C45.7457 28.3077 46.0106 27.8113 46.3997 27.4216C46.7888 27.0319 47.2845 26.7665 47.8242 26.659C48.3639 26.5515 48.9233 26.6067 49.4317 26.8176C49.9401 27.0285 50.3746 27.3856 50.6803 27.8438C50.986 28.302 51.1491 28.8407 51.149 29.3918C51.1489 30.1305 50.8558 30.8389 50.3342 31.3613C49.8126 31.8837 49.1053 32.1773 48.3676 32.1775Z" fill="#F8F8F8"/>
<path fill-rule="evenodd" clip-rule="evenodd" d="M60.6014 32.1775C60.0511 32.1775 59.5132 32.0141 59.0557 31.708C58.5982 31.4018 58.2416 30.9667 58.0311 30.4576C57.8205 29.9485 57.7654 29.3883 57.8728 28.8479C57.9802 28.3074 58.2452 27.811 58.6343 27.4214C59.0234 27.0318 59.5191 26.7664 60.0588 26.659C60.5985 26.5515 61.1579 26.6067 61.6662 26.8176C62.1746 27.0285 62.609 27.3857 62.9147 27.8439C63.2204 28.3021 63.3835 28.8408 63.3834 29.3918C63.3835 29.7577 63.3115 30.1199 63.1717 30.458C63.0319 30.796 62.827 31.1031 62.5686 31.3618C62.3103 31.6205 62.0036 31.8257 61.666 31.9656C61.3285 32.1056 60.9667 32.1776 60.6014 32.1775Z" fill="#F8F8F8"/>
<path fill-rule="evenodd" clip-rule="evenodd" d="M4.62193 10.0533L2.70355 15.6882C2.6732 15.7772 2.66449 15.8721 2.67815 15.9652C2.69182 16.0582 2.72746 16.1466 2.78211 16.2231C2.83677 16.2996 2.90886 16.3619 2.99239 16.4048C3.07593 16.4478 3.16849 16.4702 3.2624 16.4701H9.69163C9.9593 16.4693 10.2158 16.3625 10.405 16.1729C10.5943 15.9834 10.701 15.7265 10.7018 15.4585V9.89983C10.7017 9.75438 10.6728 9.6104 10.6167 9.47624C10.5605 9.34209 10.4784 9.22045 10.3749 9.11838C10.2714 9.01631 10.1487 8.93585 10.0139 8.88169C9.87915 8.82752 9.73495 8.80072 9.58973 8.80285L6.26875 8.85432C5.90339 8.85609 5.54782 8.9728 5.25231 9.18796C4.95679 9.40312 4.73628 9.70585 4.62193 10.0533Z" fill="white"/>
<path d="M16.1614 8.78516H13.9471C13.4386 8.78516 13.0264 9.19796 13.0264 9.70719V15.3503C13.0264 15.8596 13.4386 16.2724 13.9471 16.2724H16.1614C16.6699 16.2724 17.0821 15.8596 17.0821 15.3503V9.70719C17.0821 9.19796 16.6699 8.78516 16.1614 8.78516Z" fill="white"/>
<path d="M45.0566 17.9414C45.0566 18.0977 45.0488 18.2305 45.0332 18.3398C45.0228 18.444 45.0046 18.5326 44.9785 18.6055C44.9525 18.6732 44.9186 18.7227 44.877 18.7539C44.8405 18.7852 44.7962 18.8008 44.7441 18.8008H40.1113C39.9395 18.8008 39.7936 18.7513 39.6738 18.6523C39.5592 18.5482 39.502 18.3815 39.502 18.1523V8.97266C39.502 8.92057 39.5176 8.8737 39.5488 8.83203C39.5853 8.79036 39.6426 8.75651 39.7207 8.73047C39.7988 8.70443 39.903 8.68359 40.0332 8.66797C40.1686 8.65234 40.3353 8.64453 40.5332 8.64453C40.7363 8.64453 40.903 8.65234 41.0332 8.66797C41.1634 8.68359 41.2676 8.70443 41.3457 8.73047C41.4238 8.75651 41.4785 8.79036 41.5098 8.83203C41.5462 8.8737 41.5645 8.92057 41.5645 8.97266V17.1055H44.7441C44.7962 17.1055 44.8405 17.1211 44.877 17.1523C44.9186 17.1784 44.9525 17.2253 44.9785 17.293C45.0046 17.3555 45.0228 17.4414 45.0332 17.5508C45.0488 17.6549 45.0566 17.7852 45.0566 17.9414ZM54.6035 18.082C54.6035 18.2018 54.5827 18.3086 54.541 18.4023C54.4993 18.4961 54.4421 18.5742 54.3691 18.6367C54.3014 18.6992 54.2181 18.7461 54.1191 18.7773C54.0254 18.8034 53.929 18.8164 53.8301 18.8164H52.9551C52.7728 18.8164 52.6139 18.7982 52.4785 18.7617C52.3483 18.7253 52.2259 18.6602 52.1113 18.5664C52.002 18.4674 51.8952 18.3372 51.791 18.1758C51.6868 18.0091 51.5697 17.7956 51.4395 17.5352L48.9238 12.8086C48.778 12.5273 48.6296 12.2253 48.4785 11.9023C48.3275 11.5742 48.1921 11.2565 48.0723 10.9492H48.0566C48.0775 11.3242 48.0931 11.6992 48.1035 12.0742C48.1139 12.444 48.1191 12.8268 48.1191 13.2227V18.5117C48.1191 18.5638 48.1035 18.6107 48.0723 18.6523C48.0462 18.694 47.9967 18.7305 47.9238 18.7617C47.8561 18.7878 47.7624 18.8086 47.6426 18.8242C47.5228 18.8398 47.3691 18.8477 47.1816 18.8477C46.9993 18.8477 46.8483 18.8398 46.7285 18.8242C46.6087 18.8086 46.515 18.7878 46.4473 18.7617C46.3796 18.7305 46.3327 18.694 46.3066 18.6523C46.2806 18.6107 46.2676 18.5638 46.2676 18.5117V9.42578C46.2676 9.18099 46.3379 8.9987 46.4785 8.87891C46.6243 8.75391 46.8014 8.69141 47.0098 8.69141H48.1113C48.3092 8.69141 48.4759 8.70964 48.6113 8.74609C48.7467 8.77734 48.8665 8.83203 48.9707 8.91016C49.0801 8.98828 49.1816 9.09766 49.2754 9.23828C49.3691 9.3737 49.4655 9.54297 49.5645 9.74609L51.5332 13.4414C51.6478 13.6654 51.7598 13.8867 51.8691 14.1055C51.9837 14.319 52.0931 14.5352 52.1973 14.7539C52.3014 14.9674 52.403 15.1784 52.502 15.3867C52.6009 15.5951 52.6973 15.8034 52.791 16.0117H52.7988C52.7832 15.6471 52.7702 15.2669 52.7598 14.8711C52.7546 14.4753 52.752 14.0977 52.752 13.7383V8.99609C52.752 8.94401 52.7676 8.89714 52.7988 8.85547C52.8301 8.8138 52.8822 8.77734 52.9551 8.74609C53.028 8.71484 53.1243 8.69401 53.2441 8.68359C53.3639 8.66797 53.5176 8.66016 53.7051 8.66016C53.8822 8.66016 54.0306 8.66797 54.1504 8.68359C54.2702 8.69401 54.3613 8.71484 54.4238 8.74609C54.4915 8.77734 54.5384 8.8138 54.5645 8.85547C54.5905 8.89714 54.6035 8.94401 54.6035 8.99609V18.082ZM64.9238 10.2617C64.9238 10.4128 64.916 10.543 64.9004 10.6523C64.89 10.7617 64.8717 10.8503 64.8457 10.918C64.8249 10.9805 64.7962 11.0247 64.7598 11.0508C64.7285 11.0768 64.6895 11.0898 64.6426 11.0898C64.5749 11.0898 64.4655 11.043 64.3145 10.9492C64.1634 10.8555 63.9629 10.7539 63.7129 10.6445C63.4629 10.5352 63.1634 10.4336 62.8145 10.3398C62.4707 10.2461 62.0697 10.1992 61.6113 10.1992C61.1217 10.1992 60.679 10.2852 60.2832 10.457C59.8874 10.6237 59.5488 10.8633 59.2676 11.1758C58.9863 11.4831 58.7702 11.8555 58.6191 12.293C58.4681 12.7253 58.3926 13.2044 58.3926 13.7305C58.3926 14.3086 58.4681 14.819 58.6191 15.2617C58.7754 15.6992 58.9915 16.0664 59.2676 16.3633C59.5436 16.6602 59.8743 16.8841 60.2598 17.0352C60.6504 17.1862 61.0801 17.2617 61.5488 17.2617C61.778 17.2617 62.0046 17.2357 62.2285 17.1836C62.4525 17.1315 62.6608 17.0534 62.8535 16.9492V14.6055H60.9395C60.8457 14.6055 60.7728 14.5482 60.7207 14.4336C60.6686 14.3138 60.6426 14.1133 60.6426 13.832C60.6426 13.6862 60.6478 13.5638 60.6582 13.4648C60.6738 13.3659 60.6947 13.2878 60.7207 13.2305C60.7467 13.168 60.778 13.1237 60.8145 13.0977C60.8509 13.0664 60.8926 13.0508 60.9395 13.0508H64.3535C64.4368 13.0508 64.5098 13.0664 64.5723 13.0977C64.64 13.1237 64.6973 13.1654 64.7441 13.2227C64.7962 13.2799 64.8353 13.3503 64.8613 13.4336C64.8874 13.5117 64.9004 13.6029 64.9004 13.707V17.7305C64.9004 17.8867 64.8717 18.0247 64.8145 18.1445C64.7624 18.2591 64.6504 18.3503 64.4785 18.418C64.3118 18.4857 64.1035 18.556 63.8535 18.6289C63.6035 18.7018 63.3431 18.7643 63.0723 18.8164C62.8066 18.8685 62.5358 18.9076 62.2598 18.9336C61.9889 18.9596 61.7155 18.9727 61.4395 18.9727C60.6322 18.9727 59.9082 18.8581 59.2676 18.6289C58.6322 18.3945 58.0931 18.0586 57.6504 17.6211C57.2077 17.1784 56.8691 16.6419 56.6348 16.0117C56.4004 15.3763 56.2832 14.6576 56.2832 13.8555C56.2832 13.0273 56.4082 12.2852 56.6582 11.6289C56.9082 10.9674 57.2624 10.4076 57.7207 9.94922C58.179 9.48568 58.7311 9.13151 59.377 8.88672C60.028 8.64193 60.752 8.51953 61.5488 8.51953C61.9863 8.51953 62.3848 8.55078 62.7441 8.61328C63.1035 8.67057 63.416 8.74349 63.6816 8.83203C63.9525 8.91536 64.1764 9.00651 64.3535 9.10547C64.5306 9.20443 64.653 9.29036 64.7207 9.36328C64.7936 9.4362 64.8457 9.54036 64.877 9.67578C64.9082 9.80599 64.9238 10.0013 64.9238 10.2617Z" fill="white"/>
</g>
<defs>
<clipPath id="clip0_159_871">
<rect width="80" height="34.6269" fill="white"/>
</clipPath>
</defs>
</svg>
