<svg width="1920" height="1779" viewBox="0 0 1920 1779" fill="none" xmlns="http://www.w3.org/2000/svg">
<rect width="1920" height="1779" fill="#F0F4F9"/>
<path d="M45.9434 97.2411L53.3931 99.9067C526.404 234.072 802.798 533.304 969.993 805.585C1004.51 806.786 1038.35 795.372 1065.71 773.302C1154.54 701.628 1040.44 491.742 794.783 301.896C563.841 123.502 256.139 35.6374 45.9434 97.2411Z" fill="#E7EAEF"/>
<path d="M1006.01 1080.13C1001.11 1051.7 959.616 928.983 900.207 849.51C752.721 857.31 614.288 853.755 372.125 770.531C519.139 1028.79 805.058 1107.18 1006.01 1080.13Z" fill="#E7EAEF"/>
<path d="M1540.32 677.436C1476.13 612.783 1406.43 554.393 1332.11 502.991C1391.05 516.516 1862.08 487.392 1679.6 45.1094C1717.32 71.4686 1900.55 257.958 1786.26 467.648C1762.68 511.086 1723.64 586.511 1540.32 677.436Z" fill="#E7EAEF"/>
<path d="M1674.79 25.1717C1788.71 95.5618 1907.15 286.395 1816.24 470.91C1765.89 572.497 1696.01 634.1 1565.59 704.787C1604.4 748.121 1639.14 795.265 1669.32 845.567C1789.84 756.716 1871.5 648.119 1913.37 483.547C1947.89 348.196 1903.94 106.224 1665.27 2.07031C1667.44 6.71033 1673.57 22.1113 1674.79 25.1717Z" fill="#E7EAEF"/>
<path d="M1384.16 1509.78C1361.43 1451.24 1330.97 1366.63 1338.99 1278.77C1343.42 1217.85 1364.17 1191.2 1392.55 1182.02C1435.74 1168 1473.46 1191.1 1473.46 1235.53C1473.46 1270.57 1441.68 1299.7 1406.23 1298.61C1410.47 1340.37 1486.29 1384.8 1566.54 1344.22C1664.61 1294.86 1708.74 1085.17 1562.39 862.251C1418.11 642.492 1283.63 485.817 1023.65 291.232C735.372 75.2244 331.578 -67.629 -3 70.5844C5.69389 74.0642 14.1943 78.0524 22.4611 82.5299C314.792 11.0539 578.268 98.7207 826.278 281.952C1084.28 472.687 1211.4 717.522 1100.97 803.806C1068.69 828.107 1029.84 841.006 990.078 840.63C1013.09 882.785 1030.63 918.128 1063.35 987.334C1138.22 1145.29 1170.19 1363.08 1233.09 1480.36C1388.78 1771.69 1527.12 1766.66 1619.72 1733.88C1537.02 1702.59 1445.27 1668.23 1384.16 1509.78Z" fill="#E7EAEF"/>
</svg>
