<svg width="0" height="0" class="hidden">
    <symbol xmlns="http://www.w3.org/2000/svg" viewBox="0 0 16 16" id="phone">
        <path d="M15.3389 11.8422L13.7414 10.2446C13.4522 9.95563 13.0901 9.75055 12.6936 9.65124C12.297 9.55192 11.881 9.5621 11.4898 9.68068C11.0986 9.79926 10.7469 10.0218 10.4722 10.3246C10.1976 10.6273 10.0103 10.999 9.93023 11.3998C7.2958 10.9072 4.73356 8.3555 4.57408 6.07476C5.02195 5.99237 5.43412 5.7756 5.75581 5.45328C6.17935 5.02968 6.41729 4.45519 6.41729 3.85616C6.41729 3.25714 6.17935 2.68265 5.75581 2.25905L4.15869 0.661484C3.73509 0.23794 3.1606 0 2.56158 0C1.96256 0 1.38807 0.23794 0.96447 0.661484C-3.82732 5.45328 10.5471 19.8277 15.3389 15.0359C15.7622 14.6123 16 14.0379 16 13.4391C16 12.8402 15.7622 12.2658 15.3389 11.8422Z"></path>
    </symbol>

    <symbol xmlns="http://www.w3.org/2000/svg" viewBox="0 0 16 16" id="search">
        <path d="M13.3542 13.86C13.6609 14.1667 14.1342 13.6934 13.8276 13.3934L11.3276 10.8867C12.2045 9.91638 12.6893 8.6546 12.6876 7.34671C12.6876 4.42004 10.3076 2.04004 7.38089 2.04004C4.45422 2.04004 2.07422 4.42004 2.07422 7.34671C2.07422 10.2734 4.45422 12.6534 7.38089 12.6534C8.70089 12.6534 9.92089 12.1667 10.8542 11.36L13.3542 13.86ZM2.74022 7.34671C2.74022 4.78671 4.82688 2.70671 7.38022 2.70671C9.94022 2.70671 12.0202 4.78671 12.0202 7.34671C12.0202 9.90671 9.94022 11.9867 7.38022 11.9867C4.82688 11.9867 2.74022 9.90671 2.74022 7.34671Z"></path>
    </symbol>

    <symbol fill="none" xmlns="http://www.w3.org/2000/svg" viewBox="0 0 16 16" id="copyright">
        <g clip-path="url(#clip0_61_148)">
            <path d="M8 1.5C11.6 1.5 14.5 4.4 14.5 8C14.5 11.6 11.6 14.5 8 14.5C4.4 14.5 1.5 11.6 1.5 8C1.5 4.4 4.4 1.5 8 1.5ZM8 0C3.6 0 0 3.6 0 8C0 12.4 3.6 16 8 16C12.4 16 16 12.4 16 8C16 3.6 12.4 0 8 0Z" fill="#C4C4C4"></path>
            <path d="M9.9 10.3C9.4 10.7 8.7 11 8 11C6.3 11 5 9.7 5 8C5 6.3 6.3 5 8 5C8.8 5 9.6 5.3 10.1 5.9L11.2 4.8C10.4 4 9.2 3.5 8 3.5C5.5 3.5 3.5 5.5 3.5 8C3.5 10.5 5.5 12.5 8 12.5C9.1 12.5 10 12.1 10.8 11.5L9.9 10.3Z" fill="#C4C4C4"></path>
        </g>
        <defs>
            <clipPath id="clip0_61_148">
                <rect width="16" height="16" fill="white"></rect>
            </clipPath>
        </defs>
    </symbol>

    <symbol fill="none" xmlns="http://www.w3.org/2000/svg" viewBox="0 0 26 18" id="burger">
        <path d="M14.3346 17L0.999999 17M22.3346 9L0.999999 9M25 1L0.999999 0.999999" stroke="white" stroke-width="1.5" stroke-linecap="round" stroke-linejoin="round"></path>
    </symbol>

    <symbol fill="none" xmlns="http://www.w3.org/2000/svg" viewBox="0 0 26 26" id="envelope">
        <path d="M23.8337 6.4987C23.8337 5.30703 22.8587 4.33203 21.667 4.33203H4.33366C3.14199 4.33203 2.16699 5.30703 2.16699 6.4987V19.4987C2.16699 20.6904 3.14199 21.6654 4.33366 21.6654H21.667C22.8587 21.6654 23.8337 20.6904 23.8337 19.4987V6.4987ZM21.667 6.4987L13.0003 11.9154L4.33366 6.4987H21.667ZM21.667 19.4987H4.33366V8.66536L13.0003 14.082L21.667 8.66536V19.4987Z" fill="#004290"></path>
    </symbol>

    <symbol fill="none" xmlns="http://www.w3.org/2000/svg" viewBox="0 0 37 36" id="bag">
        <path d="M29 9H24.5V7.5C24.5 6.70435 24.1839 5.94129 23.6213 5.37868C23.0587 4.81607 22.2956 4.5 21.5 4.5H15.5C14.7044 4.5 13.9413 4.81607 13.3787 5.37868C12.8161 5.94129 12.5 6.70435 12.5 7.5V9H8C6.80653 9 5.66193 9.47411 4.81802 10.318C3.97411 11.1619 3.5 12.3065 3.5 13.5V27C3.5 28.1935 3.97411 29.3381 4.81802 30.182C5.66193 31.0259 6.80653 31.5 8 31.5H29C30.1935 31.5 31.3381 31.0259 32.182 30.182C33.0259 29.3381 33.5 28.1935 33.5 27V13.5C33.5 12.3065 33.0259 11.1619 32.182 10.318C31.3381 9.47411 30.1935 9 29 9ZM15.5 7.5H21.5V9H15.5V7.5ZM30.5 27C30.5 27.3978 30.342 27.7794 30.0607 28.0607C29.7794 28.342 29.3978 28.5 29 28.5H8C7.60218 28.5 7.22064 28.342 6.93934 28.0607C6.65804 27.7794 6.5 27.3978 6.5 27V18.585L13.52 21C13.6793 21.0216 13.8407 21.0216 14 21H23C23.1627 20.997 23.3242 20.9718 23.48 20.925L30.5 18.585V27ZM30.5 15.42L22.76 18H14.24L6.5 15.42V13.5C6.5 13.1022 6.65804 12.7206 6.93934 12.4393C7.22064 12.158 7.60218 12 8 12H29C29.3978 12 29.7794 12.158 30.0607 12.4393C30.342 12.7206 30.5 13.1022 30.5 13.5V15.42Z" fill="#464E4C"></path>
    </symbol>
</svg>