<svg width="38" height="30" viewBox="0 0 38 30" fill="none" xmlns="http://www.w3.org/2000/svg">
<g clip-path="url(#clip0_452_3890)">
<path d="M1.87921 21.3927H1.05404C0.897861 21.3927 0.74614 21.4435 0.622856 21.5371C0.499572 21.6307 0.411756 21.7617 0.373283 21.9095L0.0225881 23.2517C-0.00375847 23.3531 -0.00604755 23.459 0.0158953 23.5613C0.0378382 23.6637 0.0834337 23.7598 0.149206 23.8423C0.214978 23.9248 0.29919 23.9916 0.395422 24.0376C0.491653 24.0835 0.597364 24.1074 0.704495 24.1074H1.87921C2.06584 24.1074 2.24482 24.0351 2.37679 23.9063C2.50875 23.7775 2.58289 23.6028 2.58289 23.4206V22.0784C2.58289 21.9882 2.56468 21.899 2.52931 21.8157C2.49393 21.7324 2.44208 21.6568 2.37672 21.5931C2.31136 21.5294 2.23378 21.4789 2.14841 21.4446C2.06304 21.4102 1.97156 21.3925 1.87921 21.3927ZM14.1077 24.1947H13.9576C13.946 23.8937 13.9077 23.5943 13.843 23.2998L13.9828 23.2663C14.0324 23.2529 14.0747 23.221 14.1004 23.1775C14.1262 23.1339 14.1333 23.0823 14.1203 23.0336L14.0951 22.9441C14.0886 22.9201 14.0773 22.8976 14.0618 22.8778C14.0463 22.858 14.027 22.8415 14.005 22.829C13.983 22.8165 13.9586 22.8084 13.9334 22.8051C13.9081 22.8019 13.8825 22.8035 13.8579 22.8099L13.7135 22.8479C13.6212 22.5614 13.5035 22.2833 13.3616 22.0168L13.49 21.9453C13.5346 21.92 13.5672 21.8785 13.5805 21.8298C13.5938 21.7812 13.5868 21.7294 13.561 21.6857L13.514 21.6052C13.4882 21.5616 13.4456 21.5299 13.3958 21.5169C13.3459 21.5039 13.2928 21.5107 13.2482 21.5359L13.1198 21.6086C12.9537 21.3559 12.7658 21.1176 12.5582 20.896L12.6648 20.7931C12.7012 20.7575 12.7216 20.7092 12.7216 20.6589C12.7216 20.6086 12.7012 20.5603 12.6648 20.5247L12.5972 20.4598C12.5793 20.4419 12.5579 20.4277 12.5342 20.4181C12.5106 20.4084 12.4853 20.4034 12.4597 20.4034C12.434 20.4034 12.4087 20.4084 12.3851 20.4181C12.3615 20.4277 12.3401 20.4419 12.3221 20.4598L12.2167 20.5627C11.9897 20.3601 11.7455 20.1768 11.4867 20.0146L11.5611 19.8893C11.5869 19.8457 11.5939 19.7939 11.5806 19.7452C11.5673 19.6966 11.5347 19.6551 11.4901 19.6298L11.4076 19.584C11.3855 19.5715 11.3612 19.5635 11.336 19.5602C11.3107 19.557 11.2851 19.5586 11.2605 19.5651C11.2359 19.5715 11.2128 19.5826 11.1927 19.5978C11.1725 19.6129 11.1555 19.6318 11.1428 19.6533L11.0683 19.7786C10.7951 19.6406 10.5102 19.5257 10.2168 19.4352L10.2558 19.2942C10.2624 19.2702 10.264 19.2452 10.2607 19.2205C10.2573 19.1959 10.249 19.1721 10.2362 19.1506C10.2235 19.1291 10.2065 19.1103 10.1862 19.0952C10.166 19.0801 10.1429 19.0691 10.1183 19.0627L10.0266 19.0381C9.97674 19.0254 9.92379 19.0324 9.87918 19.0575C9.83457 19.0826 9.80188 19.1239 9.78819 19.1723L9.75037 19.3133C9.44866 19.25 9.14188 19.2126 8.83352 19.2014V19.0549C8.83352 19.0046 8.81315 18.9564 8.77686 18.9208C8.74057 18.8852 8.69131 18.865 8.63983 18.8647H8.54471C8.49304 18.8647 8.44348 18.8848 8.40694 18.9204C8.37041 18.9561 8.34988 19.0044 8.34988 19.0549V19.2014C8.04151 19.2126 7.73474 19.2501 7.43303 19.3133L7.39406 19.1723C7.38062 19.1239 7.34816 19.0827 7.30374 19.0576C7.25931 19.0324 7.20651 19.0254 7.15683 19.0381L7.06514 19.0627C7.04052 19.0691 7.01743 19.0801 6.99718 19.0952C6.97694 19.1103 6.95994 19.1291 6.94717 19.1506C6.93439 19.1721 6.92609 19.1959 6.92274 19.2205C6.91938 19.2452 6.92104 19.2702 6.92762 19.2942L6.96544 19.4352C6.67251 19.5259 6.38803 19.6408 6.11506 19.7786L6.04056 19.6533C6.02786 19.6318 6.01093 19.6129 5.99074 19.5978C5.97056 19.5826 5.94751 19.5715 5.92292 19.5651C5.89834 19.5586 5.87269 19.557 5.84745 19.5602C5.82221 19.5635 5.79787 19.5715 5.77582 19.584L5.69331 19.6298C5.64867 19.6551 5.61612 19.6966 5.6028 19.7452C5.58948 19.7939 5.59647 19.8457 5.62225 19.8893L5.69674 20.0146C5.4379 20.1768 5.19367 20.3601 4.9667 20.5627L4.86126 20.4598C4.84334 20.4419 4.82194 20.4277 4.79833 20.4181C4.77471 20.4084 4.74935 20.4034 4.72374 20.4034C4.69812 20.4034 4.67276 20.4084 4.64915 20.4181C4.62553 20.4277 4.60414 20.4419 4.58621 20.4598L4.51859 20.5247C4.4822 20.5603 4.46177 20.6086 4.46177 20.6589C4.46177 20.7092 4.4822 20.7575 4.51859 20.7931L4.62518 20.896C4.41761 21.1176 4.22974 21.3559 4.06361 21.6086L3.93525 21.5359C3.89055 21.5107 3.83746 21.5039 3.78761 21.5169C3.73776 21.5299 3.69524 21.5616 3.66936 21.6052L3.62237 21.6857C3.59659 21.7294 3.5896 21.7812 3.60292 21.8298C3.61624 21.8785 3.64879 21.92 3.69343 21.9453L3.82179 22.0168C3.68001 22.2835 3.56191 22.5616 3.4688 22.8479L3.32554 22.8099C3.30093 22.8035 3.27527 22.8019 3.25002 22.8051C3.22477 22.8084 3.20043 22.8165 3.1784 22.829C3.15636 22.8415 3.13706 22.858 3.1216 22.8778C3.10614 22.8976 3.09483 22.9201 3.08831 22.9441L3.06309 23.0336C3.0568 23.0583 3.05562 23.084 3.05962 23.1091C3.06362 23.1342 3.07271 23.1584 3.08637 23.18C3.10003 23.2017 3.11798 23.2205 3.13918 23.2353C3.16037 23.2501 3.18437 23.2606 3.20979 23.2663L3.35419 23.3032C3.2895 23.5977 3.25115 23.8971 3.23959 24.198H3.08372C3.03264 24.198 2.9836 24.2176 2.94716 24.2526C2.91072 24.2875 2.88979 24.335 2.88889 24.3848V24.4777C2.88889 24.5281 2.90942 24.5765 2.94596 24.6122C2.98249 24.6478 3.03205 24.6678 3.08372 24.6678H3.23386C3.24535 24.9688 3.2837 25.2682 3.34846 25.5627L3.20406 25.6007C3.1545 25.6138 3.11225 25.6455 3.08649 25.6889C3.06074 25.7323 3.05356 25.7838 3.06653 25.8323L3.09174 25.9218C3.09813 25.9459 3.10936 25.9685 3.12478 25.9883C3.14021 26.0082 3.15952 26.0248 3.18159 26.0373C3.20367 26.0498 3.22806 26.0579 3.25336 26.0611C3.27867 26.0643 3.30437 26.0626 3.32898 26.056L3.47224 26.0191C3.56684 26.3041 3.68647 26.5807 3.82981 26.8457L3.70145 26.9184C3.67939 26.9308 3.66005 26.9473 3.64453 26.967C3.62902 26.9867 3.61763 27.0092 3.61104 27.0332C3.60444 27.0572 3.60275 27.0823 3.60607 27.1069C3.60939 27.1315 3.61766 27.1553 3.63039 27.1768L3.67738 27.2573C3.70326 27.3009 3.74579 27.3327 3.79563 27.3457C3.84548 27.3587 3.89857 27.3518 3.94327 27.3267L4.07163 27.254C4.23719 27.507 4.4251 27.7454 4.6332 27.9665L4.52661 28.0694C4.49022 28.1051 4.46979 28.1533 4.46979 28.2036C4.46979 28.254 4.49022 28.3022 4.52661 28.3379L4.59423 28.4039C4.63075 28.4394 4.6802 28.4593 4.73176 28.4593C4.78332 28.4593 4.83277 28.4394 4.86929 28.4039L4.97473 28.2998C5.2017 28.5024 5.44593 28.6858 5.70477 28.8479L5.63027 28.971C5.6045 29.0146 5.5975 29.0664 5.61082 29.1151C5.62414 29.1637 5.65669 29.2052 5.70133 29.2305L5.78385 29.2775C5.80596 29.2899 5.83036 29.2979 5.85565 29.301C5.88093 29.3042 5.90661 29.3024 5.93121 29.2959C5.9558 29.2893 5.97883 29.2781 5.99898 29.2629C6.01912 29.2476 6.03598 29.2286 6.04859 29.207L6.12308 29.0817C6.39602 29.2199 6.68051 29.3351 6.97346 29.4262L6.93564 29.5661C6.92906 29.5901 6.9274 29.6151 6.93076 29.6398C6.93411 29.6644 6.94242 29.6882 6.95519 29.7097C6.96797 29.7312 6.98496 29.75 7.00521 29.7651C7.02545 29.7802 7.04854 29.7912 7.07317 29.7976L7.16485 29.8222C7.18946 29.8286 7.21512 29.8302 7.24037 29.827C7.26562 29.8237 7.28996 29.8156 7.312 29.8031C7.33403 29.7907 7.35333 29.7741 7.36879 29.7543C7.38425 29.7346 7.39556 29.712 7.40209 29.688L7.44105 29.5482C7.74295 29.6103 8.04963 29.6477 8.3579 29.66V29.8054C8.3579 29.8559 8.37843 29.9042 8.41497 29.9399C8.4515 29.9756 8.50106 29.9956 8.55273 29.9956H8.64786C8.69933 29.9953 8.74859 29.9751 8.78488 29.9395C8.82117 29.9039 8.84154 29.8557 8.84154 29.8054V29.66C9.14981 29.6477 9.45649 29.6103 9.75839 29.5482L9.79621 29.688C9.80964 29.7366 9.84228 29.778 9.88697 29.8032C9.93165 29.8284 9.98475 29.8352 10.0346 29.8222L10.1263 29.7976C10.1509 29.7912 10.174 29.7802 10.1942 29.7651C10.2145 29.75 10.2315 29.7312 10.2443 29.7097C10.257 29.6882 10.2653 29.6644 10.2687 29.6398C10.272 29.6151 10.2704 29.5901 10.2638 29.5661L10.2248 29.4262C10.5155 29.3353 10.7976 29.2204 11.0683 29.0828L11.1428 29.2081C11.1554 29.2297 11.1723 29.2487 11.1924 29.264C11.2126 29.2792 11.2356 29.2905 11.2602 29.297C11.2848 29.3035 11.3105 29.3053 11.3358 29.3021C11.3611 29.299 11.3855 29.291 11.4076 29.2786L11.4901 29.2316C11.5347 29.2063 11.5673 29.1648 11.5806 29.1162C11.5939 29.0675 11.5869 29.0157 11.5611 28.9721L11.4867 28.8468C11.7455 28.6847 11.9897 28.5013 12.2167 28.2987L12.3221 28.4027C12.3587 28.4383 12.4081 28.4582 12.4597 28.4582C12.5112 28.4582 12.5607 28.4383 12.5972 28.4027L12.6648 28.3368C12.7012 28.3011 12.7216 28.2528 12.7216 28.2025C12.7216 28.1522 12.7012 28.1039 12.6648 28.0683L12.5582 27.9654C12.7663 27.7443 12.9542 27.5059 13.1198 27.2529L13.2482 27.3256C13.2928 27.3507 13.3459 27.3576 13.3958 27.3445C13.4456 27.3315 13.4882 27.2998 13.514 27.2562L13.561 27.1757C13.5738 27.1542 13.582 27.1304 13.5854 27.1058C13.5887 27.0811 13.587 27.0561 13.5804 27.0321C13.5738 27.0081 13.5624 26.9856 13.5469 26.9659C13.5314 26.9462 13.512 26.9297 13.49 26.9173L13.3616 26.8446C13.5037 26.5786 13.6214 26.3008 13.7135 26.0146L13.8579 26.0515C13.8825 26.0581 13.9082 26.0598 13.9335 26.0566C13.9588 26.0534 13.9832 26.0453 14.0052 26.0328C14.0273 26.0203 14.0466 26.0037 14.0621 25.9839C14.0775 25.964 14.0887 25.9414 14.0951 25.9173L14.1203 25.8278C14.1333 25.7793 14.1261 25.7278 14.1003 25.6844C14.0746 25.6411 14.0323 25.6094 13.9828 25.5963L13.8384 25.5582C13.9031 25.2638 13.9415 24.9643 13.953 24.6634H14.1031C14.1548 24.6634 14.2043 24.6433 14.2409 24.6077C14.2774 24.572 14.2979 24.5236 14.2979 24.4732V24.3848C14.298 24.3352 14.2781 24.2875 14.2425 24.2519C14.207 24.2164 14.1586 24.1959 14.1077 24.1947ZM8.59628 27.3725C7.99987 27.3725 7.41685 27.1999 6.92096 26.8765C6.42507 26.5531 6.03859 26.0934 5.81041 25.5556C5.58222 25.0177 5.52258 24.4259 5.63901 23.855C5.75545 23.2841 6.04275 22.7597 6.46456 22.3482C6.88637 21.9367 7.42375 21.6565 8.00873 21.5431C8.59372 21.4296 9.20003 21.4881 9.75098 21.711C10.3019 21.9339 10.7728 22.3113 11.104 22.7954C11.4352 23.2795 11.6118 23.8486 11.6116 24.4307C11.6113 25.211 11.2935 25.9593 10.728 26.511C10.1626 27.0626 9.39579 27.3725 8.59628 27.3725ZM11.8511 0.834514L12.8367 1.40275C12.9858 1.48932 13.1093 1.6121 13.1952 1.75912C13.2812 1.90614 13.3267 2.07239 13.3272 2.24167V3.99559C13.1381 4.01046 12.9616 4.09415 12.8328 4.23006C12.7039 4.36598 12.6321 4.54419 12.6316 4.72937V9.01013C12.6318 9.19538 12.7036 9.37374 12.8325 9.50971C12.9614 9.64568 13.138 9.72929 13.3272 9.74391V15.754C13.3272 15.8726 13.3755 15.9864 13.4615 16.0704C13.5475 16.1543 13.6641 16.2014 13.7857 16.2014C13.9072 16.2014 14.0238 16.1543 14.1098 16.0704C14.1958 15.9864 14.2441 15.8726 14.2441 15.754V9.73161C14.4189 9.70141 14.5773 9.61213 14.6915 9.4794C14.8057 9.34668 14.8684 9.17897 14.8687 9.00565V4.72937C14.8682 4.55625 14.8053 4.3888 14.6912 4.25631C14.577 4.12382 14.4187 4.0347 14.2441 4.00454V2.2372C14.2431 1.91227 14.1559 1.59312 13.991 1.31085C13.8261 1.02857 13.5892 0.792788 13.3032 0.62646L12.3198 0.0627016C12.2679 0.032662 12.2104 0.0128984 12.1507 0.00453913C12.0909 -0.00382017 12.0301 -0.000611439 11.9716 0.0139821C11.9131 0.0285757 11.8582 0.0542682 11.8099 0.0895929C11.7616 0.124918 11.7209 0.169182 11.6901 0.21986C11.6593 0.270538 11.6391 0.326637 11.6305 0.384953C11.6219 0.443269 11.6252 0.50266 11.6402 0.559736C11.6551 0.616812 11.6814 0.670454 11.7176 0.717601C11.7538 0.764747 11.7992 0.804474 11.8511 0.834514ZM26.1906 8.57277C25.8021 8.57277 25.4743 8.81773 25.4262 9.14436L25.197 10.679V10.9296L26.5184 10.7059V8.84906C26.512 8.77019 26.4739 8.69699 26.4126 8.64528C26.3513 8.59357 26.2715 8.56752 26.1906 8.57277ZM11.8339 13.9341C10.5538 13.9631 9.07075 14.3233 7.29894 15.0347C7.27862 15.0434 7.26131 15.0576 7.2491 15.0757C7.23689 15.0938 7.23032 15.1149 7.23018 15.1365V15.5068C7.23018 15.5364 7.24225 15.5649 7.26374 15.5859C7.28524 15.6068 7.31439 15.6186 7.34478 15.6186H11.8362C11.8666 15.6186 11.8957 15.6068 11.9172 15.5859C11.9387 15.5649 11.9508 15.5364 11.9508 15.5068V14.0437C11.9505 14.029 11.9473 14.0145 11.9412 14.001C11.9352 13.9876 11.9265 13.9754 11.9156 13.9652C11.9048 13.9551 11.892 13.9471 11.8779 13.9417C11.8639 13.9364 11.849 13.9338 11.8339 13.9341ZM8.59628 23.3491C8.37709 23.3491 8.16283 23.4125 7.98058 23.5313C7.79833 23.6502 7.65628 23.8191 7.5724 24.0168C7.48852 24.2144 7.46657 24.4319 7.50934 24.6417C7.5521 24.8516 7.65765 25.0443 7.81264 25.1956C7.96763 25.3468 8.1651 25.4498 8.38008 25.4916C8.59505 25.5333 8.81788 25.5119 9.02039 25.43C9.22289 25.3482 9.39598 25.2095 9.51775 25.0316C9.63953 24.8538 9.70453 24.6446 9.70453 24.4307C9.70453 24.1438 9.58776 23.8687 9.37993 23.6659C9.17209 23.463 8.89021 23.3491 8.59628 23.3491ZM28.1344 24.7696C27.6631 24.5341 27.1484 24.3927 26.6204 24.3535C26.9631 24.7482 27.3827 25.0725 27.8549 25.3076C28.3271 25.5426 28.8424 25.6837 29.371 25.7227C29.0275 25.3278 28.6067 25.0038 28.1332 24.7696H28.1344ZM29.654 20.6555C29.4115 20.6555 29.1744 20.7257 28.9727 20.8573C28.7711 20.9888 28.6139 21.1757 28.5211 21.3944C28.4283 21.6131 28.404 21.8537 28.4513 22.0859C28.4986 22.3181 28.6154 22.5313 28.7869 22.6987C28.9584 22.8661 29.1769 22.9801 29.4148 23.0263C29.6527 23.0725 29.8992 23.0488 30.1233 22.9582C30.3474 22.8676 30.5389 22.7142 30.6737 22.5174C30.8084 22.3205 30.8803 22.0891 30.8803 21.8524C30.8803 21.6951 30.8486 21.5394 30.7869 21.3941C30.7252 21.2488 30.6347 21.1169 30.5208 21.0057C30.4068 20.8945 30.2714 20.8064 30.1225 20.7463C29.9736 20.6862 29.814 20.6554 29.6529 20.6555H29.654ZM31.4786 18.3759C31.0077 18.1402 30.4934 17.9988 29.9658 17.9598C30.3076 18.3539 30.7263 18.6778 31.1975 18.9127C31.6687 19.1475 32.183 19.2886 32.7106 19.3278C32.3686 18.9335 31.9493 18.6099 31.4774 18.3759H31.4786ZM37.7177 21.5079H37.4977C37.4785 21.0694 37.4203 20.6334 37.3235 20.2048L37.5344 20.1488C37.6063 20.1299 37.6677 20.0841 37.7053 20.0213C37.7428 19.9584 37.7535 19.8837 37.7349 19.8133L37.6994 19.6824C37.6797 19.6123 37.6328 19.5524 37.5685 19.5157C37.5043 19.4789 37.4279 19.4681 37.3556 19.4855L37.1458 19.5403C37.0106 19.1219 36.838 18.7158 36.6301 18.3267L36.8181 18.2204C36.8505 18.2022 36.8788 18.178 36.9016 18.1491C36.9244 18.1202 36.9411 18.0871 36.9508 18.0519C36.9605 18.0167 36.9629 17.98 36.9581 17.9438C36.9532 17.9077 36.9411 17.8728 36.9224 17.8412L36.8536 17.7238C36.8157 17.6602 36.7536 17.6138 36.6808 17.5947C36.6081 17.5756 36.5305 17.5854 36.4651 17.622L36.276 17.7338C36.0333 17.3646 35.7588 17.0162 35.4554 16.6925L35.6101 16.5414C35.6366 16.5157 35.6575 16.4851 35.6719 16.4514C35.6862 16.4177 35.6935 16.3816 35.6935 16.3451C35.6935 16.3087 35.6862 16.2726 35.6719 16.2389C35.6575 16.2052 35.6366 16.1746 35.6101 16.1488L35.5127 16.0526C35.4863 16.0268 35.455 16.0064 35.4204 15.9924C35.3859 15.9784 35.3489 15.9712 35.3116 15.9712C35.2742 15.9712 35.2372 15.9784 35.2027 15.9924C35.1682 16.0064 35.1368 16.0268 35.1104 16.0526L34.9557 16.1947C34.6237 15.8986 34.2663 15.6306 33.8876 15.3938L33.9965 15.2104C34.0153 15.1788 34.0276 15.1439 34.0325 15.1078C34.0375 15.0716 34.035 15.0348 34.0253 14.9995C34.0156 14.9643 33.9989 14.9312 33.976 14.9023C33.9532 14.8734 33.9247 14.8492 33.8922 14.8312L33.7718 14.7629C33.7396 14.7447 33.7039 14.7329 33.667 14.7281C33.63 14.7234 33.5925 14.7258 33.5565 14.7353C33.5205 14.7447 33.4868 14.761 33.4573 14.7833C33.4277 14.8055 33.403 14.8332 33.3845 14.8647L33.2756 15.0482C32.876 14.8464 32.4597 14.678 32.031 14.5448L32.0871 14.3401C32.1054 14.2697 32.0946 14.1951 32.0571 14.1323C32.0196 14.0696 31.9584 14.0237 31.8866 14.0045L31.7525 13.9699C31.6803 13.9521 31.6039 13.9626 31.5396 13.9992C31.4753 14.0358 31.4283 14.0955 31.4087 14.1656L31.3525 14.3714C30.9132 14.2777 30.4666 14.2208 30.0173 14.2014V13.9822C30.0173 13.9086 29.9874 13.838 29.9341 13.786C29.8808 13.734 29.8085 13.7048 29.7331 13.7048H29.5933C29.5179 13.7048 29.4456 13.734 29.3923 13.786C29.339 13.838 29.3091 13.9086 29.3091 13.9822V14.1958C28.8568 14.2151 28.407 14.2723 27.9647 14.367L27.9086 14.1611C27.8889 14.0911 27.8419 14.0313 27.7776 13.9947C27.7134 13.9581 27.6369 13.9476 27.5648 13.9654L27.4295 14.0001C27.3579 14.0195 27.2969 14.0654 27.2594 14.1281C27.222 14.1908 27.211 14.2652 27.229 14.3356L27.2771 14.5414C26.8487 14.6744 26.4327 14.8428 26.0336 15.0448L25.919 14.8614C25.8812 14.7978 25.8191 14.7514 25.7463 14.7323C25.6735 14.7132 25.5959 14.723 25.5305 14.7596L25.4102 14.8278C25.3778 14.846 25.3494 14.8702 25.3266 14.8992C25.3039 14.9281 25.2872 14.9611 25.2775 14.9963C25.2678 15.0315 25.2653 15.0683 25.2702 15.1044C25.2751 15.1406 25.2872 15.1754 25.3059 15.207L25.4205 15.3904C25.0421 15.6273 24.6852 15.8952 24.3535 16.1913L24.1976 16.0403C24.1713 16.0146 24.1401 15.9941 24.1057 15.9802C24.0712 15.9662 24.0343 15.959 23.9971 15.959C23.9598 15.959 23.9229 15.9662 23.8885 15.9802C23.8541 15.9941 23.8228 16.0146 23.7965 16.0403L23.698 16.1365C23.6715 16.1623 23.6505 16.1929 23.6362 16.2266C23.6219 16.2603 23.6145 16.2964 23.6145 16.3328C23.6145 16.3693 23.6219 16.4054 23.6362 16.4391C23.6505 16.4728 23.6715 16.5034 23.698 16.5291L23.8527 16.6802C23.5493 17.0039 23.2748 17.3523 23.0321 17.7215L22.843 17.6097C22.8107 17.5915 22.7751 17.5796 22.7381 17.5749C22.7012 17.5702 22.6636 17.5726 22.6276 17.582C22.5916 17.5915 22.5579 17.6078 22.5284 17.63C22.4989 17.6522 22.4741 17.6799 22.4556 17.7115L22.3857 17.8289C22.367 17.8605 22.3549 17.8954 22.35 17.9315C22.3451 17.9677 22.3476 18.0044 22.3573 18.0396C22.367 18.0748 22.3837 18.1079 22.4065 18.1368C22.4292 18.1657 22.4576 18.1899 22.49 18.2081L22.678 18.3144C22.471 18.7039 22.2985 19.1099 22.1622 19.528L21.9525 19.4732C21.8802 19.4558 21.8038 19.4666 21.7395 19.5033C21.6753 19.5401 21.6283 19.6 21.6087 19.6701L21.5731 19.801C21.5549 19.8714 21.5657 19.946 21.6032 20.0087C21.6407 20.0715 21.7019 20.1174 21.7737 20.1365L21.9846 20.1925C21.8878 20.6211 21.8295 21.0571 21.8104 21.4956H21.5903C21.515 21.4956 21.4427 21.5248 21.3894 21.5768C21.3361 21.6289 21.3061 21.6994 21.3061 21.773V21.924C21.3061 21.9976 21.3361 22.0681 21.3894 22.1202C21.4427 22.1722 21.515 22.2014 21.5903 22.2014H21.8104C21.8297 22.6399 21.888 23.0759 21.9846 23.5045L21.7737 23.5593C21.7021 23.5788 21.641 23.6247 21.6036 23.6874C21.5661 23.75 21.5552 23.8245 21.5731 23.8949L21.6087 24.0258C21.6283 24.0959 21.6753 24.1556 21.7396 24.1922C21.8039 24.2288 21.8803 24.2393 21.9525 24.2215L22.1622 24.1667C22.2987 24.5851 22.4712 24.9915 22.678 25.3815L22.49 25.4934C22.4575 25.5114 22.429 25.5356 22.4062 25.5645C22.3833 25.5934 22.3665 25.6265 22.3568 25.6617C22.3471 25.697 22.3447 25.7338 22.3497 25.77C22.3546 25.8061 22.3669 25.841 22.3857 25.8725L22.4556 25.99C22.4742 26.0215 22.4991 26.049 22.5286 26.0711C22.5582 26.0932 22.5919 26.1094 22.6279 26.1188C22.6639 26.1281 22.7014 26.1305 22.7383 26.1256C22.7752 26.1208 22.8108 26.1089 22.843 26.0907L23.0321 25.9788C23.2747 26.3485 23.5493 26.6972 23.8527 27.0213L23.698 27.1723C23.6715 27.1981 23.6505 27.2287 23.6362 27.2624C23.6219 27.2961 23.6145 27.3322 23.6145 27.3686C23.6145 27.4051 23.6219 27.4412 23.6362 27.4749C23.6505 27.5086 23.6715 27.5392 23.698 27.5649L23.7965 27.66C23.8228 27.6858 23.8541 27.7062 23.8885 27.7202C23.9229 27.7341 23.9598 27.7413 23.9971 27.7413C24.0343 27.7413 24.0712 27.7341 24.1057 27.7202C24.1401 27.7062 24.1713 27.6858 24.1976 27.66L24.3535 27.509C24.6852 27.8051 25.0421 28.0731 25.4205 28.3099L25.3059 28.4945C25.2872 28.526 25.2751 28.5609 25.2702 28.5971C25.2653 28.6332 25.2678 28.67 25.2775 28.7052C25.2872 28.7404 25.3039 28.7734 25.3266 28.8023C25.3494 28.8312 25.3778 28.8555 25.4102 28.8737L25.5305 28.9408C25.5628 28.9591 25.5984 28.971 25.6354 28.9758C25.6724 28.9807 25.71 28.9783 25.7461 28.969C25.7822 28.9596 25.816 28.9434 25.8457 28.9213C25.8754 28.8992 25.9003 28.8716 25.919 28.8401L26.0336 28.6555C26.4323 28.8584 26.8483 29.0269 27.2771 29.1589L27.2209 29.3636C27.2027 29.434 27.2135 29.5086 27.251 29.5714C27.2885 29.6341 27.3497 29.68 27.4215 29.6992L27.5567 29.7338C27.6289 29.752 27.7055 29.7416 27.7699 29.7049C27.8342 29.6683 27.8812 29.6083 27.9006 29.5381L27.9567 29.3323C28.396 29.4264 28.8426 29.4837 29.2919 29.5034V29.7171C29.2919 29.7535 29.2992 29.7896 29.3135 29.8232C29.3278 29.8569 29.3487 29.8875 29.3751 29.9132C29.4015 29.939 29.4329 29.9594 29.4673 29.9734C29.5018 29.9873 29.5388 29.9945 29.5761 29.9945H29.7159C29.7533 29.9945 29.7902 29.9873 29.8247 29.9734C29.8592 29.9594 29.8905 29.939 29.9169 29.9132C29.9433 29.8875 29.9642 29.8569 29.9785 29.8232C29.9928 29.7896 30.0002 29.7535 30.0002 29.7171V29.5034C30.4494 29.4837 30.8961 29.4264 31.3353 29.3323L31.3915 29.5381C31.4108 29.6083 31.4578 29.6683 31.5222 29.7049C31.5865 29.7416 31.6631 29.752 31.7353 29.7338L31.8694 29.6992C31.9413 29.6803 32.0027 29.6344 32.0403 29.5716C32.0778 29.5088 32.0885 29.434 32.0699 29.3636L32.0138 29.1589C32.4428 29.0267 32.8593 28.8583 33.2584 28.6555L33.3673 28.8401C33.3859 28.8716 33.4107 28.8992 33.4403 28.9213C33.4698 28.9434 33.5036 28.9595 33.5396 28.9689C33.5755 28.9782 33.6131 28.9806 33.65 28.9758C33.6869 28.9709 33.7225 28.959 33.7547 28.9408L33.875 28.8737C33.9074 28.8555 33.9358 28.8312 33.9585 28.8023C33.9813 28.7734 33.998 28.7404 34.0077 28.7052C34.0174 28.67 34.0199 28.6332 34.015 28.5971C34.0101 28.5609 33.998 28.526 33.9793 28.4945L33.8704 28.3099C34.2491 28.0731 34.6065 27.8051 34.9385 27.509L35.0933 27.66C35.1197 27.6858 35.151 27.7063 35.1855 27.7203C35.22 27.7342 35.257 27.7414 35.2944 27.7414C35.3317 27.7414 35.3687 27.7342 35.4033 27.7203C35.4378 27.7063 35.4691 27.6858 35.4955 27.66L35.5929 27.5649C35.6194 27.5392 35.6404 27.5086 35.6547 27.4749C35.669 27.4412 35.6763 27.4051 35.6763 27.3686C35.6763 27.3322 35.669 27.2961 35.6547 27.2624C35.6404 27.2287 35.6194 27.1981 35.5929 27.1723L35.4382 27.0213C35.7416 26.6972 36.0161 26.3485 36.2588 25.9788L36.4479 26.0907C36.4802 26.109 36.5158 26.1209 36.5528 26.1257C36.5898 26.1305 36.6274 26.1282 36.6635 26.1189C36.6996 26.1095 36.7334 26.0933 36.7631 26.0712C36.7928 26.0491 36.8177 26.0215 36.8364 25.99L36.9052 25.8725C36.924 25.841 36.9363 25.8061 36.9412 25.77C36.9462 25.7338 36.9437 25.697 36.934 25.6617C36.9243 25.6265 36.9076 25.5934 36.8847 25.5645C36.8619 25.5356 36.8334 25.5114 36.8009 25.4934L36.6129 25.3815C36.8206 24.9919 36.9932 24.5855 37.1287 24.1667L37.3384 24.2215C37.4105 24.2393 37.487 24.2288 37.5513 24.1922C37.6156 24.1556 37.6626 24.0959 37.6822 24.0258L37.7177 23.8949C37.736 23.8245 37.7252 23.7499 37.6877 23.6871C37.6502 23.6244 37.589 23.5785 37.5172 23.5593L37.3063 23.5045C37.4029 23.0759 37.4612 22.6399 37.4805 22.2014H37.7005C37.7759 22.2014 37.8482 22.1722 37.9015 22.1202C37.9548 22.0681 37.9848 21.9976 37.9848 21.924V21.7887C37.9858 21.7171 37.9584 21.648 37.9085 21.5957C37.8585 21.5434 37.7898 21.5119 37.7166 21.5079H37.7177ZM29.654 26.1567C28.7818 26.1567 27.9292 25.9042 27.2039 25.4313C26.4787 24.9583 25.9135 24.2861 25.5797 23.4996C25.2459 22.7131 25.1586 21.8476 25.3287 21.0127C25.4989 20.1777 25.9189 19.4108 26.5357 18.8088C27.1524 18.2069 27.9382 17.7969 28.7937 17.6309C29.6491 17.4648 30.5359 17.55 31.3417 17.8758C32.1475 18.2016 32.8363 18.7533 33.3209 19.4611C33.8054 20.1689 34.0641 21.0011 34.0641 21.8524C34.0642 22.4178 33.9502 22.9777 33.7286 23.5C33.5069 24.0224 33.182 24.497 32.7723 24.8967C32.3627 25.2964 31.8763 25.6134 31.3411 25.8296C30.8058 26.0458 30.2322 26.157 29.6529 26.1567H29.654ZM16.5889 16.6287C16.5638 16.6184 16.5368 16.6133 16.5096 16.6135C16.4824 16.6137 16.4555 16.6194 16.4306 16.6301C16.4057 16.6408 16.3833 16.6564 16.3647 16.6758C16.3461 16.6952 16.3318 16.7182 16.3226 16.7432C16.3135 16.7682 16.3096 16.7947 16.3113 16.8213C16.3129 16.8478 16.3201 16.8737 16.3324 16.8974C16.3446 16.9211 16.3617 16.9422 16.3826 16.9592C16.4034 16.9763 16.4276 16.9891 16.4537 16.9967C16.6015 17.0474 16.7409 17.119 16.8674 17.2092C16.6502 17.3869 16.45 17.5835 16.2692 17.7965L16.276 17.9218C16.2823 18.0492 16.3274 18.1719 16.4056 18.2741C16.6128 17.9799 16.8621 17.7163 17.1459 17.4911L17.1551 17.4822C17.2431 17.5917 17.3174 17.7111 17.3763 17.8379C17.3927 17.8714 17.4186 17.8997 17.4508 17.9195C17.4831 17.9393 17.5204 17.9498 17.5585 17.9497C17.5874 17.9499 17.616 17.9438 17.6422 17.9318C17.6906 17.9099 17.7281 17.8702 17.7466 17.8214C17.765 17.7725 17.7629 17.7185 17.7407 17.6712C17.6322 17.4293 17.4737 17.2118 17.2751 17.0325C17.0765 16.8531 16.8421 16.7156 16.5866 16.6287H16.5889ZM27.0926 18.8658C26.6888 19.1995 26.3569 19.6081 26.1163 20.068C25.8756 20.5279 25.7311 21.0299 25.691 21.5448C26.0943 21.2107 26.4258 20.802 26.6663 20.3422C26.9069 19.8823 27.0518 19.3806 27.0926 18.8658ZM32.2418 24.8099C32.6464 24.4768 32.9784 24.0679 33.2183 23.6074C33.4586 23.1475 33.6031 22.6457 33.6435 22.1309C33.239 22.4652 32.9067 22.8748 32.6661 23.3357C32.4254 23.7966 32.2812 24.2996 32.2418 24.8155V24.8099ZM19.9492 13.0146C19.8461 13.0151 19.7465 13.0511 19.6681 13.1163C19.5896 13.1815 19.5373 13.2717 19.5204 13.371C19.5035 13.4702 19.5232 13.5721 19.5758 13.6586C19.6285 13.745 19.7108 13.8105 19.8082 13.8435V15.1857C19.9045 15.0068 20.0076 14.8323 20.1142 14.6611V13.8401C20.2074 13.8024 20.2843 13.7345 20.332 13.6477C20.3796 13.561 20.395 13.4608 20.3756 13.3642C20.3562 13.2676 20.3031 13.1806 20.2253 13.1179C20.1476 13.0552 20.05 13.0207 19.9492 13.0202V13.0146ZM22.349 17.0493C22.4121 16.9699 22.4751 16.8904 22.5404 16.8133C22.6058 16.7361 22.6722 16.6589 22.7387 16.5817C23.0082 16.2799 23.2964 15.9945 23.6017 15.7271C24.2122 15.1932 24.8896 14.7369 25.6176 14.3692C25.7987 14.2752 25.9843 14.1913 26.1712 14.1097C26.2651 14.0705 26.3591 14.0291 26.4542 13.9978C26.5024 13.9799 26.5494 13.9598 26.5975 13.943L26.7407 13.8893C26.9333 13.8211 27.1281 13.7562 27.3252 13.7014L27.3997 13.6802L27.4742 13.66L27.6221 13.6197C27.7218 13.5951 27.8215 13.5694 27.9223 13.5482L28.0736 13.5157L28.2249 13.4855C28.2753 13.4743 28.3258 13.4665 28.3773 13.4576C28.4289 13.4486 28.4782 13.4385 28.5297 13.4318C28.7337 13.3983 28.9389 13.3748 29.1452 13.3513C29.1968 13.3513 29.2483 13.3423 29.2999 13.3379C29.3515 13.3334 29.403 13.3278 29.4546 13.3256L29.6105 13.3155H29.7709L30.4162 13.292C31.2746 13.2585 32.1353 13.2137 32.9914 13.1623C33.42 13.1354 33.8498 13.1074 34.2784 13.0761H34.291C34.3128 13.0737 34.333 13.0635 34.3476 13.0475C34.3622 13.0315 34.3703 13.0109 34.3703 12.9894C34.3703 12.968 34.3622 12.9473 34.3476 12.9313C34.333 12.9153 34.3128 12.9052 34.291 12.9027C33.8578 12.8815 33.4234 12.8636 32.9902 12.8468C32.1314 12.8118 31.2734 12.7816 30.4162 12.7562L29.7732 12.735L29.4455 12.7249H29.2793H29.1108H28.9446C28.8885 12.7249 28.83 12.7249 28.7773 12.7316C28.7246 12.7383 28.6627 12.7316 28.6111 12.7406L28.4438 12.7529C28.3888 12.7529 28.3292 12.7629 28.2776 12.7674C28.226 12.7719 28.163 12.7775 28.1114 12.7853L27.9453 12.8065L27.7802 12.8323C27.6656 12.8479 27.5602 12.8703 27.4502 12.8893L27.2863 12.9229L27.2038 12.9408L27.1224 12.9598C26.9046 13.0101 26.6892 13.0717 26.4749 13.1365C26.2605 13.2014 26.0508 13.2786 25.8422 13.3602L25.6875 13.4229L25.6096 13.4553L25.5328 13.49L25.3804 13.5582L25.2279 13.6298C23.6093 14.4121 22.2666 15.6479 21.3714 17.179C20.9314 17.9333 20.6122 18.7489 20.4248 19.5974C20.379 19.8077 20.3423 20.0202 20.3102 20.2327C20.3022 20.2853 20.2964 20.339 20.2907 20.3916C20.285 20.4441 20.2781 20.4978 20.2747 20.5515L20.2609 20.7115C20.2609 20.764 20.254 20.8177 20.2506 20.8703C20.2506 20.9766 20.2437 21.084 20.2403 21.1902C20.2403 21.2428 20.2403 21.2965 20.2403 21.3491V21.4285V21.509L20.2472 21.6678L20.2586 21.8256C20.2586 21.9307 20.2792 22.037 20.2907 22.141C20.3429 21.7275 20.4163 21.3169 20.5108 20.9106C20.6047 20.509 20.7226 20.1131 20.8637 19.7249C21.1442 18.9601 21.5203 18.232 21.9834 17.5571C22.0988 17.3781 22.2207 17.2089 22.349 17.0493ZM18.9051 14.2461C18.9053 14.1632 18.8807 14.082 18.8343 14.0125C18.7879 13.943 18.7218 13.8882 18.6439 13.8549C18.5661 13.8216 18.48 13.8111 18.3962 13.8249C18.3124 13.8386 18.2345 13.8759 18.1721 13.9322C18.1097 13.9885 18.0654 14.0614 18.0448 14.1418C18.0242 14.2223 18.0281 14.3069 18.0561 14.3852C18.084 14.4636 18.1348 14.5323 18.2021 14.5829C18.2695 14.6335 18.3505 14.6638 18.4352 14.6701L19.0931 16.8625C19.1469 16.6969 19.2077 16.5336 19.2661 16.3725L18.7298 14.5828C18.7826 14.5431 18.8254 14.4921 18.855 14.4337C18.8846 14.3754 18.9001 14.3112 18.9005 14.2461H18.9051ZM29.6346 11.9788C30.135 11.9786 30.6349 12.0138 31.1302 12.084C30.8285 11.8008 30.4767 11.5734 30.0918 11.4128C29.8605 11.3179 29.6615 11.1608 29.518 10.9598C29.3746 10.7588 29.2926 10.5222 29.2816 10.2775C29.2002 8.23944 28.8953 6.23608 28.1917 3.07724H28.2662C28.4412 3.07724 28.6091 3.00936 28.7329 2.88853C28.8567 2.7677 28.9263 2.60383 28.9263 2.43295C28.9263 2.26207 28.8567 2.09819 28.7329 1.97736C28.6091 1.85653 28.4412 1.78865 28.2662 1.78865H18.9636C18.5298 1.78825 18.0972 1.74326 17.6731 1.65442L16.6714 1.44301C16.619 1.432 16.5646 1.43259 16.5124 1.44473C16.4602 1.45687 16.4114 1.48026 16.3696 1.51319C16.3279 1.54611 16.2942 1.58774 16.2711 1.63502C16.2479 1.68229 16.2359 1.73402 16.2359 1.78642V2.63876C16.2359 2.75506 16.2833 2.86658 16.3675 2.94882C16.4518 3.03105 16.566 3.07724 16.6852 3.07724H17.8427C16.346 5.54928 15.6159 8.23272 15.1518 11.7327C15.1338 11.868 15.0764 11.9953 14.9864 12.0997C14.8964 12.204 14.7776 12.2808 14.6441 12.3211V15.7585C14.6501 15.8723 14.6323 15.9861 14.5918 16.093C14.5514 16.1999 14.489 16.2976 14.4086 16.3803C14.3282 16.4629 14.2314 16.5287 14.1241 16.5737C14.0168 16.6186 13.9013 16.6418 13.7845 16.6418C13.6677 16.6418 13.5522 16.6186 13.4449 16.5737C13.3376 16.5287 13.2408 16.4629 13.1604 16.3803C13.08 16.2976 13.0177 16.1999 12.9772 16.093C12.9367 15.9861 12.9189 15.8723 12.925 15.7585V12.481L12.1903 12.5437C10.6865 12.6734 9.21495 13.0449 7.8353 13.6432L4.77531 14.971C4.26641 15.1908 3.81963 15.5276 3.47315 15.9527C3.12668 16.3777 2.89082 16.8783 2.78575 17.4117L2.41557 19.2987C2.32363 19.7658 2.33422 20.2465 2.44662 20.7093C2.55903 21.172 2.7707 21.6062 3.06768 21.9833L3.12727 22.0582C3.16051 22.1007 3.19489 22.141 3.22927 22.1813L3.24532 22.1444C3.17428 22.0414 3.13501 21.9207 3.13216 21.7965C3.12932 21.6724 3.16302 21.5501 3.22927 21.4441L3.26938 21.3759C3.32768 21.2778 3.41121 21.1963 3.51172 21.1394C3.61223 21.0825 3.72623 21.0522 3.84242 21.0515H3.89743C3.94327 20.9911 3.99026 20.9307 4.03954 20.8703C3.99884 20.7552 3.99208 20.6313 4.02005 20.5126C4.04801 20.3939 4.10956 20.2853 4.19769 20.1992L4.255 20.1444C4.37885 20.0208 4.54676 19.9487 4.72374 19.943C4.80168 19.942 4.87922 19.9541 4.95295 19.9788C5.01255 19.9318 5.07443 19.8848 5.13747 19.8401C5.13208 19.7647 5.14023 19.689 5.16153 19.6164C5.21265 19.4509 5.32718 19.3111 5.48128 19.226L5.55119 19.1869C5.65254 19.1307 5.76702 19.1011 5.88355 19.1007C6.01635 19.101 6.14604 19.1399 6.25602 19.2126C6.32708 19.1813 6.39928 19.1522 6.47263 19.1242C6.48749 19.0498 6.51582 18.9786 6.55629 18.9139C6.64957 18.7669 6.79736 18.6608 6.96887 18.6175L7.04566 18.5974C7.10255 18.5802 7.1615 18.5704 7.22101 18.5683C7.3162 18.5684 7.41027 18.5884 7.49686 18.627C7.58345 18.6656 7.66056 18.7219 7.72298 18.792C7.79977 18.7808 7.8777 18.7708 7.9522 18.7629C8.00666 18.6533 8.09165 18.5608 8.19746 18.4961C8.30326 18.4314 8.42559 18.3971 8.55044 18.3972H8.64556C8.77041 18.3971 8.89274 18.4314 8.99855 18.4961C9.10435 18.5608 9.18935 18.6533 9.24381 18.7629C9.32174 18.7708 9.39853 18.7808 9.47302 18.792C9.53506 18.7223 9.61162 18.6663 9.69758 18.6277C9.78355 18.5891 9.87695 18.5689 9.97156 18.5683C10.03 18.5685 10.0881 18.5761 10.1446 18.5907L10.2214 18.6108C10.3929 18.6541 10.5407 18.7602 10.634 18.9072C10.6745 18.9719 10.7028 19.0431 10.7176 19.1175C10.7898 19.1455 10.8632 19.1746 10.9343 19.2059C11.0441 19.133 11.1739 19.0941 11.3067 19.094C11.4233 19.0943 11.5377 19.124 11.6391 19.1802L11.7078 19.2193C11.8624 19.3042 11.9773 19.444 12.0287 19.6097C12.05 19.6823 12.0582 19.758 12.0528 19.8334C12.1158 19.8781 12.1766 19.9251 12.2373 19.9721C12.311 19.9473 12.3886 19.9352 12.4665 19.9363C12.6435 19.942 12.8114 20.0141 12.9353 20.1376L12.9926 20.1925C13.0807 20.2786 13.1423 20.3872 13.1702 20.5059C13.1982 20.6246 13.1914 20.7485 13.1507 20.8636C13.1989 20.924 13.247 20.9844 13.2928 21.0448H13.3398C13.456 21.0455 13.57 21.0758 13.6705 21.1327C13.771 21.1896 13.8546 21.2711 13.9129 21.3692L13.953 21.4374C14.0434 21.5858 14.0709 21.7628 14.0298 21.9307C14.0117 22.0045 13.9803 22.0746 13.9369 22.1376C13.9679 22.2081 13.9977 22.2786 14.0263 22.3502C14.1485 22.3736 14.2615 22.4299 14.3526 22.5128C14.4438 22.5956 14.5094 22.7016 14.5421 22.8189L14.5661 22.9083C14.6084 23.0613 14.5917 23.2241 14.5191 23.3658H19.2982C19.2471 22.9535 19.2215 22.5385 19.2214 22.1231C19.2222 20.7899 19.492 19.4699 20.0156 18.2386C20.5391 17.0072 21.306 15.8885 22.2726 14.9465C23.2392 14.0045 24.3864 13.2575 25.6488 12.7483C26.9112 12.2391 28.264 11.9776 29.63 11.9788H29.6346ZM5.30938 17.0124L5.01942 18.3144C4.99236 18.4367 4.92306 18.5462 4.82312 18.6246C4.72318 18.703 4.59868 18.7455 4.47046 18.745H3.79772C3.70803 18.745 3.61967 18.7239 3.54009 18.6835C3.46051 18.6431 3.39204 18.5847 3.34046 18.5131C3.28889 18.4415 3.25571 18.3588 3.24374 18.272C3.23177 18.1853 3.24135 18.097 3.27168 18.0146L3.75531 16.7126C3.79436 16.6072 3.86568 16.5162 3.95958 16.4517C4.05348 16.3873 4.16542 16.3526 4.28021 16.3524H4.75927C4.8427 16.3524 4.92509 16.3706 5.00036 16.4057C5.07563 16.4409 5.14187 16.492 5.19421 16.5555C5.24655 16.6189 5.28365 16.6929 5.30279 16.7722C5.32193 16.8515 5.32261 16.9339 5.30479 17.0135L5.30938 17.0124ZM12.2316 15.5057C12.2316 15.5563 12.2214 15.6064 12.2015 15.6532C12.1816 15.6999 12.1524 15.7424 12.1157 15.7781C12.079 15.8139 12.0354 15.8422 11.9874 15.8615C11.9395 15.8807 11.8881 15.8906 11.8362 15.8904H7.33561C7.28374 15.8906 7.23236 15.8807 7.18439 15.8615C7.13643 15.8422 7.09283 15.8139 7.0561 15.7781C7.01937 15.7424 6.99023 15.6999 6.97034 15.6532C6.95046 15.6064 6.94022 15.5563 6.94022 15.5057V15.1354C6.94001 15.059 6.96312 14.9843 7.00659 14.9207C7.05007 14.8572 7.11194 14.8077 7.18433 14.7786C8.7957 14.1309 10.3578 13.6902 11.8202 13.66C11.8727 13.659 11.9249 13.6682 11.9738 13.6871C12.0226 13.7061 12.0671 13.7343 12.1045 13.7703C12.142 13.8063 12.1718 13.8492 12.192 13.8965C12.2122 13.9438 12.2226 13.9946 12.2224 14.0459L12.2316 15.5057ZM24.8704 4.25062C24.8704 4.07262 24.9428 3.90192 25.0718 3.77605C25.2007 3.65019 25.3756 3.57948 25.558 3.57948H26.8909C27.0857 3.58271 27.2713 3.6605 27.4079 3.79608C27.5444 3.93166 27.621 4.11419 27.6209 4.30431V9.924C27.6207 10.1835 27.5265 10.4347 27.3549 10.633C27.1834 10.8313 26.9456 10.9641 26.6834 11.0079L24.8704 11.3121V4.25062ZM18.6404 21.8759C18.6401 21.9795 18.5979 22.0787 18.523 22.152C18.448 22.2253 18.3465 22.2668 18.2404 22.2674H16.5889C16.4828 22.2668 16.3813 22.2253 16.3064 22.152C16.2314 22.0787 16.1892 21.9795 16.1889 21.8759C16.1889 21.7723 16.2311 21.6729 16.306 21.5995C16.381 21.5261 16.4827 21.4847 16.5889 21.4844H18.2404C18.3466 21.4847 18.4483 21.5261 18.5233 21.5995C18.5983 21.6729 18.6404 21.7723 18.6404 21.8759ZM18.6404 20.2652C18.6401 20.3686 18.5978 20.4677 18.5229 20.5409C18.4479 20.614 18.3464 20.6552 18.2404 20.6555H16.5889C16.4829 20.6552 16.3814 20.614 16.3064 20.5409C16.2315 20.4677 16.1893 20.3686 16.1889 20.2652C16.1889 20.1615 16.2311 20.0621 16.306 19.9887C16.381 19.9153 16.4827 19.874 16.5889 19.8737H18.2404C18.3466 19.874 18.4483 19.9153 18.5233 19.9887C18.5983 20.0621 18.6404 20.1615 18.6404 20.2652ZM18.1304 18.8602H16.9396C16.6843 18.8603 16.4386 18.7647 16.2533 18.5933C16.068 18.4218 15.9572 18.1874 15.9437 17.9385C15.6343 12.1723 16.1603 7.28977 18.2358 4.04033C18.3255 3.89958 18.4504 3.78343 18.5988 3.7028C18.7471 3.62218 18.9141 3.57974 19.0839 3.57948H23.5478C23.616 3.57919 23.6836 3.59205 23.7468 3.61732C23.8099 3.6426 23.8672 3.67979 23.9156 3.72677C23.9639 3.77375 24.0023 3.82959 24.0285 3.89107C24.0547 3.95256 24.0681 4.01849 24.0681 4.08507V11.367C24.068 11.3947 24.0605 11.4219 24.0462 11.4458C24.0319 11.4698 24.0114 11.4897 23.9868 11.5034C21.2866 13.0236 19.7028 15.2417 19.1103 18.0784C19.0649 18.2992 18.9424 18.4979 18.7637 18.6405C18.585 18.7831 18.3612 18.8608 18.1304 18.8602ZM20.866 11.9609L17.6995 9.20252C17.6683 9.17506 17.6318 9.15389 17.5922 9.14022C17.5526 9.12655 17.5107 9.12066 17.4687 9.12289C17.4268 9.12511 17.3857 9.13541 17.3479 9.15318C17.31 9.17095 17.2762 9.19586 17.2482 9.22645C17.2203 9.25705 17.1988 9.29274 17.185 9.33147C17.1712 9.37019 17.1655 9.4112 17.168 9.45211C17.1705 9.49303 17.1813 9.53306 17.1997 9.56989C17.2182 9.60672 17.2439 9.63963 17.2754 9.66673L18.7091 10.9151L18.0215 11.6701L17.884 11.5504C17.7736 11.4544 17.6287 11.4051 17.4811 11.4133C17.3334 11.4214 17.1952 11.4864 17.0966 11.594L16.276 12.4889C16.218 13.3837 16.1916 14.3341 16.197 15.3401L18.504 12.8166C18.6024 12.7089 18.6529 12.5674 18.6445 12.4234C18.6361 12.2793 18.5695 12.1443 18.4593 12.0482L18.3206 11.9274L19.0083 11.1723L20.442 12.4206C20.5056 12.4706 20.5864 12.4947 20.6678 12.4882C20.7491 12.4817 20.8248 12.4449 20.8792 12.3855C20.9336 12.3261 20.9625 12.2486 20.9601 12.169C20.9576 12.0893 20.924 12.0137 20.866 11.9576V11.9609Z" fill="#004290"/>
</g>
<defs>
<clipPath id="clip0_452_3890">
<rect width="38" height="30" fill="white"/>
</clipPath>
</defs>
</svg>
