<svg width="54" height="24" viewBox="0 0 54 24" fill="none" xmlns="http://www.w3.org/2000/svg">
<g clip-path="url(#clip0_452_3880)">
<path d="M47.7818 15.2049L54 8.49477L52.5292 6.32415H45.0081C44.974 6.27133 44.9384 6.21896 44.9019 6.1666C44.8653 6.11423 44.8373 6.07391 44.807 6.02757C44.7504 5.94787 44.693 5.86847 44.6348 5.78938C44.6053 5.75045 44.5764 5.71106 44.5465 5.67167C44.5313 5.65221 44.5166 5.63275 44.4991 5.61375C44.4443 5.54207 44.3885 5.47086 44.3316 5.40012C44.2936 5.35377 44.2552 5.30743 44.2168 5.26109C44.1608 5.19343 44.1038 5.12624 44.046 5.05951C43.9985 5.00853 43.9563 4.95756 43.9107 4.90705C43.8861 4.87832 43.8633 4.85005 43.8358 4.82271C43.8083 4.79537 43.795 4.77637 43.7746 4.75598L43.7148 4.69203C43.6673 4.64568 43.6242 4.59656 43.5781 4.54883C43.5321 4.5011 43.4832 4.45615 43.4358 4.40703C43.3884 4.35791 43.3551 4.32593 43.3139 4.287C43.2897 4.26291 43.2664 4.24066 43.2403 4.2161C43.21 4.18598 43.1786 4.15632 43.1454 4.12713C43.1122 4.09793 43.0728 4.05808 43.0354 4.02471C42.9879 3.98208 42.9405 3.93945 42.893 3.89728C42.744 3.76428 42.5918 3.63591 42.4366 3.51033C42.3939 3.4765 42.3517 3.44267 42.3085 3.40931C42.2339 3.35061 42.1586 3.29284 42.0827 3.23599C42.0428 3.20541 42.0025 3.17668 41.9622 3.14655C41.9365 3.12848 41.9114 3.10902 41.8853 3.09141C41.8592 3.0738 41.8279 3.05016 41.7989 3.02977C41.77 3.00938 41.7415 2.98853 41.7121 2.96907C41.6827 2.9496 41.6542 2.92875 41.6248 2.90929C41.5238 2.84024 41.4217 2.77026 41.3188 2.70678C41.2675 2.67388 41.2158 2.64097 41.1636 2.609C41.1115 2.57702 41.0588 2.54551 41.0066 2.51632C40.9772 2.49778 40.9463 2.47971 40.9155 2.46163L40.8311 2.41251L40.7362 2.3569L40.6816 2.31705L40.5611 2.25217C40.4868 2.21139 40.4118 2.17169 40.3362 2.13308C40.2816 2.10434 40.2266 2.07654 40.1716 2.04874C40.1336 2.02974 40.0956 2.01074 40.0572 1.9922L39.949 1.93937C39.8912 1.91157 39.8323 1.88469 39.7744 1.85827C39.727 1.8351 39.6748 1.81193 39.624 1.79062C39.4975 1.73501 39.371 1.68125 39.2445 1.62935L39.1539 1.59367C39.1102 1.57652 39.0666 1.55937 39.0229 1.54315C38.9883 1.52972 38.9541 1.51628 38.9195 1.50423C38.8962 1.49496 38.872 1.48662 38.8493 1.47828C38.8265 1.46994 38.8165 1.46577 38.8018 1.4602L38.7401 1.43842L38.7102 1.42777C38.6846 1.41803 38.6585 1.40923 38.6334 1.40089C38.6082 1.39255 38.5945 1.38745 38.575 1.38142L38.4199 1.32952C38.3724 1.31516 38.3283 1.29986 38.2823 1.28596C38.2363 1.27206 38.1793 1.25399 38.1276 1.23962C38.0901 1.22804 38.0517 1.21691 38.0128 1.20626C37.935 1.18309 37.8559 1.16131 37.7756 1.14092L37.6612 1.11218C37.6375 1.10523 37.6138 1.09967 37.5915 1.09411C37.544 1.08114 37.4928 1.06955 37.4434 1.0575C37.4026 1.04731 37.3618 1.0385 37.3215 1.02923C37.2266 1.00792 37.1317 0.987063 37.0368 0.968063L36.9363 0.947673C36.9173 0.943966 36.8983 0.939795 36.8788 0.936551L36.7944 0.920796L36.6653 0.897625C36.6084 0.887893 36.5515 0.878162 36.4941 0.869357C36.412 0.855918 36.329 0.843406 36.2464 0.832284L36.1634 0.821162C36.0856 0.810504 36.0078 0.800772 35.9295 0.792431C35.8744 0.786407 35.8194 0.779919 35.7639 0.774358L35.7003 0.76787L35.6567 0.7637C35.6144 0.759992 35.5727 0.755822 35.5309 0.753041C35.5006 0.749797 35.4702 0.74748 35.4403 0.745163L35.2629 0.733114C35.2007 0.728944 35.1381 0.7257 35.0759 0.722919C35.0247 0.720602 34.9734 0.718285 34.9217 0.716895L34.7675 0.712261C34.6641 0.709481 34.5611 0.708554 34.4572 0.708554C34.3533 0.708554 34.258 0.708554 34.1602 0.712261C34.1275 0.712261 34.0957 0.712261 34.0653 0.715042C34.035 0.717822 34.0127 0.715041 33.9866 0.717822L33.896 0.721993C33.8485 0.721993 33.8011 0.72709 33.7508 0.730334C33.7356 0.730334 33.7209 0.730334 33.7062 0.733114C33.6587 0.736358 33.6113 0.739602 33.5638 0.743773L33.4879 0.750261C33.4585 0.750261 33.4291 0.755358 33.4006 0.759065C33.3722 0.762773 33.3328 0.765553 33.3 0.769724L33.2668 0.772968L33.235 0.776675H33.2317L33.1193 0.791041L33.0087 0.806797C32.9447 0.815601 32.882 0.825796 32.8189 0.836455C32.7558 0.847113 32.6946 0.858235 32.6339 0.86982C32.5808 0.880479 32.5276 0.891137 32.4754 0.903186C32.4541 0.907357 32.4332 0.912454 32.4119 0.917552C32.3744 0.92543 32.3378 0.934234 32.3008 0.943503C32.2638 0.952771 32.2292 0.961112 32.1946 0.970844C32.1789 0.974088 32.1637 0.978258 32.1471 0.982429C32.1149 0.991234 32.0835 0.999575 32.0522 1.00884H32.0432L31.936 1.04036H31.9327C31.8767 1.0575 31.8216 1.07511 31.7666 1.09365C31.7116 1.11218 31.658 1.13072 31.6043 1.15018C31.5507 1.16965 31.4981 1.19004 31.4454 1.21089C29.4162 2.0163 28.1702 3.76289 26.5078 6.32415H23.3009L21.1521 0H10.0024L11.4818 2.45839H6.85491H6.24429L0 12.12V18.7361H7.93382C7.74612 19.2792 7.652 19.8489 7.65532 20.422C7.65532 22.3934 8.70576 23.9903 10.001 23.9903H11.8139C11.8429 23.9903 11.8718 23.9903 11.9003 23.987H11.9041C11.9651 23.9942 12.0266 23.9979 12.0881 23.9981H13.9015C14.384 23.9981 14.8319 23.7762 15.2048 23.3957H15.2115L15.2333 23.3656C15.8458 22.7219 16.2467 21.6468 16.2467 20.429C16.2501 19.8528 16.1551 19.28 15.9659 18.7343H16.7136C16.5264 19.2774 16.4326 19.8471 16.436 20.4202C16.436 22.3915 17.4855 23.9884 18.7813 23.9884H20.5913C20.6203 23.9884 20.6492 23.9884 20.6777 23.9852H20.6815C20.7425 23.9924 20.804 23.9961 20.8655 23.9963H22.6789C23.1614 23.9963 23.6093 23.7743 23.9822 23.3939H23.9889L24.0112 23.3637C24.6227 22.7196 25.0241 21.6449 25.0241 20.4271C25.0275 19.8509 24.9326 19.2782 24.7433 18.7324H27.2882C27.1009 19.2755 27.0069 19.8452 27.0102 20.4183C27.0102 22.3896 28.0602 23.9866 29.3554 23.9866H31.1678C31.1963 23.9866 31.2253 23.9866 31.2537 23.9833H31.257C31.3184 23.9905 31.3802 23.9942 31.4421 23.9944H33.254C33.7365 23.9944 34.1849 23.7725 34.5578 23.392H34.5645L34.5863 23.3619C35.0422 22.8818 35.3815 22.163 35.5243 21.3229C35.7881 22.8549 36.7033 23.9852 37.7926 23.9852H39.6051C39.634 23.9852 39.6629 23.9852 39.6914 23.9819H39.6947C39.7561 23.9891 39.8179 23.9928 39.8798 23.993H41.6917C42.1742 23.993 42.6221 23.7711 42.995 23.3906H43.0017L43.0235 23.3605C43.636 22.7164 44.0369 21.6417 44.0369 20.4239C44.0369 19.2519 43.6659 18.2125 43.0928 17.5618V16.711H48.1694L49.3043 15.2049H47.7818ZM33.7854 20.5198C33.7854 20.5263 33.7854 20.5323 33.7854 20.5388C33.7845 20.5323 33.7849 20.5263 33.7849 20.5198H33.7854ZM23.4698 8.23387H22.8763L22.9057 8.36177L22.9081 8.37196L23.4902 10.847L23.9889 12.9667L24.1696 13.7369L23.8622 13.9162H22.9493L22.7264 12.9667L22.5337 12.1529L21.4709 7.67082L21.8861 7.5647H23.2933L23.4698 8.23387ZM42.5087 8.23387H41.9147L41.9474 8.37289L43.0278 12.9676L43.209 13.7378L42.9016 13.9171H41.9892L41.7643 12.9676L40.5075 7.67082L40.9245 7.5647H42.3308L42.5087 8.23387ZM19.381 7.5647L21.192 15.2049H18.4178L19.1295 16.1489H18.0686V2.45885L19.381 7.5647ZM39.8243 13.7369L39.5163 13.9162H38.604L38.3791 12.9667L37.1227 7.67082L37.5393 7.5647H38.946L39.124 8.23387H38.5299L38.5627 8.37289L39.6425 12.9676L39.8243 13.7369ZM35.8241 13.7369L35.5157 13.9162H34.6038L34.3789 12.9667L33.1226 7.67082L33.5392 7.5647H34.9459L35.1238 8.23387H34.5298L34.5602 8.36223V8.37196L35.64 12.9667L35.8241 13.7369ZM29.4323 7.67082L29.8489 7.5647H31.2556L31.4335 8.23387H30.8395L30.8699 8.3627V8.37196L31.9507 12.9667L32.1315 13.7369L31.8235 13.9162H30.9131L30.6882 12.9667L29.4323 7.67082ZM17.1639 3.78189V11.6714H15.425V3.78189H17.1639ZM14.4315 20.4975C14.4315 20.5156 14.4315 20.5337 14.4315 20.5522C14.431 20.5342 14.4315 20.5156 14.4315 20.4975ZM14.4315 20.4257C14.4315 20.4257 14.4315 20.4294 14.4315 20.4313C14.4315 20.4331 14.4315 20.4396 14.4315 20.4433C14.4315 20.4392 14.4315 20.435 14.4315 20.4308C14.4315 20.4266 14.4324 20.4271 14.4324 20.4257H14.4315ZM23.2089 20.5096C23.2089 20.5212 23.2089 20.5332 23.2089 20.5453C23.2093 20.5332 23.2098 20.5216 23.2098 20.5096H23.2089ZM45.5808 7.5647L45.7597 8.23387H45.168L45.1998 8.37289L45.7089 10.5625L45.4015 10.7409H44.4872L43.7584 7.67175L44.175 7.56563L45.5808 7.5647ZM25.6903 7.58926L25.7852 7.56517H27.1919L27.3698 8.23433H26.7768L26.8095 8.37335L27.8898 12.9681L28.0711 13.7382L27.7636 13.9176H26.8508L26.6259 12.9681L25.4417 7.97065L25.3695 7.66943L25.6903 7.58926ZM13.2373 3.44684V12.0065H2.6095L7.65532 3.44684H13.2373ZM9.96781 22.5393C9.94788 22.5393 9.927 22.5435 9.9066 22.5449C9.8862 22.5463 9.86533 22.5472 9.84445 22.5472C9.0412 22.5472 8.38977 21.5694 8.38977 20.3636C8.38977 19.7148 8.57671 19.136 8.87467 18.7366C9.13182 18.3904 9.472 18.1805 9.84445 18.1805C9.86533 18.1805 9.88573 18.1805 9.9066 18.1805C9.92748 18.1805 9.94788 18.1842 9.96781 18.1865C10.0516 18.1973 10.1337 18.2184 10.2122 18.2491L10.2169 18.2811C10.2206 18.2724 10.2249 18.2641 10.2297 18.256C10.4653 18.3608 10.6673 18.5263 10.8138 18.7347C10.8403 18.77 10.8659 18.807 10.8901 18.845C10.9915 19.0035 11.073 19.1732 11.1331 19.3506C11.3548 20.0103 11.3538 20.7222 11.1302 21.3813C11.0694 21.5587 10.987 21.7285 10.8849 21.8868C10.6951 22.1802 10.4494 22.3934 10.1732 22.4893C10.1062 22.5133 10.0367 22.5301 9.96591 22.5393H9.96781ZM17.1681 20.3636C17.1681 19.7148 17.3551 19.136 17.653 18.7366C17.9102 18.3904 18.2504 18.1805 18.6228 18.1805C18.7551 18.1807 18.886 18.2071 19.0076 18.2579C19.2435 18.3624 19.4457 18.5279 19.5921 18.7366C19.6187 18.7718 19.6438 18.8089 19.6685 18.8469C19.7698 19.005 19.8514 19.1744 19.9114 19.3515C20.1338 20.0118 20.1328 20.7244 19.9086 21.3841C19.8474 21.5611 19.7651 21.7305 19.6633 21.8887C19.4735 22.1825 19.2273 22.3952 18.9516 22.4911C18.8459 22.5279 18.7345 22.5468 18.6223 22.5472C17.8177 22.5472 17.1662 21.5694 17.1662 20.3636H17.1681ZM29.3213 22.5393C29.3013 22.5393 29.2805 22.5435 29.2596 22.5449C29.2387 22.5463 29.2183 22.5472 29.1979 22.5472C28.3951 22.5472 27.7437 21.5694 27.7437 20.3636C27.7437 19.7148 27.9306 19.136 28.2286 18.7366C28.4858 18.3904 28.8259 18.1805 29.1979 18.1805C29.2183 18.1805 29.2392 18.1805 29.2596 18.1805C29.28 18.1805 29.3013 18.1842 29.3213 18.1865C29.4113 18.1978 29.4992 18.2212 29.5827 18.256C29.8188 18.3604 30.0212 18.5259 30.1677 18.7347C30.1943 18.77 30.2194 18.807 30.2441 18.845C30.345 19.0034 30.4266 19.1727 30.487 19.3497C30.7088 20.01 30.7078 20.7224 30.4842 21.3822C30.4229 21.5593 30.3404 21.7287 30.2384 21.8868C30.0486 22.1807 29.8024 22.3934 29.5267 22.4893C29.4601 22.5126 29.3913 22.5293 29.3213 22.5393ZM35.5238 19.5272C35.4785 19.2594 35.41 18.9959 35.3193 18.7394H35.7264C35.6358 18.9953 35.5674 19.2582 35.5219 19.5253L35.5238 19.5272ZM37.6356 22.5491C36.8324 22.5491 36.1809 21.5713 36.1809 20.3655C36.1809 19.7167 36.3707 19.1379 36.6663 18.7384C36.923 18.3923 37.2636 18.1824 37.6356 18.1824C37.7679 18.1827 37.8987 18.209 38.0204 18.2597C38.2565 18.3642 38.4588 18.5297 38.6054 18.7384C38.632 18.7737 38.6571 18.8107 38.6818 18.8487C38.7827 19.007 38.8641 19.1764 38.9242 19.3534C39.1466 20.0136 39.1456 20.7262 38.9214 21.3859C38.8602 21.563 38.7779 21.7324 38.6761 21.8906C38.4863 22.1844 38.2396 22.3971 37.9644 22.493C37.8581 22.5292 37.7463 22.5475 37.6337 22.5472L37.6356 22.5491Z" fill="#004290"/>
<path d="M10.8247 23.3518C12.4079 23.3518 13.6913 22.0982 13.6913 20.5519C13.6913 19.0055 12.4079 17.752 10.8247 17.752C9.24145 17.752 7.95801 19.0055 7.95801 20.5519C7.95801 22.0982 9.24145 23.3518 10.8247 23.3518Z" fill="#004290"/>
<path d="M19.6977 23.4397C21.2809 23.4397 22.5644 22.1861 22.5644 20.6398C22.5644 19.0934 21.2809 17.8398 19.6977 17.8398C18.1145 17.8398 16.8311 19.0934 16.8311 20.6398C16.8311 22.1861 18.1145 23.4397 19.6977 23.4397Z" fill="#004290"/>
<path d="M30.2944 23.3362C31.8776 23.3362 33.161 22.0826 33.161 20.5363C33.161 18.9899 31.8776 17.7363 30.2944 17.7363C28.7112 17.7363 27.4277 18.9899 27.4277 20.5363C27.4277 22.0826 28.7112 23.3362 30.2944 23.3362Z" fill="#004290"/>
<path d="M38.8217 23.3557C40.4049 23.3557 41.6884 22.1021 41.6884 20.5558C41.6884 19.0094 40.4049 17.7559 38.8217 17.7559C37.2385 17.7559 35.9551 19.0094 35.9551 20.5558C35.9551 22.1021 37.2385 23.3557 38.8217 23.3557Z" fill="#004290"/>
<path d="M11.8012 23.2971C13.3844 23.2971 14.6679 22.0435 14.6679 20.4972C14.6679 18.9508 13.3844 17.6973 11.8012 17.6973C10.218 17.6973 8.93457 18.9508 8.93457 20.4972C8.93457 22.0435 10.218 23.2971 11.8012 23.2971Z" fill="white"/>
<path d="M20.6752 23.385C22.2585 23.385 23.5419 22.1314 23.5419 20.5851C23.5419 19.0387 22.2585 17.7852 20.6752 17.7852C19.092 17.7852 17.8086 19.0387 17.8086 20.5851C17.8086 22.1314 19.092 23.385 20.6752 23.385Z" fill="white"/>
<path d="M31.2709 23.2815C32.8542 23.2815 34.1376 22.0279 34.1376 20.4816C34.1376 18.9352 32.8542 17.6816 31.2709 17.6816C29.6877 17.6816 28.4043 18.9352 28.4043 20.4816C28.4043 22.0279 29.6877 23.2815 31.2709 23.2815Z" fill="white"/>
<path d="M39.7983 23.301C41.3815 23.301 42.6649 22.0474 42.6649 20.5011C42.6649 18.9547 41.3815 17.7012 39.7983 17.7012C38.2151 17.7012 36.9316 18.9547 36.9316 20.5011C36.9316 22.0474 38.2151 23.301 39.7983 23.301Z" fill="white"/>
</g>
<defs>
<clipPath id="clip0_452_3880">
<rect width="54" height="24" fill="white"/>
</clipPath>
</defs>
</svg>
