<svg width="53" height="33" viewBox="0 0 53 33" fill="none" xmlns="http://www.w3.org/2000/svg">
<path d="M52.8201 24.2164V23.8741H51.6378L50.2781 22.988H32.7792C32.9186 22.9144 33.0581 22.844 33.2007 22.78L32.7475 22.0379C32.1564 22.2703 31.6046 22.5941 31.112 22.9976H18.7826V22.3194L18.4656 22.0667L18.4846 18.9924V9.71534C18.4838 9.66554 18.4639 9.61801 18.429 9.58279C18.3941 9.54757 18.347 9.52742 18.2976 9.5266H18.0377V5.49267H17.6542V1.65388C17.6534 1.56302 17.6704 1.4729 17.7043 1.38871C17.7381 1.30453 17.7882 1.22795 17.8516 1.1634C17.9149 1.09886 17.9903 1.04762 18.0734 1.01266C18.1565 0.977694 18.2457 0.959694 18.3357 0.959698V0C17.9557 0 17.5913 0.15234 17.3227 0.423507C17.054 0.694675 16.9031 1.06246 16.9031 1.44594V5.47668H16.7224V6.28922H16.5449L16.266 2.17851C16.2532 2.00482 16.1759 1.8424 16.0495 1.72377C15.9232 1.60514 15.7571 1.53904 15.5845 1.53872H15.1471C14.4132 1.53949 13.7084 1.82863 13.182 2.34486L12.9538 2.55919L12.5164 2.50161L12.0442 3.00066L12.0759 3.44532L6.73206 8.69166V8.07746C6.70357 8.01726 6.65856 7.96657 6.60238 7.93142C6.5462 7.89626 6.4812 7.87811 6.41511 7.87912V8.13184H4.90642C4.64448 8.12339 4.39265 8.02779 4.19011 7.85993V8.76524H4.04748L3.97458 8.63728L1.61012 9.61297L2.79235 10.5183L1.74958 13.5669C1.65742 13.8333 1.61028 14.1134 1.61012 14.3955V17.8728H1.16321V17.6297C1.16409 17.5713 1.14239 17.515 1.10274 17.4726C1.06308 17.4301 1.00859 17.405 0.950856 17.4025H0.697295C0.626393 17.4034 0.55868 17.4324 0.508839 17.4833C0.458999 17.5342 0.43105 17.6029 0.431055 17.6744V20.1537C0.161646 20.1537 0.114103 20.5151 0.114103 20.5151V26.7468H2.33059e-10V28.9445C-2.23375e-06 29.0136 0.0160559 29.0817 0.0468831 29.1433C0.0777102 29.205 0.122446 29.2585 0.177493 29.2996L0.608548 29.6195V30.8991C0.608548 30.9975 0.647284 31.0919 0.716234 31.1615C0.785185 31.2311 0.878702 31.2702 0.976212 31.2702H1.54039L2.32643 30.9503L2.68458 30.2625V28.9509H2.85257L3.23291 28.7941C3.36868 29.9675 3.94143 31.0449 4.83506 31.8079C5.72869 32.5708 6.87632 32.9623 8.04531 32.9029C9.2143 32.8435 10.3172 32.3377 11.1304 31.488C11.9436 30.6383 12.4062 29.5083 12.4245 28.3271C12.4269 28.0538 12.4056 27.7809 12.3611 27.5113H13.1662L13.5592 28.052H14.4023V27.8312H14.9031V27.4506H15.762V27.6873H16.4435V27.5113H16.6939V28.9829C16.6934 29.1289 16.7216 29.2736 16.7767 29.4087C16.8318 29.5437 16.9127 29.6665 17.0149 29.7699C17.117 29.8733 17.2384 29.9553 17.3721 30.0113C17.5057 30.0673 17.649 30.0961 17.7937 30.0961H18.4466V30.4576H19.1471V30.1089H25.5875V30.4704H26.2848V30.1089H27.3498C27.6423 30.1089 27.9229 29.9916 28.1297 29.7829C28.3366 29.5741 28.4528 29.2909 28.4528 28.9957V26.638H28.8997C28.8712 26.7756 28.849 26.9163 28.83 27.0571L29.6223 27.2298C29.6635 27.0283 29.7174 26.8332 29.7776 26.638H30.3767C30.1691 27.1766 30.0617 27.7492 30.0597 28.3271C30.0661 29.0073 30.22 29.6778 30.5108 30.2915C30.8016 30.9051 31.2221 31.447 31.7427 31.879C32.2634 32.3109 32.8715 32.6225 33.5243 32.7916C34.1771 32.9608 34.8586 32.9835 35.5211 32.8581C36.1835 32.7328 36.8106 32.4624 37.3583 32.066C37.9061 31.6697 38.3611 31.157 38.6913 30.564C39.0215 29.971 39.219 29.3122 39.2697 28.6339C39.3205 27.9556 39.2233 27.2743 38.9851 26.638H41.4668L41.6443 26.9803H42.3258C42.131 27.6212 42.0756 28.297 42.1635 28.9614C42.2514 29.6259 42.4805 30.2634 42.8351 30.8302C43.1896 31.3971 43.6613 31.8799 44.2179 32.2458C44.7744 32.6116 45.4027 32.8518 46.0598 32.9499C46.7168 33.048 47.3871 33.0017 48.0248 32.8141C48.6624 32.6266 49.2524 32.3023 49.7544 31.8633C50.2564 31.4243 50.6585 30.8811 50.9333 30.2708C51.208 29.6605 51.3489 28.9974 51.3462 28.3271C51.3462 28.2759 51.3462 28.2247 51.3462 28.1735H51.7995L52.0118 28.1032V30.432L52.408 30.6847H52.6743V25.8415L52.8359 25.6431V25.3008C52.9454 25.1409 53.0027 24.9504 52.9999 24.756C52.9971 24.5617 52.9342 24.373 52.8201 24.2164ZM5.07123 14.0436H4.15841C4.10988 14.0449 4.06169 14.0349 4.01757 14.0145C3.97346 13.994 3.93458 13.9636 3.90396 13.9256C3.87333 13.8876 3.85177 13.843 3.84093 13.7952C3.83009 13.7474 3.83027 13.6978 3.84146 13.6501L4.47536 10.867C4.49402 10.7881 4.53868 10.7179 4.60201 10.6679C4.66535 10.6179 4.74362 10.5911 4.82401 10.5919H4.86204V12.9559C4.86162 12.98 4.86599 13.0039 4.87492 13.0262C4.88385 13.0485 4.89714 13.0688 4.914 13.0858C4.93086 13.1028 4.95095 13.1163 4.97307 13.1253C4.99518 13.1343 5.01886 13.1387 5.04271 13.1383L5.07123 14.0436ZM5.30261 13.1383C5.34998 13.1383 5.39546 13.1195 5.42925 13.086C5.46304 13.0525 5.48244 13.0069 5.48327 12.9591V10.5919H9.50856C9.61028 10.5919 9.70782 10.6326 9.77975 10.7052C9.85167 10.7778 9.89207 10.8763 9.89207 10.9789V13.7557C9.89208 13.8323 9.86213 13.9059 9.80872 13.9604C9.75531 14.0149 9.68276 14.0459 9.60682 14.0468H5.29944L5.30261 13.1383ZM7.83822 30.8639C7.34049 30.8639 6.85393 30.7149 6.44008 30.4358C6.02622 30.1567 5.70367 29.76 5.51319 29.2959C5.32271 28.8318 5.27288 28.3211 5.36998 27.8284C5.46708 27.3356 5.70677 26.8831 6.05872 26.5278C6.41067 26.1726 6.85909 25.9307 7.34726 25.8327C7.83543 25.7347 8.34144 25.785 8.80129 25.9772C9.26113 26.1695 9.65417 26.495 9.9307 26.9127C10.2072 27.3304 10.3548 27.8215 10.3548 28.3239C10.354 28.9973 10.0886 29.6428 9.6168 30.119C9.14503 30.5952 8.50541 30.863 7.83822 30.8639ZM34.6714 30.8639C34.1737 30.8639 33.6871 30.7149 33.2732 30.4358C32.8594 30.1567 32.5368 29.76 32.3464 29.2959C32.1559 28.8318 32.106 28.3211 32.2031 27.8284C32.3002 27.3356 32.5399 26.8831 32.8919 26.5278C33.2438 26.1726 33.6922 25.9307 34.1804 25.8327C34.6686 25.7347 35.1746 25.785 35.6344 25.9772C36.0943 26.1695 36.4873 26.495 36.7639 26.9127C37.0404 27.3304 37.188 27.8215 37.188 28.3239C37.188 28.9975 36.9228 29.6436 36.4509 30.1199C35.9789 30.5963 35.3388 30.8639 34.6714 30.8639ZM46.7156 30.8639C46.2178 30.8639 45.7313 30.7149 45.3174 30.4358C44.9036 30.1567 44.581 29.76 44.3905 29.2959C44.2001 28.8318 44.1502 28.3211 44.2473 27.8284C44.3444 27.3356 44.5841 26.8831 44.9361 26.5278C45.288 26.1726 45.7364 25.9307 46.2246 25.8327C46.7128 25.7347 47.2188 25.785 47.6786 25.9772C48.1385 26.1695 48.5315 26.495 48.808 26.9127C49.0846 27.3304 49.2322 27.8215 49.2322 28.3239C49.2322 28.9975 48.967 29.6436 48.4951 30.1199C48.0231 30.5963 47.383 30.8639 46.7156 30.8639Z" fill="#004290"/>
</svg>
