<svg width="54" height="16" viewBox="0 0 54 16" fill="none" xmlns="http://www.w3.org/2000/svg">
<g clip-path="url(#clip0_452_3892)">
<path d="M53.7553 8.90485L53.1736 8.26446C53.0036 8.07427 52.9073 7.83026 52.902 7.5761L52.8238 4.86359C52.8204 4.75347 52.7772 4.64823 52.7019 4.56716C52.6267 4.48608 52.5246 4.43458 52.4142 4.42209L47.8251 3.91852C45.4255 2.75681 42.9435 1.77055 40.3989 0.967623C39.561 0.70371 38.7003 0.517193 37.8277 0.410451C33.9058 -0.0677757 29.9436 -0.128304 26.0087 0.2299C24.4655 0.367904 22.9613 0.787285 21.5717 1.46696C19.5566 2.45777 17.6042 3.56947 15.7255 4.79589C8.56803 4.91014 2.70186 5.97794 1.03516 7.38991C0.889791 7.51503 0.794435 7.68768 0.766384 7.87655L0.598576 8.96551L0.446412 9.16016C0.271451 9.38435 0.181815 9.66257 0.193278 9.94585L0.251584 11.4255C0.257011 11.5844 0.223332 11.7423 0.153459 11.8854L0.0524899 12.0941C0.00402774 12.1931 -0.0114135 12.3047 0.00840478 12.4129L0.105108 12.9673C0.119331 13.0458 0.157967 13.1179 0.215602 13.1736C0.273237 13.2292 0.346982 13.2656 0.426502 13.2776L3.37736 13.6697V12.2408C3.37736 9.70182 5.40954 7.59444 7.96506 7.56059C8.58115 7.5518 9.19287 7.66458 9.76463 7.89238C10.3364 8.12017 10.8568 8.45843 11.2956 8.88749C11.7344 9.31655 12.0828 9.82785 12.3206 10.3917C12.5584 10.9555 12.6808 11.5606 12.6807 12.1717V13.887H38.8716V12.2408C38.8716 9.70182 40.9038 7.59444 43.4593 7.56059C44.075 7.55256 44.6861 7.66589 45.2573 7.894C45.8285 8.12212 46.3483 8.46047 46.7866 8.88944C47.2249 9.31841 47.5729 9.82944 47.8105 10.3929C48.0481 10.9563 48.1706 11.561 48.1707 12.1717V13.4793L52.7897 12.5935C53.0495 12.5432 53.2864 12.4117 53.4655 12.2183C53.6446 12.0249 53.7566 11.7797 53.7851 11.5186L53.9928 9.62706C54.0065 9.49689 53.9925 9.36531 53.9515 9.24088C53.9106 9.11645 53.8437 9.00196 53.7553 8.90485ZM41.7471 2.51924C41.861 2.58494 41.9595 2.6739 42.0361 2.78023C42.1128 2.88655 42.1657 3.00782 42.1916 3.13598C42.2174 3.26415 42.2154 3.3963 42.1859 3.52366C42.1563 3.65103 42.0998 3.77072 42.0201 3.87479L41.4712 4.59277C40.5468 4.62521 39.52 4.66047 38.3781 4.69574L38.5715 1.38515C39.6855 1.58817 40.7583 1.9713 41.7471 2.51924ZM27.7678 4.93694C24.8923 5.00465 22.0216 5.09869 19.1556 5.21906L19.3703 3.58845C20.2236 3.1145 21.0768 2.6603 21.9443 2.23431C23.2391 1.59677 24.6417 1.20269 26.0812 1.072C27.0587 0.982669 28.038 0.920134 29.0193 0.8844L27.7678 4.93694ZM30.228 0.856189C32.7305 0.817358 35.2327 0.949795 37.7168 1.25256C37.8775 1.27089 38.0325 1.29487 38.1847 1.31885L37.9003 4.71407C35.6733 4.78037 33.031 4.84667 29.8981 4.89181L30.228 0.856189Z" fill="#004290"/>
<path d="M11.4986 13.7029C12.2918 11.8035 11.3825 9.62601 9.46754 8.83927C7.55263 8.05252 5.35729 8.95448 4.56411 10.8539C3.77093 12.7532 4.68027 14.9308 6.59518 15.7175C8.51009 16.5042 10.7054 15.6023 11.4986 13.7029Z" fill="#004290"/>
<path d="M46.9888 13.7049C47.782 11.8055 46.8727 9.62796 44.9578 8.84122C43.0429 8.05447 40.8475 8.95644 40.0543 10.8558C39.2612 12.7552 40.1705 14.9327 42.0854 15.7195C44.0003 16.5062 46.1957 15.6042 46.9888 13.7049Z" fill="#004290"/>
<path d="M51.7642 5.13044C51.1953 5.08953 50.6265 5.06414 50.0477 5.04722C49.7163 5.03593 49.5926 5.30535 49.8614 5.5254C50.4501 6.01063 51.0104 6.5269 51.5679 7.05022C51.7381 7.2124 51.9662 7.30115 52.2022 7.29706H52.478C52.4835 6.71906 52.4205 6.14242 52.2903 5.579C52.2107 5.25739 52.1211 5.15583 51.7642 5.13044Z" fill="white"/>
<path d="M3.99501 7.12755C3.27466 7.16131 2.55979 7.26909 1.86186 7.44916C1.7368 7.48895 1.62155 7.55433 1.52357 7.64107C1.42558 7.72782 1.34704 7.83399 1.29302 7.95273C1.15038 8.22596 1.05746 8.52202 1.01855 8.82728C1.44867 8.7803 1.88161 8.7638 2.31409 8.77791C2.55935 8.78231 2.79957 8.70866 2.99954 8.56774C3.42654 8.26471 3.82968 7.92992 4.20548 7.56624C4.42591 7.35042 4.30076 7.11345 3.99501 7.12755Z" fill="white"/>
<ellipse cx="8.0202" cy="12.2672" rx="2.40594" ry="2.4" fill="white"/>
<ellipse cx="43.5739" cy="12.2672" rx="2.40594" ry="2.4" fill="white"/>
</g>
<defs>
<clipPath id="clip0_452_3892">
<rect width="54" height="16" fill="white"/>
</clipPath>
</defs>
</svg>
