<svg width="112" height="142" viewBox="0 0 112 142" fill="none" xmlns="http://www.w3.org/2000/svg">
<g clip-path="url(#clip0_61_524)">
<path d="M0 0H120V151.61H0V0Z" fill="white"/>
<path d="M18.0586 18.9609L18.3714 19.0682C38.2311 24.4712 49.8357 36.5215 56.8555 47.4865C58.3048 47.5349 59.7256 47.0753 60.8742 46.1865C64.6038 43.3001 59.8131 34.8478 49.4992 27.2025C39.8029 20.0184 26.8838 16.4801 18.0586 18.9609Z" fill="#3DAE2B"/>
<path d="M58.3672 58.5459C58.1613 57.4009 56.4192 52.4591 53.9249 49.2587C47.7326 49.5728 41.9204 49.4296 31.7529 46.0781C37.9254 56.4785 49.93 59.6353 58.3672 58.5459Z" fill="#004996"/>
<path d="M80.8007 42.3315C78.1053 39.7279 75.1792 37.3765 72.0586 35.3065C74.5331 35.8511 94.3097 34.6783 86.6485 16.8672C88.2322 17.9287 95.9251 25.4388 91.1265 33.8832C90.1367 35.6325 88.4975 38.6699 80.8007 42.3315Z" fill="#3DAE2B"/>
<path d="M86.4471 16.0631C91.23 18.8978 96.2028 26.5828 92.3861 34.0134C90.2718 38.1044 87.338 40.5852 81.8623 43.4318C83.4918 45.1769 84.9502 47.0755 86.2175 49.1012C91.2775 45.523 94.7062 41.1498 96.4641 34.5223C97.9132 29.0716 96.0682 19.3272 86.0473 15.1328C86.1383 15.3197 86.3957 15.9399 86.4471 16.0631Z" fill="#004996"/>
<path d="M74.2439 75.8512C73.2897 73.4936 72.0108 70.0864 72.3474 66.5481C72.5335 64.0951 73.4045 63.0216 74.5963 62.6519C76.4096 62.0873 77.9933 63.0176 77.9933 64.8067C77.9933 66.2181 76.659 67.3909 75.1703 67.3472C75.3485 69.0289 78.5318 70.818 81.9011 69.1839C86.0188 67.1961 87.8717 58.7517 81.7269 49.7746C75.6692 40.9247 70.0233 34.6153 59.1076 26.7792C47.0041 18.0803 30.0504 12.3275 16.0029 17.8935C16.3679 18.0336 16.7248 18.1942 17.0719 18.3745C29.3457 15.4961 40.4079 19.0265 50.8208 26.4054C61.6534 34.0865 66.9905 43.9462 62.3542 47.421C60.9985 48.3996 59.3676 48.919 57.6981 48.9039C58.6641 50.6015 59.4006 52.0248 60.7744 54.8118C63.9181 61.1729 65.2603 69.9433 67.9011 74.6664C74.4379 86.3987 80.2461 86.196 84.1341 84.876C80.6619 83.6157 76.8095 82.2322 74.2439 75.8512Z" fill="#004996"/>
<path d="M58.3831 90.8125L53.2756 106.509H49.9775L55.085 90.8125H58.3831Z" fill="#3DAE2B"/>
<path d="M91.2492 90.8125L86.1457 106.509H82.8477L87.9551 90.8125H91.2492Z" fill="#3DAE2B"/>
<path d="M32.0703 106.463L35.3763 96.2891H38.6704L35.9979 104.511C36.964 104.698 41.6914 105.481 43.576 104.475C44.1303 104.177 44.5381 103.282 44.7044 102.777L46.8147 96.2891H50.1088L47.5946 104.03C47.4165 104.602 46.9889 106.077 44.5381 106.578C42.0873 107.079 37.0432 106.805 32.0703 106.463Z" fill="#3DAE2B"/>
<path d="M39.458 93.838L40.4439 90.8125H43.738L42.7521 93.838H39.458Z" fill="#3DAE2B"/>
<path d="M43.9873 93.838L44.9692 90.8125H48.2633L47.2775 93.838H43.9873Z" fill="#3DAE2B"/>
<path d="M26.9587 125.887C25.3037 125.887 25.47 125.052 25.7709 124.174L27.0339 120.313H33.6895L34.2755 118.516H27.6041L29.1442 113.777H36.4689L37.0509 111.984H26.0362L21.9898 124.44C21.4435 126.118 21.7404 127.696 24.3654 127.696H32.2166L32.8026 125.903L26.9587 125.887Z" fill="#004996"/>
<path d="M70.9863 120.367L68.6108 127.679H65.4434L69.0067 116.773C69.4818 116.809 69.9418 116.957 70.3492 117.205C70.7565 117.453 71.0997 117.794 71.3506 118.201C72.7346 117.495 74.2393 117.059 75.785 116.917L74.9931 119.266C74.5576 119.302 72.3681 119.509 70.9863 120.367Z" fill="#004996"/>
<path d="M37.7635 116.771L34.2002 127.676H37.3676L40.0203 119.526C40.6893 119.028 41.483 118.726 42.3128 118.655C42.4824 118.648 42.6506 118.69 42.7978 118.775C42.9449 118.86 43.065 118.985 43.1442 119.136C43.282 119.522 43.282 119.943 43.1442 120.329L40.7686 127.66H44.0034L46.6561 119.51C47.325 119.012 48.1187 118.71 48.9485 118.639C49.1182 118.632 49.2864 118.674 49.4335 118.759C49.5807 118.844 49.7008 118.969 49.7799 119.12C49.9201 119.505 49.9201 119.928 49.7799 120.313L47.4044 127.644H50.5718C50.5718 127.644 52.5871 121.502 52.7217 121.033C52.8563 120.564 53.1889 119.252 52.8603 118.441C52.2189 116.85 50.8292 116.703 50.0135 116.703C48.6562 116.717 47.3344 117.141 46.2206 117.92C45.9231 117.541 45.5425 117.236 45.1085 117.029C44.6744 116.822 44.1987 116.719 43.7183 116.727C42.3932 116.719 41.0945 117.099 39.9807 117.82C39.7035 117.501 39.3633 117.243 38.9817 117.062C38.6 116.882 38.1853 116.782 37.7635 116.771Z" fill="#004996"/>
<path d="M95.814 118.647H92.6466L90.7857 124.364C90.6467 124.736 90.5835 125.132 90.5996 125.529C90.6313 125.731 90.7857 125.926 91.3281 125.99C92.1312 126.042 92.9376 125.99 93.7275 125.835L93.1732 127.528C91.9294 127.79 90.6568 127.886 89.3881 127.815C86.3197 127.679 86.9729 125.723 87.1076 125.215L90.5759 114.5H93.9809L93.1692 116.997H96.3366L95.814 118.647Z" fill="#004996"/>
<path d="M74.8305 106.505C78.3939 106.505 80.8764 105.109 82.0443 102.66C83.6003 99.42 81.7711 96.9511 79.2333 96.3508C75.274 95.4086 72.261 97.3845 71.1167 99.4161C70.1546 101.126 69.9963 103.344 71.5483 104.66H68.7412C67.787 104.66 67.3594 104.525 67.0981 104.302C66.8368 104.08 66.8764 103.471 67.0506 102.942L71.0098 90.8047H67.7038L63.7446 102.931C63.5704 103.471 63.1546 104.72 63.7168 105.487C64.2791 106.254 65.3639 106.509 66.6071 106.501L74.8305 106.505ZM74.4346 100.191C75.3096 98.3704 77.0161 97.5117 78.2078 98.0961C79.3995 98.6806 79.4391 100.334 78.5839 102.294C77.7921 104.147 76.3945 105.173 74.8701 104.628C73.5794 104.163 73.4804 102.08 74.395 100.187L74.4346 100.191Z" fill="#3DAE2B"/>
<path d="M83.5998 127.819C83.1611 127.83 82.7245 127.753 82.3164 127.591C81.9082 127.429 81.5367 127.186 81.2242 126.876C78.3498 128.403 76.1722 127.672 75.7327 127.528C73.9906 126.948 73.08 124.825 74.9923 122.813C76.972 120.726 82.0279 120.869 82.6971 120.869C82.8071 120.558 82.8996 120.241 82.9742 119.919C83.0098 119.66 83.2672 118.845 81.5053 118.678C79.8819 118.58 78.2542 118.781 76.7027 119.271L77.3877 117.172C78.7874 116.895 80.2095 116.749 81.636 116.734C83.9482 116.734 85.2468 116.989 85.9358 118.062C86.4386 118.857 86.201 119.839 85.9951 120.448L83.5998 127.819ZM82.2061 122.36C78.5319 122.471 77.7321 123.779 77.55 124.081C77.3679 124.384 77.0868 125.393 77.8153 125.851C78.7774 126.447 80.9075 125.485 81.2876 125.183L82.2061 122.36Z" fill="#004996"/>
<path d="M62.8217 127.819C62.3827 127.832 61.9456 127.756 61.5371 127.594C61.1286 127.432 60.7574 127.188 60.4461 126.876C57.5677 128.403 55.3901 127.672 54.9506 127.528C53.2046 126.948 52.2979 124.825 54.2102 122.813C56.1899 120.726 61.2419 120.869 61.911 120.869C62.0229 120.558 62.1155 120.241 62.1882 119.919C62.2278 119.66 62.4851 118.845 60.7232 118.678C59.1024 118.581 57.4775 118.782 55.9285 119.271L56.6135 117.172C58.0132 116.895 59.4353 116.749 60.8618 116.734C63.174 116.734 64.4727 116.989 65.1616 118.062C65.6684 118.857 65.4269 119.839 65.221 120.448L62.8217 127.819ZM61.428 122.36C57.7577 122.471 56.9619 123.779 56.7719 124.081C56.5818 124.384 56.3086 125.393 57.0451 125.851C58.0072 126.447 60.1333 125.485 60.5134 125.183L61.428 122.36Z" fill="#004996"/>
<path d="M56.812 109.659C54.8918 110.454 50.0417 110.252 49.3369 110.252L49.9348 108.407C50.1723 108.407 51.8392 108.431 52.9676 108.343C55.3827 108.16 56.036 107.807 56.8002 105.441L59.7775 96.2969H63.0756L60.0982 105.441C59.8132 106.32 59.1876 108.681 56.812 109.659Z" fill="#3DAE2B"/>
</g>
<defs>
<clipPath id="clip0_61_524">
<rect width="112" height="142" fill="white"/>
</clipPath>
</defs>
</svg>
