<svg width="92" height="115" viewBox="0 0 92 115" fill="none" xmlns="http://www.w3.org/2000/svg">
<g clip-path="url(#clip0_61_154)">
<path d="M14.834 15.3577L15.0909 15.4447C31.4043 19.8203 40.9366 29.5794 46.7029 38.4595C47.8934 38.4987 49.0605 38.1264 50.004 37.4066C53.0676 35.0691 49.1323 28.2239 40.6602 22.0323C32.6954 16.2142 22.0833 13.3486 14.834 15.3577Z" fill="#3DAE2B"/>
<path d="M47.9447 47.4175C47.7756 46.4902 46.3446 42.488 44.2957 39.8961C39.2091 40.1505 34.4348 40.0346 26.083 37.3203C31.1533 45.7432 41.0141 48.2997 47.9447 47.4175Z" fill="#004996"/>
<path d="M66.3724 34.2788C64.1584 32.1702 61.7548 30.2659 59.1914 28.5895C61.2241 29.0306 77.4691 28.0808 71.176 13.6562C72.4769 14.5159 78.796 20.598 74.8543 27.4368C74.0412 28.8535 72.6948 31.3134 66.3724 34.2788Z" fill="#3DAE2B"/>
<path d="M71.0103 13.0112C74.939 15.3069 79.0238 21.5307 75.8887 27.5484C74.1519 30.8616 71.742 32.8707 67.2441 35.176C68.5826 36.5893 69.7807 38.1269 70.8216 39.7674C74.978 36.8696 77.7945 33.3279 79.2385 27.9606C80.4288 23.5463 78.9133 15.6547 70.6818 12.2578C70.7566 12.4091 70.968 12.9114 71.0103 13.0112Z" fill="#004996"/>
<path d="M60.9863 61.4287C60.2025 59.5194 59.152 56.7601 59.4285 53.8945C59.5813 51.9079 60.2968 51.0386 61.2757 50.7391C62.7653 50.2819 64.0662 51.0354 64.0662 52.4842C64.0662 53.6273 62.9702 54.5771 61.7473 54.5417C61.8937 55.9036 64.5085 57.3525 67.2762 56.0292C70.6585 54.4193 72.1806 47.5806 67.1331 40.3104C62.1571 33.1432 57.5194 28.0334 48.5529 21.6873C38.6107 14.6425 24.6845 9.98348 13.1455 14.4911C13.4453 14.6046 13.7385 14.7347 14.0236 14.8807C24.1056 12.5496 33.1925 15.4088 41.7459 21.3846C50.6441 27.6052 55.0281 35.5902 51.2197 38.4043C50.1062 39.1968 48.7665 39.6175 47.3951 39.6052C48.1886 40.9801 48.7936 42.1327 49.9221 44.3898C52.5044 49.5414 53.6069 56.6442 55.7762 60.4692C61.1456 69.9707 65.9167 69.8065 69.1104 68.7376C66.2582 67.7169 63.0938 66.5964 60.9863 61.4287Z" fill="#004996"/>
<path d="M47.9583 73.5391L43.7628 86.2507H41.0537L45.2491 73.5391H47.9583Z" fill="#3DAE2B"/>
<path d="M74.955 73.5391L70.7628 86.2507H68.0537L72.2491 73.5391H74.955Z" fill="#3DAE2B"/>
<path d="M26.3438 86.2159L29.0594 77.9766H31.7653L29.57 84.635C30.3635 84.7863 34.2467 85.4206 35.7948 84.606C36.2501 84.3646 36.5851 83.6401 36.7217 83.2312L38.4552 77.9766H41.1611L39.0959 84.2454C38.9495 84.7091 38.5983 85.9036 36.5851 86.3093C34.572 86.715 30.4286 86.4928 26.3438 86.2159Z" fill="#3DAE2B"/>
<path d="M32.4121 75.9893L33.2219 73.5391H35.9278L35.118 75.9893H32.4121Z" fill="#3DAE2B"/>
<path d="M36.1328 75.9893L36.9394 73.5391H39.6453L38.8354 75.9893H36.1328Z" fill="#3DAE2B"/>
<path d="M22.1448 101.947C20.7853 101.947 20.9219 101.271 21.1691 100.559L22.2066 97.4329H27.6736L28.1549 95.9776H22.6749L23.94 92.1396H29.9567L30.4348 90.6875H21.387L18.0632 100.775C17.6144 102.134 17.8583 103.412 20.0145 103.412H26.4638L26.9451 101.96L22.1448 101.947Z" fill="#004996"/>
<path d="M58.31 97.481L56.3586 103.402H53.7568L56.6839 94.5703C57.0741 94.599 57.452 94.7187 57.7866 94.9196C58.1212 95.1205 58.4031 95.3969 58.6092 95.7262C59.746 95.1546 60.9821 94.8017 62.2517 94.6862L61.6013 96.5891C61.2435 96.6181 59.445 96.7855 58.31 97.481Z" fill="#004996"/>
<path d="M31.0198 94.5704L28.0928 103.402H30.6946L32.8736 96.8017C33.4231 96.3983 34.0751 96.1541 34.7567 96.0965C34.8961 96.0909 35.0342 96.1246 35.1551 96.1935C35.2759 96.2625 35.3746 96.3639 35.4396 96.4861C35.5528 96.7983 35.5528 97.1398 35.4396 97.452L33.4883 103.389H36.1454L38.3244 96.7888C38.8739 96.3854 39.5259 96.1413 40.2075 96.0837C40.3468 96.0781 40.485 96.1117 40.6059 96.1807C40.7267 96.2496 40.8254 96.3511 40.8904 96.4732C41.0056 96.7851 41.0056 97.1273 40.8904 97.4392L38.9391 103.376H41.5409C41.5409 103.376 43.1963 98.4019 43.3069 98.0219C43.4174 97.642 43.6906 96.5795 43.4207 95.9227C42.8938 94.6348 41.7523 94.5156 41.0823 94.5156C39.9673 94.5266 38.8816 94.87 37.9666 95.5009C37.7223 95.1941 37.4097 94.9473 37.0531 94.7797C36.6966 94.6122 36.3058 94.5284 35.9112 94.5349C34.8227 94.5288 33.7559 94.8365 32.8411 95.4204C32.6133 95.1618 32.3339 94.9527 32.0204 94.8064C31.7069 94.6601 31.3662 94.5798 31.0198 94.5704Z" fill="#004996"/>
<path d="M78.7051 96.0848H76.1032L74.5747 100.715C74.4605 101.016 74.4085 101.337 74.4218 101.658C74.4478 101.822 74.5747 101.98 75.0202 102.032C75.6799 102.074 76.3423 102.031 76.9911 101.906L76.5358 103.278C75.5141 103.489 74.4688 103.567 73.4266 103.51C70.9061 103.4 71.4428 101.816 71.5533 101.404L74.4023 92.7266H77.1993L76.5325 94.7486H79.1344L78.7051 96.0848Z" fill="#004996"/>
<path d="M61.468 86.2539C64.3951 86.2539 66.4343 85.1237 67.3937 83.1404C68.6718 80.5163 67.1693 78.5168 65.0846 78.0306C61.8323 77.2675 59.3573 78.8678 58.4174 80.5131C57.6271 81.8975 57.497 83.6942 58.7719 84.7599H56.4661C55.6823 84.7599 55.331 84.6504 55.1164 84.4701C54.9017 84.2898 54.9343 83.7972 55.0774 83.369L58.3296 73.5391H55.614L52.3617 83.3593C52.2186 83.7972 51.8771 84.8082 52.3389 85.4296C52.8008 86.051 53.6919 86.2571 54.7131 86.2507L61.468 86.2539ZM61.1428 81.1409C61.8616 79.6663 63.2633 78.9708 64.2422 79.4441C65.2212 79.9174 65.2537 81.2568 64.5512 82.8442C63.9007 84.3446 62.7527 85.1753 61.5006 84.7342C60.4403 84.3574 60.359 82.6703 61.1103 81.1377L61.1428 81.1409Z" fill="#3DAE2B"/>
<path d="M68.6719 103.516C68.3115 103.525 67.953 103.462 67.6177 103.331C67.2824 103.2 66.9772 103.003 66.7205 102.753C64.3594 103.989 62.5707 103.397 62.2097 103.281C60.7787 102.811 60.0306 101.091 61.6015 99.4621C63.2276 97.7717 67.3808 97.8876 67.9304 97.8876C68.0208 97.6355 68.0968 97.3786 68.1581 97.1181C68.1873 96.9088 68.3987 96.2488 66.9515 96.1135C65.6179 96.0337 64.2809 96.1963 63.0065 96.5933L63.5691 94.8932C64.7189 94.6694 65.887 94.5508 67.0588 94.5391C68.9581 94.5391 70.0249 94.7451 70.5907 95.6145C71.0038 96.2584 70.8086 97.0537 70.6395 97.5463L68.6719 103.516ZM67.5271 99.095C64.509 99.1852 63.8521 100.244 63.7025 100.489C63.5528 100.734 63.3219 101.552 63.9204 101.922C64.7107 102.405 66.4604 101.626 66.7726 101.381L67.5271 99.095Z" fill="#004996"/>
<path d="M51.6038 103.516C51.2432 103.527 50.8842 103.465 50.5486 103.333C50.2131 103.202 49.9081 103.005 49.6525 102.753C47.2881 103.989 45.4993 103.397 45.1383 103.281C43.7041 102.811 42.9593 101.091 44.5301 99.4621C46.1563 97.7717 50.3062 97.8876 50.8558 97.8876C50.9477 97.636 51.0237 97.379 51.0835 97.1181C51.116 96.9088 51.3274 96.2488 49.8801 96.1135C48.5487 96.0345 47.214 96.1971 45.9416 96.5933L46.5043 94.8932C47.654 94.6692 48.8222 94.5506 49.9939 94.5391C51.8933 94.5391 52.96 94.7451 53.5259 95.6145C53.9422 96.2584 53.7438 97.0537 53.5747 97.5463L51.6038 103.516ZM50.459 99.095C47.4442 99.1852 46.7905 100.244 46.6344 100.489C46.4782 100.734 46.2538 101.552 46.8588 101.922C47.6491 102.405 49.3955 101.626 49.7077 101.381L50.459 99.095Z" fill="#004996"/>
<path d="M46.6666 88.806C45.0893 89.4499 41.1053 89.2857 40.5264 89.2857L41.0175 87.7918C41.2126 87.7918 42.5818 87.8111 43.5087 87.7402C45.4926 87.5921 46.0292 87.3056 46.6569 85.3898L49.1026 77.9844H51.8117L49.366 85.3898C49.1319 86.1014 48.618 88.0139 46.6666 88.806Z" fill="#3DAE2B"/>
</g>
<defs>
<clipPath id="clip0_61_154">
<rect width="92" height="115" fill="white"/>
</clipPath>
</defs>
</svg>
